<mxfile host="65bd71144e">
    <diagram id="3pn9ryqLtqRpx6eXxCHT" name="脚本执行流程图">
        <mxGraphModel dx="7155" dy="2650" grid="0" gridSize="10" guides="1" tooltips="1" connect="1" arrows="1" fold="1" page="0" pageScale="1" pageWidth="1169" pageHeight="827" math="0" shadow="0">
            <root>
                <mxCell id="0"/>
                <mxCell id="1" parent="0"/>
                <mxCell id="8" value="all_processes.py 脚本主入口" style="swimlane;fillColor=#e3c800;strokeColor=#B09500;fontColor=#000000;" parent="1" vertex="1">
                    <mxGeometry x="-82" y="130" width="340" height="220" as="geometry">
                        <mxRectangle x="-82" y="130" width="190" height="23" as="alternateBounds"/>
                    </mxGeometry>
                </mxCell>
                <mxCell id="10" value="全局变量" style="shape=table;startSize=30;container=1;collapsible=0;childLayout=tableLayout;fontStyle=1;align=center;pointerEvents=1;fillColor=#d80073;fontColor=#ffffff;strokeColor=#A50040;" parent="8" vertex="1">
                    <mxGeometry x="20" y="40" width="300" height="160" as="geometry"/>
                </mxCell>
                <mxCell id="11" value="" style="shape=partialRectangle;html=1;whiteSpace=wrap;collapsible=0;dropTarget=0;pointerEvents=0;fillColor=none;top=0;left=0;bottom=0;right=0;points=[[0,0.5],[1,0.5]];portConstraint=eastwest;strokeColor=default;" parent="10" vertex="1">
                    <mxGeometry y="30" width="300" height="43" as="geometry"/>
                </mxCell>
                <mxCell id="12" value="full_dir" style="shape=partialRectangle;html=1;whiteSpace=wrap;connectable=0;fillColor=#a20025;top=0;left=0;bottom=0;right=0;overflow=hidden;pointerEvents=1;strokeColor=#6F0000;fontColor=#ffffff;" parent="11" vertex="1">
                    <mxGeometry width="120" height="43" as="geometry">
                        <mxRectangle width="120" height="43" as="alternateBounds"/>
                    </mxGeometry>
                </mxCell>
                <mxCell id="13" value="待处理的文件夹绝对路径" style="shape=partialRectangle;html=1;whiteSpace=wrap;connectable=0;fillColor=none;top=0;left=0;bottom=0;right=0;overflow=hidden;pointerEvents=1;strokeColor=default;" parent="11" vertex="1">
                    <mxGeometry x="120" width="180" height="43" as="geometry">
                        <mxRectangle width="180" height="43" as="alternateBounds"/>
                    </mxGeometry>
                </mxCell>
                <mxCell id="15" value="" style="shape=partialRectangle;html=1;whiteSpace=wrap;collapsible=0;dropTarget=0;pointerEvents=0;fillColor=none;top=0;left=0;bottom=0;right=0;points=[[0,0.5],[1,0.5]];portConstraint=eastwest;strokeColor=default;" parent="10" vertex="1">
                    <mxGeometry y="73" width="300" height="44" as="geometry"/>
                </mxCell>
                <mxCell id="16" value="save_file_type" style="shape=partialRectangle;html=1;whiteSpace=wrap;connectable=0;fillColor=#1ba1e2;top=0;left=0;bottom=0;right=0;overflow=hidden;pointerEvents=1;strokeColor=#006EAF;fontColor=#ffffff;" parent="15" vertex="1">
                    <mxGeometry width="120" height="44" as="geometry">
                        <mxRectangle width="120" height="44" as="alternateBounds"/>
                    </mxGeometry>
                </mxCell>
                <mxCell id="17" value="处理数据后存储的文件格式" style="shape=partialRectangle;html=1;whiteSpace=wrap;connectable=0;fillColor=none;top=0;left=0;bottom=0;right=0;overflow=hidden;pointerEvents=1;strokeColor=default;" parent="15" vertex="1">
                    <mxGeometry x="120" width="180" height="44" as="geometry">
                        <mxRectangle width="180" height="44" as="alternateBounds"/>
                    </mxGeometry>
                </mxCell>
                <mxCell id="19" value="" style="shape=partialRectangle;html=1;whiteSpace=wrap;collapsible=0;dropTarget=0;pointerEvents=0;fillColor=none;top=0;left=0;bottom=0;right=0;points=[[0,0.5],[1,0.5]];portConstraint=eastwest;strokeColor=default;" parent="10" vertex="1">
                    <mxGeometry y="117" width="300" height="43" as="geometry"/>
                </mxCell>
                <mxCell id="20" value="directory_name" style="shape=partialRectangle;html=1;whiteSpace=wrap;connectable=0;fillColor=#1ba1e2;top=0;left=0;bottom=0;right=0;overflow=hidden;pointerEvents=1;strokeColor=#006EAF;fontColor=#ffffff;" parent="19" vertex="1">
                    <mxGeometry width="120" height="43" as="geometry">
                        <mxRectangle width="120" height="43" as="alternateBounds"/>
                    </mxGeometry>
                </mxCell>
                <mxCell id="21" value="生成的结果文件夹名称" style="shape=partialRectangle;html=1;whiteSpace=wrap;connectable=0;fillColor=none;top=0;left=0;bottom=0;right=0;overflow=hidden;pointerEvents=1;strokeColor=default;" parent="19" vertex="1">
                    <mxGeometry x="120" width="180" height="43" as="geometry">
                        <mxRectangle width="180" height="43" as="alternateBounds"/>
                    </mxGeometry>
                </mxCell>
                <mxCell id="23" value="one_to_one.py" style="swimlane;strokeColor=#3700CC;fillColor=#6a00ff;fontColor=#ffffff;" parent="1" vertex="1">
                    <mxGeometry x="647" y="84" width="3109" height="1655" as="geometry">
                        <mxRectangle x="647" y="84" width="112" height="23" as="alternateBounds"/>
                    </mxGeometry>
                </mxCell>
                <mxCell id="37" value="全局变量" style="shape=table;startSize=30;container=1;collapsible=0;childLayout=tableLayout;fontStyle=1;align=center;pointerEvents=1;strokeColor=#A50040;fillColor=#d80073;fontColor=#ffffff;" parent="23" vertex="1">
                    <mxGeometry x="85" y="85" width="300" height="205" as="geometry"/>
                </mxCell>
                <mxCell id="38" value="" style="shape=partialRectangle;html=1;whiteSpace=wrap;collapsible=0;dropTarget=0;pointerEvents=0;fillColor=none;top=0;left=0;bottom=0;right=0;points=[[0,0.5],[1,0.5]];portConstraint=eastwest;strokeColor=default;" parent="37" vertex="1">
                    <mxGeometry y="30" width="300" height="43" as="geometry"/>
                </mxCell>
                <mxCell id="39" value="full_dir" style="shape=partialRectangle;html=1;whiteSpace=wrap;connectable=0;fillColor=#a20025;top=0;left=0;bottom=0;right=0;overflow=hidden;pointerEvents=1;strokeColor=#6F0000;fontColor=#ffffff;" parent="38" vertex="1">
                    <mxGeometry width="127" height="43" as="geometry">
                        <mxRectangle width="127" height="43" as="alternateBounds"/>
                    </mxGeometry>
                </mxCell>
                <mxCell id="40" value="待处理的文件夹绝对路径" style="shape=partialRectangle;html=1;whiteSpace=wrap;connectable=0;fillColor=none;top=0;left=0;bottom=0;right=0;overflow=hidden;pointerEvents=1;strokeColor=default;" parent="38" vertex="1">
                    <mxGeometry x="127" width="173" height="43" as="geometry">
                        <mxRectangle width="173" height="43" as="alternateBounds"/>
                    </mxGeometry>
                </mxCell>
                <mxCell id="41" value="" style="shape=partialRectangle;html=1;whiteSpace=wrap;collapsible=0;dropTarget=0;pointerEvents=0;fillColor=none;top=0;left=0;bottom=0;right=0;points=[[0,0.5],[1,0.5]];portConstraint=eastwest;strokeColor=default;" parent="37" vertex="1">
                    <mxGeometry y="73" width="300" height="44" as="geometry"/>
                </mxCell>
                <mxCell id="42" value="save_file_type" style="shape=partialRectangle;html=1;whiteSpace=wrap;connectable=0;fillColor=#1ba1e2;top=0;left=0;bottom=0;right=0;overflow=hidden;pointerEvents=1;strokeColor=#006EAF;fontColor=#ffffff;" parent="41" vertex="1">
                    <mxGeometry width="127" height="44" as="geometry">
                        <mxRectangle width="127" height="44" as="alternateBounds"/>
                    </mxGeometry>
                </mxCell>
                <mxCell id="43" value="处理数据后存储的文件格式" style="shape=partialRectangle;html=1;whiteSpace=wrap;connectable=0;fillColor=none;top=0;left=0;bottom=0;right=0;overflow=hidden;pointerEvents=1;strokeColor=default;" parent="41" vertex="1">
                    <mxGeometry x="127" width="173" height="44" as="geometry">
                        <mxRectangle width="173" height="44" as="alternateBounds"/>
                    </mxGeometry>
                </mxCell>
                <mxCell id="50" style="shape=partialRectangle;html=1;whiteSpace=wrap;collapsible=0;dropTarget=0;pointerEvents=0;fillColor=none;top=0;left=0;bottom=0;right=0;points=[[0,0.5],[1,0.5]];portConstraint=eastwest;strokeColor=default;" parent="37" vertex="1">
                    <mxGeometry y="117" width="300" height="44" as="geometry"/>
                </mxCell>
                <mxCell id="51" value="wf_data_files_count" style="shape=partialRectangle;html=1;whiteSpace=wrap;connectable=0;fillColor=none;top=0;left=0;bottom=0;right=0;overflow=hidden;pointerEvents=1;strokeColor=default;" parent="50" vertex="1">
                    <mxGeometry width="127" height="44" as="geometry">
                        <mxRectangle width="127" height="44" as="alternateBounds"/>
                    </mxGeometry>
                </mxCell>
                <mxCell id="52" value="记录 WF 前缀的文件个数" style="shape=partialRectangle;html=1;whiteSpace=wrap;connectable=0;fillColor=none;top=0;left=0;bottom=0;right=0;overflow=hidden;pointerEvents=1;strokeColor=default;" parent="50" vertex="1">
                    <mxGeometry x="127" width="173" height="44" as="geometry">
                        <mxRectangle width="173" height="44" as="alternateBounds"/>
                    </mxGeometry>
                </mxCell>
                <mxCell id="53" style="shape=partialRectangle;html=1;whiteSpace=wrap;collapsible=0;dropTarget=0;pointerEvents=0;fillColor=none;top=0;left=0;bottom=0;right=0;points=[[0,0.5],[1,0.5]];portConstraint=eastwest;strokeColor=default;" parent="37" vertex="1">
                    <mxGeometry y="161" width="300" height="44" as="geometry"/>
                </mxCell>
                <mxCell id="54" value="xy_data_files_count" style="shape=partialRectangle;html=1;whiteSpace=wrap;connectable=0;fillColor=none;top=0;left=0;bottom=0;right=0;overflow=hidden;pointerEvents=1;strokeColor=default;" parent="53" vertex="1">
                    <mxGeometry width="127" height="44" as="geometry">
                        <mxRectangle width="127" height="44" as="alternateBounds"/>
                    </mxGeometry>
                </mxCell>
                <mxCell id="55" value="&lt;span&gt;记录 XY 前缀的文件个数&lt;/span&gt;" style="shape=partialRectangle;html=1;whiteSpace=wrap;connectable=0;fillColor=none;top=0;left=0;bottom=0;right=0;overflow=hidden;pointerEvents=1;strokeColor=default;" parent="53" vertex="1">
                    <mxGeometry x="127" width="173" height="44" as="geometry">
                        <mxRectangle width="173" height="44" as="alternateBounds"/>
                    </mxGeometry>
                </mxCell>
                <mxCell id="56" value="dfs_dir 遍历目录中所有文件" style="swimlane;strokeColor=#005700;fillColor=#008a00;fontColor=#ffffff;swimlaneFillColor=none;gradientColor=none;" parent="23" vertex="1">
                    <mxGeometry x="418" y="45" width="630" height="653" as="geometry"/>
                </mxCell>
                <mxCell id="71" value="cur_dir 当前待处理的文件夹绝对路径" style="rounded=0;whiteSpace=wrap;html=1;strokeColor=#6F0000;fillColor=#a20025;fontColor=#ffffff;" parent="56" vertex="1">
                    <mxGeometry x="19" y="43" width="220" height="42" as="geometry"/>
                </mxCell>
                <mxCell id="86" style="edgeStyle=none;rounded=1;html=1;" parent="56" source="74" target="85" edge="1">
                    <mxGeometry relative="1" as="geometry"/>
                </mxCell>
                <mxCell id="74" value="cur_dir_item 当前的元素名称" style="rounded=0;whiteSpace=wrap;html=1;strokeColor=#C73500;fillColor=#fa6800;fontColor=#000000;" parent="56" vertex="1">
                    <mxGeometry x="54" y="149" width="211" height="37" as="geometry"/>
                </mxCell>
                <mxCell id="75" value="" style="endArrow=classic;html=1;rounded=1;" parent="56" source="71" target="74" edge="1">
                    <mxGeometry relative="1" as="geometry">
                        <mxPoint x="43" y="213" as="sourcePoint"/>
                        <mxPoint x="143" y="213" as="targetPoint"/>
                    </mxGeometry>
                </mxCell>
                <mxCell id="76" value="遍历该文件夹下所有元素（文件夹或文件）" style="edgeLabel;resizable=0;html=1;align=center;verticalAlign=middle;strokeColor=default;fillColor=default;gradientColor=none;" parent="75" connectable="0" vertex="1">
                    <mxGeometry relative="1" as="geometry">
                        <mxPoint x="7" as="offset"/>
                    </mxGeometry>
                </mxCell>
                <mxCell id="94" style="edgeStyle=none;rounded=1;html=1;strokeColor=default;" parent="56" source="77" target="92" edge="1">
                    <mxGeometry relative="1" as="geometry"/>
                </mxCell>
                <mxCell id="77" value="cur_path_name 当前的元素绝对路径" style="rounded=0;whiteSpace=wrap;html=1;strokeColor=#B20000;fillColor=#e51400;fontColor=#ffffff;" parent="56" vertex="1">
                    <mxGeometry x="196" y="338" width="224" height="36" as="geometry"/>
                </mxCell>
                <mxCell id="81" value="" style="endArrow=classic;html=1;rounded=1;" parent="56" source="74" target="77" edge="1">
                    <mxGeometry relative="1" as="geometry">
                        <mxPoint x="-106" y="357" as="sourcePoint"/>
                        <mxPoint x="54" y="357" as="targetPoint"/>
                    </mxGeometry>
                </mxCell>
                <mxCell id="109" style="edgeStyle=none;rounded=1;html=1;strokeColor=default;" parent="56" source="85" target="107" edge="1">
                    <mxGeometry relative="1" as="geometry"/>
                </mxCell>
                <mxCell id="85" value="前缀等于 “WF”&lt;br&gt;后缀等于 ”aim“" style="rhombus;whiteSpace=wrap;html=1;strokeColor=default;fillColor=default;gradientColor=none;" parent="56" vertex="1">
                    <mxGeometry x="37" y="229" width="140" height="131.5" as="geometry"/>
                </mxCell>
                <mxCell id="110" style="edgeStyle=none;rounded=1;html=1;strokeColor=default;" parent="56" source="87" target="108" edge="1">
                    <mxGeometry relative="1" as="geometry"/>
                </mxCell>
                <mxCell id="87" value="前缀等于 ”XY“&lt;br&gt;后缀等于 “aim”" style="rhombus;whiteSpace=wrap;html=1;strokeColor=default;fillColor=default;gradientColor=none;" parent="56" vertex="1">
                    <mxGeometry x="83" y="398" width="140" height="131.5" as="geometry"/>
                </mxCell>
                <mxCell id="89" value="" style="endArrow=classic;html=1;rounded=1;strokeColor=default;" parent="56" source="85" target="87" edge="1">
                    <mxGeometry relative="1" as="geometry">
                        <mxPoint x="440" y="306" as="sourcePoint"/>
                        <mxPoint x="517" y="417" as="targetPoint"/>
                    </mxGeometry>
                </mxCell>
                <mxCell id="90" value="否" style="edgeLabel;resizable=0;html=1;align=center;verticalAlign=middle;strokeColor=default;fillColor=default;gradientColor=none;" parent="89" connectable="0" vertex="1">
                    <mxGeometry relative="1" as="geometry"/>
                </mxCell>
                <mxCell id="92" value="传递 cur_path_name 给其自身继续做深度优先搜索" style="rounded=0;whiteSpace=wrap;html=1;strokeColor=#6F0000;fillColor=#a20025;fontColor=#ffffff;" parent="56" vertex="1">
                    <mxGeometry x="123" y="593" width="355" height="60" as="geometry"/>
                </mxCell>
                <mxCell id="95" value="" style="endArrow=classic;html=1;rounded=1;strokeColor=default;" parent="56" source="87" target="92" edge="1">
                    <mxGeometry relative="1" as="geometry">
                        <mxPoint x="224" y="504" as="sourcePoint"/>
                        <mxPoint x="324" y="504" as="targetPoint"/>
                    </mxGeometry>
                </mxCell>
                <mxCell id="96" value="否" style="edgeLabel;resizable=0;html=1;align=center;verticalAlign=middle;strokeColor=default;fillColor=default;gradientColor=none;" parent="95" connectable="0" vertex="1">
                    <mxGeometry relative="1" as="geometry"/>
                </mxCell>
                <mxCell id="107" value="传递 &quot;WF&quot;&lt;br&gt;同时 wf_data_files_count 加一" style="shape=step;perimeter=stepPerimeter;whiteSpace=wrap;html=1;fixedSize=1;strokeColor=default;fillColor=default;gradientColor=none;" parent="56" vertex="1">
                    <mxGeometry x="295" y="216" width="238" height="54" as="geometry"/>
                </mxCell>
                <mxCell id="108" value="传递 &quot;XY&quot;&lt;br&gt;同时 wf_data_files_count 加一" style="shape=step;perimeter=stepPerimeter;whiteSpace=wrap;html=1;fixedSize=1;strokeColor=default;fillColor=default;gradientColor=none;" parent="56" vertex="1">
                    <mxGeometry x="339" y="436.75" width="238" height="54" as="geometry"/>
                </mxCell>
                <mxCell id="70" style="edgeStyle=none;rounded=1;html=1;" parent="23" source="38" target="71" edge="1">
                    <mxGeometry relative="1" as="geometry">
                        <mxPoint x="455" y="133.74617524339362" as="targetPoint"/>
                    </mxGeometry>
                </mxCell>
                <mxCell id="97" value="signle_file_handle 文本数据处理" style="swimlane;strokeColor=#005700;fillColor=#008a00;fontColor=#ffffff;" parent="23" vertex="1">
                    <mxGeometry x="1160" y="263" width="1521" height="824" as="geometry">
                        <mxRectangle x="1100" y="41" width="206" height="23" as="alternateBounds"/>
                    </mxGeometry>
                </mxCell>
                <mxCell id="117" style="edgeStyle=none;rounded=1;html=1;strokeColor=default;" parent="97" source="100" target="115" edge="1">
                    <mxGeometry relative="1" as="geometry"/>
                </mxCell>
                <mxCell id="100" value="prefix" style="rounded=0;whiteSpace=wrap;html=1;strokeColor=#432D57;fillColor=#76608a;fontColor=#ffffff;" parent="97" vertex="1">
                    <mxGeometry x="62" y="112" width="142" height="46" as="geometry"/>
                </mxCell>
                <mxCell id="113" value="cur_thin_data&lt;br&gt;&lt;br&gt;存储处理后的数据" style="rounded=0;whiteSpace=wrap;html=1;strokeColor=#314354;fillColor=#647687;fontColor=#ffffff;" parent="97" vertex="1">
                    <mxGeometry x="466" y="721.5" width="196" height="62" as="geometry"/>
                </mxCell>
                <mxCell id="131" style="edgeStyle=none;rounded=1;html=1;strokeColor=default;" parent="97" source="114" target="113" edge="1">
                    <mxGeometry relative="1" as="geometry"/>
                </mxCell>
                <mxCell id="114" value="temp_dict&lt;br&gt;&lt;br&gt;暂存处理后的数据" style="rounded=0;whiteSpace=wrap;html=1;strokeColor=default;fillColor=default;gradientColor=none;" parent="97" vertex="1">
                    <mxGeometry x="489" y="609.5" width="150" height="69" as="geometry"/>
                </mxCell>
                <mxCell id="126" style="edgeStyle=none;rounded=1;html=1;strokeColor=default;" parent="97" source="115" target="122" edge="1">
                    <mxGeometry relative="1" as="geometry"/>
                </mxCell>
                <mxCell id="115" value="prefix 等于 “WF”" style="rhombus;whiteSpace=wrap;html=1;strokeColor=default;fillColor=default;gradientColor=none;" parent="97" vertex="1">
                    <mxGeometry x="317" y="64.5" width="157" height="141" as="geometry"/>
                </mxCell>
                <mxCell id="127" style="edgeStyle=none;rounded=1;html=1;strokeColor=default;" parent="97" source="116" target="123" edge="1">
                    <mxGeometry relative="1" as="geometry"/>
                </mxCell>
                <mxCell id="116" value="prefix 等于 “XY”" style="rhombus;whiteSpace=wrap;html=1;strokeColor=default;fillColor=default;gradientColor=none;" parent="97" vertex="1">
                    <mxGeometry x="662" y="64.5" width="159" height="146" as="geometry"/>
                </mxCell>
                <mxCell id="118" value="" style="endArrow=classic;html=1;rounded=1;strokeColor=default;" parent="97" source="115" target="116" edge="1">
                    <mxGeometry relative="1" as="geometry">
                        <mxPoint x="282" y="103.5" as="sourcePoint"/>
                        <mxPoint x="382" y="103.5" as="targetPoint"/>
                    </mxGeometry>
                </mxCell>
                <mxCell id="119" value="否" style="edgeLabel;resizable=0;html=1;align=center;verticalAlign=middle;strokeColor=default;fillColor=default;gradientColor=none;" parent="118" connectable="0" vertex="1">
                    <mxGeometry relative="1" as="geometry"/>
                </mxCell>
                <mxCell id="129" style="edgeStyle=none;rounded=1;html=1;strokeColor=default;" parent="97" source="122" target="114" edge="1">
                    <mxGeometry relative="1" as="geometry"/>
                </mxCell>
                <mxCell id="122" value="对应的数据处理" style="shape=process;whiteSpace=wrap;html=1;backgroundOutline=1;strokeColor=default;fillColor=default;gradientColor=none;" parent="97" vertex="1">
                    <mxGeometry x="295" y="325.5" width="201" height="85" as="geometry"/>
                </mxCell>
                <mxCell id="130" style="edgeStyle=none;rounded=1;html=1;strokeColor=default;" parent="97" source="123" target="114" edge="1">
                    <mxGeometry relative="1" as="geometry"/>
                </mxCell>
                <mxCell id="123" value="&lt;span&gt;对应的数据处理&lt;/span&gt;" style="shape=process;whiteSpace=wrap;html=1;backgroundOutline=1;strokeColor=default;fillColor=default;gradientColor=none;" parent="97" vertex="1">
                    <mxGeometry x="641" y="325.5" width="201" height="84" as="geometry"/>
                </mxCell>
                <mxCell id="128" value="" style="shape=image;verticalLabelPosition=bottom;labelBackgroundColor=#ffffff;verticalAlign=top;aspect=fixed;imageAspect=0;image=data:image/jpeg,/9j/4AAQSkZJRgABAQEAYABgAAD/2wBDAAMCAgMCAgMDAwMEAwMEBQgFBQQEBQoHBwYIDAoMDAsKCwsNDhIQDQ4RDgsLEBYQERMUFRUVDA8XGBYUGBIUFRT/2wBDAQMEBAUEBQkFBQkUDQsNFBQUFBQUFBQUFBQUFBQUFBQUFBQUFBQUFBQUFBQUFBQUFBQUFBQUFBQUFBQUFBQUFBT/wAARCAI6A2ADASIAAhEBAxEB/8QAHwAAAQUBAQEBAQEAAAAAAAAAAAECAwQFBgcICQoL/8QAtRAAAgEDAwIEAwUFBAQAAAF9AQIDAAQRBRIhMUEGE1FhByJxFDKBkaEII0KxwRVS0fAkM2JyggkKFhcYGRolJicoKSo0NTY3ODk6Q0RFRkdISUpTVFVWV1hZWmNkZWZnaGlqc3R1dnd4eXqDhIWGh4iJipKTlJWWl5iZmqKjpKWmp6ipqrKztLW2t7i5usLDxMXGx8jJytLT1NXW19jZ2uHi4+Tl5ufo6erx8vP09fb3+Pn6/8QAHwEAAwEBAQEBAQEBAQAAAAAAAAECAwQFBgcICQoL/8QAtREAAgECBAQDBAcFBAQAAQJ3AAECAxEEBSExBhJBUQdhcRMiMoEIFEKRobHBCSMzUvAVYnLRChYkNOEl8RcYGRomJygpKjU2Nzg5OkNERUZHSElKU1RVVldYWVpjZGVmZ2hpanN0dXZ3eHl6goOEhYaHiImKkpOUlZaXmJmaoqOkpaanqKmqsrO0tba3uLm6wsPExcbHyMnK0tPU1dbX2Nna4uPk5ebn6Onq8vP09fb3+Pn6/9oADAMBAAIRAxEAPwD8/KKKK+jPhQoopaQhKKX0+tKq5+nbii6HYbRS9qSmFgopaKBCUUtGPegBKKWjH5dqQxKKWimAlFLRQISilpSuOvA60DG0UH5c54I6jPSlIA70gsJRSheSO49KDxQAlFFFMQUUUUAFFFFABRRRQAUUUUAFFFFABRRRQAUUUUAFFFFABRRRQAUUUUAFFFFABRRRQAUUUUAFFFFABRRRQAUUUUAFFFFABRRRQAUUUUAFFFFABRRRQAUUUUAFFFFABRRRQAUUUUAFFFFABRRRQAUUUUAFFFFABRRRQAUUUUAFFFFABRRRQAUUUUAFFFFABRRRQAUUUUAFFFFABRRRQAUUUUAFFFFABRRRQMKP8/WilA9elAHYeDdNe40PxDLbvol3MunyvNa6hBK88EYwGkiITarjcMfNn+t34X+E/wC1rnUdSlTTrhLSwuJ4YLy6gwZlXCGSNmB2AkHcw25wM9qp+Bta0LQrTVft91qIudQsJbDy7aySRI97KQ4Zpl3fdPGB161U8L+INP8ADt14gGbi6trzTLmxt38sK5L4Cs67yFGBk4Jx718tiFiKixEKN76W0evfsda5Uotmd4me8fVCt6NPE6IF/wCJYtsIcdR/x7/ITzz37HpUvhHwne+NNXOm2D26XPkyTg3EmxMIhYgt24HBOB6kDmsbofWu++CKxt4znErtHEdMvd7xqGZV+zvkgEjJGehIr6OnHkpqHbtovuOd2lIoP8M72R9Jax1PTdUtdRvxpiXdo8nlxXBK/I+5FI4bIIBBAODRq/wyvtJstTnTUdN1CbS5I4r20sZHkkgLsVXJ2BG+bAwrEgkZA5xo6X420bw2nh6w00X97p9nq8WrXl1cQpHLIyEKESMO4ACA878sSfugYPJ6lrAm8U3Wq2wK77x7mMTAZHzlhuA//V2FF5NmklFI2L74b3tnHqMf9padPqmmxGe90uGSQz26ggPklBG23PzBHYj04OOt03wfeeHvh1HqNqnh2XVbrUXjefULvT7hEgSJSETznKBizEkD5+F6Yql40+Jy+KDqF1beKfFVkb5d7aK532iswG+IP54/d5Jx+74HHPWuYuvE1tN8OrHQBHMLuDUpbtpCF8so0aoMHOcjae2OR9KHzOPzGuRM1PB+nS3mg+KLmBvD95P9hmlntr+2lM9vGGAMsBWMRq+XGMN+FYuj+CdQ8Q6JeajprQ3s1rKkc2nxbjdBXIVZAu3DLuIXgkgnkAc1seAte8PaBp+s/wBo3mpi71SwlsClrYRSpHuZW372nXd93pgdevFP8GeONO+HS32oaIbq88QPIILSe7t1WKK13ZdiokYl3AC7eignBJ6V3sRo7XOZ8TeHpPC+sTabNd2t5cQ4ErWbs6Rv3QsVALL0O3Izxk1U03Sr3WboW1haXF9csCRDbRNI5A6nCgmr3iy50e81ya60OO5gsp8S/Z7oLmFzyyKwY7lB6E4OO3GTR028isboTTWNvqCD/lhcmQIff5GVvyNTNzVNuO/9eaJdubyL914L8Q2DQC60LU7YzyCKITWci+ZIeiLkcseeBzxRqHgvxBpNrJc3uh6lZ2seN89xZyIi5IAySvHX9aLrXrG4a3MfhvTLURSCRlikusSgZ+Rt0xwpz/Dg+hHOU1DXrK8tHhh8O6bYyNjFxBJdM649A8zL7cqev4jz4VMW3FSj66L/AOS/zLtDXUxx8rc/iP8AP1rvtM8XeH7PQ7K2n0dJruPT7y3klNpEQ8zsDC+ep2gfe6jPHcVwP04o9iQB1PAr1Xsc04KorM7bXvBrzWejXGkWLeUNHW/vGViQCJXRn5PsvA/IV1l34H0+zs9afTPDX9t3drcWkSW4+0vtD2+6Q7Y3BzuB68CsnS/iXp2n6DoVk9rcPNAWg1D5V2yWxaX5U+bk4lPYcgVS8WePNP1zTNftreG6T7dqMVzD5qgBYkjK4b5jhuRQ3rZf1oeRbEykotWSe999TO0nVLDQPEOqf2voK2gazlgj0/yC4gmKAI22ZiRzzkknk4qj4y1jTtbu7CXTrJbCOKyihmVYkjDSqPnfC8HJ79Tiuf3HnnvmlVh05x7Y/rSSPV9kufnvqaXiTQv+Ec1RrI6hY6mVRX+0adN5sXzKDjdgcjOD71mVp+Ihov8AajDQPt39nbFx/aOzzt2Buzs4xnpWZTWxsxKKWkpkhRRRQAUUUtACUUtJSGFFFFMQUUUo96QCUUtCjPtTGJRS0lABRRS0CEopaKQxKKKKYgooooAKKKKACiiigAooooAKKKKACiiigAooooAKKKKACiiigAooooAKKKKACiiigAooooAKKKKACiiigAooooAKKKKACiiigAooooAKKKKACiiigAooooAKKKKACiiigAooooAKKKKACiiigAooooAKKKKACiiigAooooGFLmkooAu6pp/9mzwx7/MElvFP93H30V8dT0zjNU9x4z26f5NbHir/AI/rP/rwtP8A0QlY1LfcbCl6jFJS0eoluH1/+t6UdOB/Oruj6TPrmq2thbAGe4kWNMnAyT39q0tU0HTLW4W2s9WkvLlZhC+618uM9QWRt5LAH+8F6/hW8aM5JNLd2IlUSdmzn/X8/wD69KMZya6ybwL5er+JLEXu4aNC8vmeT/rdrquMZ+XO7PfpVmTwDplq2mQ3fiGO1utQtFuoleACOPKkgSuXG0EjAIDHvj11WErWvbT1Rl9YhdK+5xX40Nz70rABsA5HrXR23ge71LSdNutPLXtxdm4DWyqFMflBWJ3E85DZ/CsIU5VL8ivY1lJR1kzmqK6638BiW6sYftF1cNc2KXpisLJriZdxOFChgCAACWJHXvVu6+GTW+vJpn22RJbnT2vrRbi2MUkjAMfKdC3yNlGHVug9a6Pqdb+Ux+sU+5w1LXT6Z4En1Sw0t451S+1K7a2gtnXAKqBukLZ4AJx07H6Vo6x8M5dL02a/WW9itraVI55NS057ZArNtDqctuXPXgEAg4NT9VrcvPbQft6d7X1OI2+//wBakGCM4zXp2vxvoHhHRrXTvE0VpFLaSyyRW7XMZvGMjAniMZ4UL8+3pWJb+AbV9QstKuNXNvrV5Grxw/Z90KM43Ro8m/IYgr0Qgbhz1rSeDnGfJH+mEcRGS5jjP8nHFGeldZb+DLGLQbXVNT1drJJppYPIjtTLIGTbkj5lGPm5yR04z22bT4T294FCa/C7zTXMNu0MQkjk8pN+/eG4Uj6kEgYPOCOBrzdor8UKWKpx1b/BnnNOB/rW14s8Np4bvraKG6N5BcWsd1FI0flttcZwy5OD17movDXh9vEF88JmW1t4YnuJ52Bby4kGWIA+8ewA6k9utc/sZ+09lb3jb2kXDnvoZXIAPtSV6BrlnZP4B0OCxuppoH1GcGa5g8sglI+qoz5AH4+1VdY+HP8AY+ivqjSalDbwzRxTLqGnG2fa2cOnzndjHIyMZFbywdSLfLstzGOIg9972OJ2n0pK9A8ZaT4ftdF0J4Li6hmk07fHt0+NBO3mSYZyJeD0Bxu4A69Kr+Gvhm/iazhkhlv0lnR2jk/s9jagqD8rTbuDxzhSBnvQ8HVVR0o62BYiDhzt2Rw9LilZdrEeldh8Lbcz+KLQWuqT6XqbMUtpo7NLhRlSG3BmGOPY9e1c1KDqy5Ym0pci5mcdiiuj8P8AhqHX4NWu7nUPscVjGs0jCHzC4ZwpAAI554zwTwSo5F5/h8kt9pwtNR8zTrqze+a7mhMZiiQsHJQFskbTjB545FbfVaskpRW5m68FKzepx+04zSV6NJo9vqXgXSdO0e4mvDc6y8atcQrCd5iQdA78dDnP4VS1j4Yy6Xpd5fb9QWOyZRO13pzW6OpYLuiYsd+CRwQvBz61tUwVSDvHVExxEG2m9ThaK7S++HsFhp82qtqu/RDCr2t2kHzXErcCHZu+VgQ2eeAM9wK5+00/TZtBv7qfVfs+pwvGttp/2dm+0gn5j5g+VNo5wevauSpSnRdpqzNYVI1NYu5l07qv49KbXTfD2HzvE9ksOozabqDSCO2mjtEnUFgQSwZhgY9AevtXJWqKlBzfT+uh3YWi8RWjSXV+X6tfmc369+cUY5GeK6PSfDv/AAkGsawl3qItRaRy3U1w0O4NtcBvlU8E7iePTHHWrNv4Z0+1utAu3vp5tO1Fj5ZNonmb0lCFHTzMbT6hj1+7XJPHUYaN6pX69rnpwyjEVGmvhbtdtd7bX7nJhsYxSGuo+IFnpVl4m1KOxklWRbplNt9mWOGNeeFYOc44H3R3Ncv69q6qNaNamqqVr/I87FYaWFrSoyd2hKVffpW83gnUVhMv2jSdgXd/yGbPdjHp5uc+3WsHjp606danWvySTt2OXllHcXg8jp2pOO1d7o+ltp/hXS9QgtbKRrqWWW7vdSgWaKKGMhAmGU4LEnhRuPAGaxviFpNpo/iaaOwGyzmjjuI4+fkDqDt6nvnitNnynu4jKamHwixTl2v89rd/M5qiiiqPnwooooAKKKKACiiigAooooAKKKKACiiigAooooAKKKKACiiigAooooAKKKKACiiigAooooAKKKKACiiigAooooAKKKKACiiigAooooAKKKKACiiigAooooAKKKKACiiigAooooAKKKKACiiigAooooAKKKKACiiigAooooGFFFFAGz4q/wCP6z/68LT/ANEJWNWz4q/4/rP/AK8LT/0QlY1JDYUtJS0xIu6Lq0+h6taahbELcW0gkQsMjIOcEfhWhqusaXcTedYaTLZXDSiVmkuvNRe5VF2DAJ/vFjx+NYWO3+frR/nPatI1pwSS6O//AAxHs1J3O4vPiFZTS61cRaK0d9q0LRXEz3e4IWKkmNdg2gkcglj0wRznB8SeIj4ik09vs/kG0s4rX7+7dsz83QYznpWL2z078/rRt7Hj1rWeJq1I8rehMKFODulqbkPg6/uIUlSfTNrDcN2q2qkDHcGQYrWsfFt34N0t9I8iGS8juluY7qG6SVIxlGKqUJU5Macg9iK48Er0OPxxg03r356UQrOi+alo/wCvIJU1U92pqju7z4k219NqkUukyR6XfW8FuLa3u9jxLFjaA5Qgg4PBXuPTnN1bxsb7W9G1Cxshp/8AZcSRRR+aZMhJGcEkgH+LB9cH1wOdtbOe+kMdtBLO4VnKxoWO1RknjsAM5qHGPpjnn/OPxq3i60lrLf8AQiOHpR0S2OqvvHs0nijT9V060Wxi0/AtrRnMiqNxZgTgZ3Fmz04x6Vn65qOj36u9hpt3YTM+795erLGoOchV8oN9CWPvmsT6c9ulB+Udev61lPEVKifO73/rsaxpRjblWxs6z4h/tTT9HthB5I0+3aDdv3b8uzZxjj72O/StqHx/arfWWqzaR5ut2kSRpN5+IHZF2o7x7MlgAvRwDtFcYB82P6ijp3prEVFJzv8Al/VyfYwatY3NQ8TNqXh+w014Nr2s805m353mTbn5ccY2+/WtXQfiD/YtjplsbDzvsbXR3edt3+dGE9OMYz3z7Vzuk6Hfa81yLKHz2t4GuJfnVdqLjJySAeo461R65z1pU8ZUjNuElzddvxLnhV7NOUfdex1WpG68b/Yp4Es7RbO0jsitxqMERfYPvAOynBz6Ee9Gl/afA88s93FZX1rdQSWk0FtqMMjlHHOPLZipBwQxGOK5q1tZ764S3toZLmZzhY4lLMx9gOtRZJH48c0/rCU/aX9/r/wxPsbR5WvdOzj+IMNiuixadpKwRaXdm7TzZ/NaTIXIY7QM5U8gAdOOCTDqHjSym0LUtNstLmgN9OlxLcXF550m5STjOxePmPvzyTxjke9FV9bqST10foR9Xppp2/M6O+8SWWq6HY2t5pszXdjA0EFzBdBE27iy70KNnBY9GXIP41t6f8SrO0u9K1CbR5LjUNPtltY2+2FYtihgCECZDYJ/ixkk45rghlsKPWrtvouo3ljJeQafdT2cO7zLiOBmjTA5ywGBgc9aI4qqm5X3NYYRVvdhG9r7XL0fhG9uIY5km0xVkG4B9VtUbn1DSAj8av8AhvU7bwDr0d1e2R1C8t3DxG0v4jEOCOSqOG69iOlcszE4IJ6YyD7f5603v0qFVcGpw3XfX9CZQ5lyyOkh8T2WnWms2llp86QahAkP+kXIkaMh1cnIRc524xgYz1NW7P4gC1Glxvp4mt7WxlsJ4zKR50cjMWIOPkPze/T8K5FVMjYAyfQcmprixubRS09vLCqyNES6EYdfvL/vDjiqWJqx2ZLoU5atHUSePY7XT9NtNJ002C6fffbYpJZ/Od22gHf8oBOR2AGMDHc0dX1jRNSmluIdIu7SeWTzHVb5WiGTlgqmLPrjLHHvXPfr64NXG0i/jsVv3srgWTfduTE3lHtw2MdeKJ4qrNWb0+QRoQi7panT3fxCivrWfTZdMzofkLFbWSz4aCRckSh9vLkltx2/MGx2Fc/a32m2+hahaT6V9o1OZ0a21D7Sy/ZgD8y+WPlfcOMnpWbkZPT8x/n0pKipWnVd5u5Uacad+XQStrwnrdp4d1aDUbizmvJrd1khWOdYlBHXdmNie3Qis6HT55rK4u1jzbW7KskmRwWzgYzyTg/lVfnp74rjq041oOEtmddCtPD1FVhuvK/5nR2/ie2s7zWJbSymRNSspLZkmug5RnYEuCEXI4+6R681Xn8SPNpehWccAjfSXlkWQvkSF5A44xxjGOvNYvH+etGOn86wjg6MXdL8X2sd8s0xUr+936Lq7v8AE2vFGt2XiC+mvorGe0vbiTzJi1yJIjkc7V2AjJ9WPf1rF4pOMj+tHvjit6dKFOCprY4a9eeIqOrU3fkl+RvN421BoTF9n0nZt2/8gaz3Yx6+VnPv1rB+nWjr0FWrLS73UhIbK0nuhGu9/JjZ9i+rYHA9zShRp0k3CKV+xjzOWlzY0/xRbroMej6nYy31lBcG4hENz5JBIIZWyrBlP0BHPPNZ3iDXJ/Eer3GoXAVHlIARM7UUABVHsABWc3yjPbPGeKDW3W531cfia1FUKkrxVu3TbzEopQpbgDNCjd0OaZ5wlFaK+H71tPF6Vhit2VmQzXEcTSAdSiswZh2yAeQfSq+n6dcapcGG2TzJAjSEbgMKqlmPJ7AUgsytRS++aP8A9VMBKKmhtZbpisEUkzBSxVFLEAAknA9AD+VRHjv/AEoASilwaXb68f59aAG0VJNby25TzY3iDqHXzFK5U9GHqDUdILBRRV3T9F1DVt5srG6vAmN/2eFpNufXA4//AF0AUqKUgr149c0UBYSilCluAM0Dnpz9KYCUVpR+H72TT/tuyKK3YMyGa4jjaQDrsVmDP/wEHniq+n6bcareJa2qebO4JC5C8AEk5OB0BpBZlWiilxTASil4xnNGPmweP8+tIBKKtSabcQ6fBfPHttZ3aOOQsPmZcFhjOeNw7d6q0BYKKX37d/ar0mg6nDY/bZNOu47PAP2hoHEeCcA7setMChRS+39RSUAFFFHXpzSAKKXj1x657VYj064ksJr1Y820LrG8hYDDNnAxnJ+6emelMCtRS4/CjHGScD6UAJRUq2srQtMInMKsEaQKSqsQSAT05AJqPHU9utACUUu0/j6U6GNriRI4lMruQFWP5iSewA60gsMop8kbQuyOpR1OCrDBB7g5pn05oAKKKsWun3V9HNJb2006QrvlaOMsI19Wx0HB/I0BYr0UuPmxSUwCiij9fpSAKKX8f8KsQ6dcXFndXccebe2KCVywG3cSF4zz07UwK1FFLxxz3xQAlFLx60u38/SgBtFWb/TrjS5kiuY/Ld41lUZByrAMp49QRVagAooooEFFFFABRRRQAUUUUDCiiigDZ8Vf8f1n/wBeFp/6ISsatnxV/wAf1n/14Wn/AKISsakhsKWkpaYk7O5seE9FTX/Emm6dJN5UdzMsbOMfKCeo96u6pdaVd6glra6LHYItwFEqzSNIyZwfM3MRk8H5QuK52GeS1mSWF2jljYMrqcEMOQQfUVqar4s1PWl23csTEv5jPHbxxvI3952VQXPU/MTyc110qlOMUpLVO/qYSjKUrp9DqrrwvpieJPG1stoVh062kktV3t+7YSRhTknngnr19+Kk1SHwz4ffQ4brR3miu9PjuLq4jmcyKzqfmiUMqggjJ3bh04GOecuPiDrl1b3MMl2my6j8q48u3iRpl4++wUFyMcFskZODyaydS1e71loGvJhMbeBbePKqMIvCrgdevU8+9dM8RQ5GoR1f+ZhCjV5k5y0Xr2Kbf/WrrfBdno95Z3a3X2J9ULL9ni1KaWKAphix3xsuG4AG4gc1QisfDrRoZdW1JJCBuVdNjYA46A+eM/kKZHrp0GaWLSpIbu1YhhJqGmwNJnHo3mbfoGrmpWpSvUV0/Rm87zjaLszsfBEZ0PxjqtleaJaQ3S21w5TzJG8seQx2KRJgqR6knB4NYnhbTtM8Wa9M89na6baWdnJcvDE83lyFAT8xZncdedvYHAzWFH4o1SHXP7YS8kGpbixuGwxORjGCMYxxjGMcU9fFeox6vBqcEkNpeQrtR7W2ihHU9VRQp6nORyOK6PrFJ+zUldRv0XUx9jP3pJ6tL8DsbTR/DOsa5oEFu1nLNPeLBc2liboRPEcYbMwDhs5BwehBAqhd6fouqeH/ABBNZ6aNOk0uWLyrgTO7TKzlCJNx25P3vlA6dKztG8aPF4k0nUNQit/s9ncCVhZWUMLYBGfuKu7jsTVLX/Fl9ravbu8cVn5rSrDb28cAJPRmCKAWA4yc4yfU1cq1F0/hV9dlYlU6imtXb18/xIby/wBNk0HT7SDSjb6jC8jXOofaHb7QpPyr5ZG1do7jrWUfyrUuvE+pX2h2Gj3FwJNNsHeS2g8tR5bOcsdwG459yRWZu7146W7PRbR03hGzstUtdZt7uwhmkg0+4uo7ndIJEZVGAMMFIHJwR3+lSaNY6dD4LvdWurEXtzDepDGskrpGQyk/MFIJAIB4IOQOcZBytJ8UahocLxWhtkWRWjdntIZHZWGCpZlJwfTpUM2v3s9nc2heNLa4lE8kMMKRoXAwCAoGMDPAwK8iph8ROcrO0W093ey+R9NQx2DpUqalG84xkvhVrt6Pzt5o9D0OxsNB+KmmW9rYReVdQx3EfmSOzQFoWZghDDP/AALd+Fecahew32xodOttOCggi3MpVvY73bGPbFTTeJNSm1S21Frthe26osUyqqsoQYUcDB445HNRaprFxrEyy3K2/mKSd0FrFCWJ6ltijP41WHwtWjU55SvprqycbmOHr0HSox5feutFtb8NRul2f9oalbWu24fznVNtrF50pyQPlTcNx9BkZ9a6fxB8P/7F0me9+zeJY/Lx82oaF9mhGWA+aTzm29fTrgd64z1o444GfpXXUp15VIzp1OVLdWPnYyir3Q7hRmvWYVt9L1zwVMJ3d/slrHZWNqWT5nOJJHPZclhjq20g4A58lDEY55HfvWxY+LtV02zjtbe5VI4gwiYwxtJCGGG8tyu5P+Akckmupq6t2PeyfMaWAc3Vje9vO1nfbTf+kQeJIoYPEGpx26Klsl1Msar90KHbGPbFZ30o3HmkprRI8TEVFWqzqJWu2/vZ1Pw/0/7RrH2qS3tLmCzRp2S6uFj2lRlSAXXPIAzgqN3PYi34+k+z2unWT2NhBLsNxK1rdNKyyyEs3HmNgEFeSDnBwcYrk7e+mtYbiOJ9iXCCOUYHzLuDYz25UdPSi/vp9Tupbm5kMs0p3OxAGT9Bxx0HsKTV2ZxlZF3wzpyat4i0yzk5jnuY0f1ILYI/LNdf9sgefxVeTM9632R4nkUt5EW5gsUSA/eI4wTwAhwCPmrz+GaS3mSWN2SVCGV1OCCO/wClXtS8Q32rRCK4kTyd5kMcMKQqzn+JggGW9zmh6u4KSSIhdWv9jmA2Z+2+cH+2+c3+rxjZs6dec/8A66p+vrk1cutYu76xsrOeUPb2assCBFG0N15Ayfxqn9RkelUiXqdhYzW2leAUa4tReS31+zRQs7KhWNACW2kE4LnAyOec8EGXWtC0vQJtUvPsv2qNLlbWCxaRwqOU3SByDvIUnAGQe+eKwLPxVqVjZw20UsXlwFmiZ7eN3jJOSUdlLKc9wR0plj4m1LT4pY4bgFZZPObzY0kIk5+dSwJVufvLg+9Rylc3Q6LUtM0Ww8TWNtfW6aYi2SS3MKtKYxcMpdVfJZwpyqkLzjP1qFvDK33iS0sZ7az021aKS4a50+Z5UlhXcWdWZ35+Qgd/UdqxD4mv3vZbqVoLmeRFRmubWKbhQFGAykDgdQM+uaZ/wkWo/wBpw6gLjZcwgLGURVVVH8IQAKF9QBg5PrRZhdGprzaF/ZxWzW1N2Zh5f2FrggRdxKZsZY5X7qjofYVzXGBzx0HFaNxqzatNAl95MECn5ns7KJGAPU4QJuI9z3PrVjxVry67dWvlRtFBaW0dpEZDmRlQcM3uc/hwO1OKsKTuY38vfpXW+Cr2e30/XZ2nkMFpYSeXGWyqySlY9wHrg9evFcj6+9bVr4u1KzsmtIvsgt2ADo1jA2/HI3ZT5ufWm9mJblPS7q1s7gyXll9ui2MBEJTGNxGAdw54z+NUu/tVy01i7sbW9toJRHDeIEnUIp3KDkDkcfhVPPOaYdDb8O6PHqtvqu+LzZYrZTCckBXaVFzx7E1qXXhzT9B024lvlmv1kuIktZIX8lnRo97kZDDPzx9Qe9c9p2t3ukxXcdpOYEu4vJm2qCWTOccjj8K0LHXo7m4spdZuLq4j06NUtbWGNNrBeQpbcNoyB82GPPtUyuOL01N3xVa6fqXii20S3t7pLmLyLCOZrlWiTG0HKCMZ5Lfxdcn2osJbO00/xNcadpscVta2xtI76R5GmkaRxHk4bbkgscBeBxz1rkbrWJ7jWpdUR/LunuDcB1x8rbiwP51ot4outWWS11K+eCwl+aRbS0iPzA53bAUGT/eBBOADnApcpXNqYORu7enWur8P6bYX2kgW1vZalrJc77O+mkjYrwF8rayBickkFs4HA9cma10RYXMWoai8oQ7FawRQTjgEiY4HTtRD4mvra3WKBraHamwTQ2kKygEYOJAu4HHfOap/DYS0dza8J30Nhouv3kmmWsxhg8nzJWlU/vXVNhw4wuA3QBuOtU7VNPbTLrW5tOh2rMltDYRPKImYqSWY7ixAAHAYZLVk6brV1pKzLbtHsmAWSOaFJUbByMq4Iz74qxZeKNR09Z1gljVJpBMUaCN1WQZw6KVIQjJ5XB5qbO4cysdU/h3Sv7ftYLuxFlBDpLXt9DCzna+0sANzE8ZTgGuebUNJmjgFvoyx3yzkeW0khSWMjjzDvDb93dQo56dhTl8SalNNcyvclpLmBbeVii5aNduB04+6MkdefWs5G8tgVypU5BB6fSiK7g2uh1vj7VLdtcu7GLS7SFrXZaJcRvKJFEahcAb9uMg/w/jXI1p3uuT65cRnUZIwu7dJPBaRCU+pJUKXP+8341P4o15NanskhjZLWxt0tYvM++6rn5m7AkknAzjPU00rIUncxcZ7E/hzW/4btZG8q/vLmS20eynWRipyXl4ISMdC5CjJ7DBNc/gd+a218Y6n9it7RzZzW9upSJJrCCTYD6bkNNiVhn9tWl34jutTvtO+1QXDyzNarMUwWyR8w54JHpnFZHertnrV5p8N7FbyiOO8Ty512Kdy5zjkcfhiqNCBm54d0ePVbfVd8XmyxWymE5ICu0qLnj2JrTvPDlhoOm3E16st8HuYltpYm8ppEMZkcrkMAfnjHKnriuf07W73SYruO0nMCXcXkzbVBLJnOORx+FX7PXIry4sn1q4upodPREtreCNMFVOdhO4beg+bDHik9yovTU2vGEen3Wt22jW1vdC5git7KKVrpDGmQCQU8sEnLNzu68+1WdN+xaXJ4iaw0+NYtLtpIF1CV5POeRiYgcbtgzluNvHHJPNcZqGrzahrFxqRPl3E07T7kP3WJJ4+h/lWk3iy91TzrbUb1obG4OZ1tbSLLHcG3bBsy2QPmzngc8UuUfN2MDvnGPrXaWOj6PpOn6ZNqUtk894ouHjvDc5SLcQNghGCxAJ+ZsZwMcZODJa6F5bbNR1FnwcBtPjC59yJjgfhSW/ia+gs4rbNtPBEGEa3FrDMUBOSAzqSBnnANV0sJaO7NeG10W18P3uqPZSXO6/MFjDcSMuU2k4faRnhkJxgk4wRzVvVtB0zR7jU76S03RW620SWQlfYbiSLewZs7towxxkE8cgCuRfUrmSyt7RpM28DtIke1cBmxuJ45zjvV+LxdqkNxeTCeOR7txLMs0EciMwPDbWUgEZOMAYqbMfMjT8cSG3s9BsvskViUtGuWhiL4RpHJ/jYt90L1PU+mK5Rv0rd0/xALjXINT1e4ubiW22NH5SAtIyfdVmyMZxy3JrN1jUn1jVLu/kRY5LmVpmVegLEnFNCk76lTjofwrrPDi29toOuXFlLNLqAsdk0c0YjjSNmCuQQW8w8jAbbjOeelcrDK0EySKFLKQwDKGU4OeQeD+NX7zxFfX1r9md4orckM0NrbxwI5GMFhGq7iMcE5xk460yUyKC6tI9MuoHsvNu5GUxXXmsPKAPI2dGyPXpVM1ck1i7l0uHTnlDWcMhlSPYowx6ndjJ6DqapUA2b2mWNpaaDLq93b/bibj7LDas7KhOwszPtIYgAgAKQcnrU1jDp11aahrE1iq29v5UcdiksnlvK+RksSWCgKxxuz05rM0/Xr3S7eW3heJ7aVg7Q3EEc0e4DAba6kA4JGRzin2fiTULB7popUf7UwaZZ4Y5Vdgcg7XUrkeuOKQ+bQ6i60HThFY3Nzp4sPJ01tRure3kkHmbn2wrmRm25BUk+hPQ4FU9cuFh8DaaI7CDTlv7uS4CwNKQ6xqEUne7d2boR0rHHi7Vvtv2p7szTGE27NMiyb0PJDBgQ2SSckHr681LJrC+INv8Abeo3QEORCLe1STAY5IxvTaB2wMAYAwBU8rsWpJPQxOmRgZ9OPy/lXWalp1h/Yf2nSLaxvoEiUzXLzyC7hc7dxaPcq43NgFVI9TWJcx6XbxrLY3l5cTq6kR3NkiIcHqT5jA9OhHelvPEd7eWj2zNBFBIQXW1tYoN+DkbtijcM84ORnHpVtdiVpudDcatbaf4J0uNtGsZDd3EkxV3nwQgVA5Akzkkv7cdKr2Ol2sMWjxLp0epajqzF0jmkkEcUe8oANjKScgkknoBx3rDj8QXsWm/YN0MlqN2xZreOQx7uuxmUsv4GrFn4w1awt4Ibe6EawcRN5KM6DOdocqWC5z8ucHJ45NTZj5ldG/eaXoVjH4kvjZGS1tb5LWyhV3CsfnyGOc7cLk9+wIzkHhW+0qbxPZ3NtpUW2C3NzOsskhEckSs5Mf7w5BwvDZ74xXJ3GrXd1atbSS7oGna4K7RzIwwWJxk8e9N0/U7nSbpbm1k8qYAjOAwIIwQVIII9iKEhORLqepRalJuj0+2snyS32dpW8wk997t39MDrVFuv+NatnqUFxq8d7qJMSREPssbZIwzAjC4Xaq5x97Bx6Godf1d9e1q81GSNYnuJC5jXovoPfjvTWisDs9StZWU2o3cNrboZJ5nCRqByWPAr01tJ1Dw/4X1+wtNPvFhht1iebyGH2qVmHmMMjlFVGAPbJJ+9geWdsEZqyupXK6e9iJP9FeUTMm0cuAQDnr0J46USV1YUXYks7q0hsbuKWy+0XEmwQXIkK+Rgkk7QMNuHHP1qkauNrF22kjTDL/oSzGcR7RneRjO7GenvVPvmmJ6m7pdha2+gz6xdw/bNtwLWG1LsqMxUsxfaQxAAHCkE+oxzNp8On3y6jqs9iIreyjT/AEGKZ9kkjNjGSSwXgkjOTggHnjL03XrzS4JoIHjaCUhnhnhSZCwzg7XUjPJ5xmn2fiO/sZLp4pUP2oYmSWFJEfByPkZSvB6ccUDudRJoOnXVnpc89gunN9in1C5jtpJP3kQIEQG9mxux1HODmquq3UcfgONotOg01dQviVWB5CXSJSOd7t/E/bHSsc+MNXa+S8e8MtwsTQbpY0cNGxJZWBBDAknqP5VI+tf29GkWtajcpFASYEt7RJAu7AIxuQKAFGAOOKjldi1JXMVEaRlVRl2OOBzmu21TS/D3h9rqwuJLW4mt4mjkaM3BujPjAxkCIKCc87uATk9BzN7DpUdvus7y+mm3fLHPZrGvU/xCVv5U688TX+pQGO5NvNuUK0zWkPnEDGP3mzdnAxnOapole7udXp+i6Omp+HNNbTluru+gjlvGmmkURqxZsqFYYbbj/Z4HHJrLstJtLS20pFsE1S+1SQ+VHdM6pFHvKKcIVJYkHJzgDHHesX/hIL86h9tM+bnyfIDFFIVNmzAGMD5eKmsfFuq6bawwW9ysawZ8pvJQvHk5IVyu5QT1UHByQQQTScXYakr6k3jq6F34t1JlAWOOTyEAzjagCD9FrBqS4ne6uJZpW3SyMXdsAZY8k8VHVLQhu7CiiimSFFFFABRRRQAUUUUDCiiigDZ8Vf8AH9Z/9eFp/wCiErGrZ8Vf8f1n/wBeFp/6ISsakhsKKKKZIUUUUAFL7/40lFHqMX1HaiikpAFLSUUxC5pKKKQwooopiCiiigAooooAKKKKACiiigAooooAKKKKACiiigAooooAKKKKACiiigBaSiigYUUUUCCiiigApaSigA+vNL+GaSigYo4opKKACiiigQUUUUALSUUUDCiiigQUUUUAFFFFAC0UlFAxaM5680lFABRRRQIWkoooGFFFFAgooooAKKKKACl47jNJRQMX+frRSUUAFFFFAgooooAKKKKBhRRRQIKKKKACiiigAooooGHrnk+tLSUUAFFFFAgooooAKKKKACiiigAooooAKKKKBhRRRQBs+Kv+P6z/AOvC0/8ARCVjVs+Kv+P6z/68LT/0QlY1JDYUUUUyQopRzx3oPGf/ANVK6HYSitS50/TYtBs7uLVfO1KWRlm0/wCzsvkqM4bzCcNn0HrS3vh24sdB03VpHiNtfvMkSKTvBjKhtwxj+IY5PfpXMsTSdtd3b5lcrMqitzVvDJ0vwzoer/aPN/tI3AMITHleU4XrnnOc8gYxWJjtmrpVoVleDuJxaV2JRSgZ/nShSzEDnFbiG0U7b064PtSbeueMUWYCUUu09xiuy8I/DlvEHhPxB4o1HUBo2gaSnlC6aHzWu7xgTFaxLuGWbGWOcIo3HsCm+VXY0nJ2RxlFLigrjr19MUXFZiUUuOtHfA5/Ki4WYlFLjPTn/P8An8q6jXPCeneG9Lszf6ndf2xd2Ud7HZwWStCqyZKK0rSqQSuCcIcZA5pNpbjUXLY5aitabTtLj8N295Hq/m6u87RyaX9mceXGAcSeb91snAwOma1LbwjYX/gfU9dttTuTdaa8CXFnNZqqEyswASQSnONvdRRdahytuxytFL/PsKKfkISilxxmjjrkY9cin5AJRS0cc8/qP1pDsxKKXHpR+OaBCUUelL6cdelMBKKXHuCPXIoxxk8DtSASit9vCu3wPF4i+0536k2n/ZfL5GIw+/dn36Y7dawewPai+43FoSilx68fWu+8N/C+HxBpukXb6ubUagbodfs28J5K7uu8btw+mPegxqVI0lzT2OAopzKVbHXnHFdD4Z8Ir4g0zWruS7Nr/ZsCzbBFv8zLBcZyMdaY5TjCPNLY5yit7xt4ZXwf4kvNKW7+2i3KjzvL2bsqG6ZOOuOvasGluVGSkroKKUDP1ox/nFBQlFLj0/z/AJ4/OjbwDQFhKKXaenU9PWjjsc0+tgEoro/EnhOPw1qGiwTX+6LULG2vnm8nHkLKMkEAndtHfjPoKzvEFjp+n6xc2+l6mNWsI2UR3xgaHzAQMnYckYOR+FTzIdmZtFLjpwaTjtz9Kd0KzCil49fWu98LfC+LxJYaNctqrWv9oz3EIX7NvCeVHvzneN2eB7Zp+ZlUqRpK8zgaKcy7Seelanh/w5ceJLu4t7Z40eGCS4YykgFUUsQMA84HFIuUlFcz2MmirWm6fLqmoW1nDjzriRYk3cDcxAHPpk1qeJ9E0zQ7qWztdRury7gmaGbzLNYYsgkEq3mEnkY5VaBc8eblvqYNFSRwvNIkaKWkZgoUdST2rqL34eXNpb6js1Gxub3TU8y9sYXcywLkBskoEbaSAdrHBNHmKU4x0bOTorvh8L4f7HN6dWYP/Yx1YRfZuuH2eXnfnr/Fj8KqaR8OH8RfDvV/EulX63l5osobU9I8oiWG1bAS6RgSHQNlX4BT5TyGyBtLcKM4121T1scZRS4o256UGlhKKX8aP/14HJpcy7hYSinbT/8Aq5966GbwzZabolneahqE8N1exNNb28FqJBtDFVLuXXGWB6BsAZ74raNOUk5LZbkSkotJ9TnKK0l0+xOgvdNqBXUROI1sPIPzJj7+/OOvGOtaOh+GbPW9H1K4W/mivbG3a5aA2wMbKGUYD785+Yfw1SozlLlWrtfcl1IxV2c5RTtvzY6Um3kjofzx+VY2ZqJRS4PfikpAFFFFMQUUUUAFFFFABRRRQAUUUUAFFFFABRRRQAUUUUAFFFFABRRRQAUUUUAFFFFABRRRQAUUUUAFFW/7Kuv+eWP+BD/Gj+y7r/nn/wCPD/GkMqUVb/su6/55/wDjw/xo/sm64/df+PD/ABpgXvFX/H9Z/wDXhaf+iErGrovE2n3El5aFY8gWNqv3h1EKD1rI/su6/wCef/jw/wAaSGypS1a/su6/55/+PD/Gj+y7r/nn/wCPD/GgR0fwquFh8faVG5/d3LPakdc+bG0f/s1djeeH9P8ADfgzxFe6b+6uLazTRb75y5N350TSso7Kw3LwP4Ca8vj0O9mWRkg3LEu9vnXgZA9fUimHS7noYuP95f8AGvDxeXSxFf2sajS0uu9jpp1FTWqPSvFWj+Kr74U6S+qWWsXNxa39y8jXkMrvFD5UeCdwOEyDz04qSbW/F+v/AA00KTSNQ1m/uIZ7qO+aznlkdAfL8sS7SSFxnGeOvvXmP9l3PeEHpxuH+NH9m3XeP/x4f41lHK2lFSkm4y5lp330uP2yVrLpY9N03xBqOieFPhwmn3klkLi+uBM0OEZ1Fwnys2MleTlehOMjiuF8eWsVn431+CCNYYY7+dI41GAqiRgAB2AHasv+y7of8s//AB5eP1o/su5Xnyv1H+NdGEy9YWq6ilun+d7/AKEyqc0eU6/wKt4fDutHRN3/AAkCvD5fkZ+0eTk7/Kx82c7M47ZrsNONy3iGw+0xC48SDQ7kXUciCSRn2MI1lU/ekK4BBycEV5CNLuv+eXPT7w/Eda0tCutR8P3M88FvG7zQSW7eYRja6lWIwRzg19fh8dGDjGS2t/Vu55FbDOd2nv8A19x31tcbl8Nx+N95vjqZcLqGfNW3KgYkDchC4GA3YNjjNReKNQ1GO1e11PRNZwbuPyr7U7oTRQMG58oiFQAwyMK2D8p7CvNP7Muv+eft95fxo/s266mP/wAfX/Gp+vuySj/XnoV9Vje9/wCvI9V1rVbvUta+IOm3EzSWNvazSRWpwI0cSptYKONxySW6nPJqfxLCbz9lPwfPpy/6JZeIr6HVcKMm6kijMDE4/wCeSlQc9R+XkbaXdf8APLj/AHsD/Oa6fwh4u1vwfpmv6bb2tpfaXrlqba9sr5BJG+M+XKuCCskbEsjg8H1GQePFVvrVtLWf6nVhorDt66NW/Cx0WgjWv+FZ2X/CDreHUzezf2wdI3m8AwPI3bPn8rBfkfLuznmm2Wj6t4m+Ges6daWj6hrMfiJJrm3s0VygMTrvOz5Qm/I3dB7V5x/Zd10MfP8AvCg6XdZ/1eR0+8On51yaXvc6HJKy7Hut3dy6R8QvGlzAYZJ7bwnC8blUnjDLFbEMM5VuRkdR061474i8aal4us9Mh1aRb2WxDqt7MzSXEiuwba7liWVTnaO2TWWdLuTz5X0+Zf8AGtLR86bI73OiWmrKwCqt5LMAh9QYpUOfqSPaiMbO45T5rWM3T72XTb2O4iWF5I+i3ECTocjHKOpU9e4/kCPRvjN4kvLi80u0MNgIZtHsJWdNOt1kUmNWwJAgZRkD5QQMDAGK5XUL2K+s3hh8KaTp0jY23NrNdF05BO0STsvOMcqfwrD/ALLuf+ef/jy/jSfvWdhX5Ueqa5ovi/UvglZ/2pZa3dS22rySj7ZFM5htRbrhvmHyxg55HFVPB/g3X7r4TeL/ACdD1KQ3j2Eltss5D5yB5CzJ8vzAAg5HY5rzf+y7rj93j6OP8aP7KuTjEfOcjBHX8KJL4vMPaK8W+h7F4PuLiw+Huhz+G9L16/vkuZhqqeHb0QSiUMTEtwghkZkKDjOFGGGMk58n8WXSXvibVJ49MOipJcO39nn/AJdyTymNq4wcjGBiqo0q67RdOvI/z2/StrS7uKws1iuPC2l6lICSbi6nuQ5yeh8udV49hn1p8urfcObmjynQfCzUJtJ0HxveWriO6g0tHjk2qxRhcRfMu4HDDqGHKnkYIBHUw2c3jDUvhtdX2oXA1KfT7l5LwbZbqdopJCiKz5BkIGFY5IJB5NeXax/xMmhNtoNjpOzO5bOWYiT6+bK/T2xWb/Zdz/zzB45yy0n7zuHNZJdj6P0WO6uZPAtxqtnq1vqK+IHjVdfvBdXqxNFkhj5aMilhkIwz3HDCqU2tXOt+Bz9vk85Ljw1fXEy4HzMl4BGMf9MxnYP4eQMDg/Pv9l3P/PLn/fH+NH9l3PeIen3x/jU8nmWqyWtj3XxtqE2mRaslh4Z17VfCE1gUtZIbwPpEcRjBEqRrblUZGG7O/cGBJPNeLWPhPVdT0LUNZtrQzabp7ItzMrrmIucL8pO45z1Ax71T/su5znygD7Mo/r09q3Ydc1Sz8K3Og2lnbWlteMrXk0RPm3QViyq5LkAKTwEC++apR5SHNSOWr334HXslv4Y0C3jYLFeeI54LhcD95H9jUmM+qkgEjvtHpXhv9l3XH7v/AMeX/Gj+y7r/AJ5/+PD/ABq3rHlJjLldz3e6ubzVdOtL7TyJfGc/hiN7CRR/pDH7VIJvIxz5giBC7eQo4xUGmR3FzeeF18QJHL45W0vzBHqQBuWfYPsaz7+S+7dsD842e1eIf2ZdZz5Q/wC+l/xoGl3I/wCWQ/76X/GslT0SuaOrfWx7NN/aLeCvCy+PLi7mB8UK1zHqkzSSxW5iQ7ZFYlowRltpxw2cAEVB8SNR1S10jxBZX3hnxDNp0sq/Zb++vBPY2vzgxvbbLdVRWQ7QFcDa+PTHkH9l3XH7v/x5fWj+y7n/AJ5Adf4x/j60+S633B1DspP+EdFkxB8JeZs42/2vvBx2z8oP14/CuC3EfXOT/n/Grf8AZl12jx/wIf40Lpl0vSPj/eH+NY4fD/V7++5X7siU+Y7nS9fvvD/wlhl0+drSeTWJUNxD8soXyYyQr9VzgZwRnGOma43xDrsviLWbrUpoYYJrhg0iW6FELYwTjPUnk88kk1B/Zdz3iz/wMf40n9l3XP7v/wAeH+Ndb1bZy06UablLq2Jp9hcaxqFrZWqebdXMiwxIWC7nYgAZJAGSe5qXXNDvvDerXWl6nbtaX9q+yWFiCVOAeoJB4I6GrmgtPoeqQ3raZaaiYjuWG8JMe4HIJCupOD2Jwe4NM1qbV/EWrXWpai5ub26cySysyjcx9hwB7DgdBxSe6S2N9LEfhf7B/wAJJpP9qY/s37XCbnOceVvG/wD8dz0r1z4j6jqVnp3iKyu/DPiC60eRlFpfXV4s+m2ihwYpbYLbqqKVIUBXxtbB6V42ul3S/wDLIf8AfQ/xpP7LucY8oHHTLL/n0/KlJcxcZcp73rOuX158QvFOhzXJbR18OyObI48lnFojh2UcM4YD5jzwBnAFcpar4h/4QLw1/wAIKl4I2WRtWbSwTKbgSNt+0FedgjIwG+XBb3ry86XdH/ln/wCPD/Gg6XcsMGIHnPLL/jUcmjVylUs7np2hR+If+EB01vBQuDqX9oT/ANrf2N/r88eRv8vnydu/H8Gc9+Dv6tHPI/i6fwSqS+JPtVily2ijMqx+T/pDQ7OdhnxuK9sZ4NeJ/wBm3X/PPn13D/Gj+y7n/nkP++h/jVOOt7gqlkeqfEQeJ28beHzo0+o3muroFr5s+lTPNM52ESHfESWBPUgkH1710N5o+o2X7UEF3dWVzBbXV23kT3ETBJsW/O1iMN7/AK14T/Zd1z+7/wDHlzR/Zdz3j/8AHl/xqVCyXzG6ibk+56nYatdeLPAUcmtXK3xg8T2scDXpAigjdH3IOMRx4VflUAADpXQ/EvXNd0nRfGVpFB4ul06/uERWv7N4LKwgR2yInV2DK2VTGEUg968W0n+0tD1S01G0VUurWVZombawDKcjg8duldLeeNtRkXV2sdC0zSLrVkeO7u7V5nkkjdtzr+9mdRuPUgZ+lKUHayGqi1uPt/8AhHDZxeZ/wifm7Bu3/wBr792Ohx8u7Pp8ufauDViOBgdM47Zqz/Zd1/zz/wDHx/jSjS7np5XGMffH+NZYfD+wveblfu729DOUuZWZ3en6TeeIPhnpcGnW73UlvqsrTiMcQqyJhnPRF4PzNgDHWusj1i+t/jB4msLW+mhS6huBDDHOVWWbyMJgA4LZxg/SvGf7Nuu8fH++P8aT+zLrnEeP+BL/AI119Ty5YTn5k5aO/wCLudt4f1TxJp/xB0ddbS5a8nuLdD/bFuJZlj8zjaZVLLzu5XHfmsjx1rUmoeLNQju4bc20F9MpW0tobeR13kEF1TLHAHLbueeawP7Muv8AnkM/7w/xo/su64/d/wDj4/xpJaI6o0oqfP5WNLzdHuNSsE0+K80keaPNuLu7WcICw+YBYkxj8fwr1TxZDcNZ+MRdadJolv5IMeuFVH9pFWUqrHaFYy8t+629t27FeM/2ZdcZjyAc/eX/ABo/s264/djjp8y/40PZozqYdTkpX2Kxc8D7vYj+leyfsuBrbxf4l1C6jZtFs/DWpPqWH2KYWgZVQnI5ZygHPJxzxXkn9mXP/PL6fMvH610kHirXLPwFc+EbS3trPTL26W7vpYVAnvCoHlpI5Y5RCCyqABuYk5O3CktHbqdsLKSu7HIDt2Fd58L9Onmh1y/tJNSlvbOBPKsdHYJdzBpAGKPtYqFGN21TkMAeOvG/2Xdf88h/30P8aP7Lue8X/j4/xrkxVCWIoOjGVilNKfPY9e8UTXmm/EDwxfQaJd6tqn9jhprZZfPumlHmx+Y0iJzLHgfOU4KDOcVynxS026tW0u5udU1m5N0shTT/ABBu+12iqQoJyTlWO7BwvTpXGf2Xc/8APIf99L/jR/ZdyesQ/wC+l/xrzcLljws4T578qttv970NJVlK+m5Db3Btpo5lCOyMGAkRXXjsQwII9iOa7/x54gupNF8ORmOyC3WlkyEWEAYZlcfKdmU4H8GO/rmuHOm3R/5ZZPrvH+NL/Zt1x+7BwMfeX/GvqIV5U6Uqa62/A4Z01KUZ9rnoCaV4j1T4VTwXFpqV0FvYHto3jkYCHy3yUB/hHy9Kp/Drw3qlxpPiWeHTrqWGfTJIonjgdld/MT5VIHJ68A9q4r+zbrj93gjvvGcenX6UDTLkf8shn2Zf8a6PrcedTcb6W3/4Bk6L5JQUt3fY9H8Hwz6f4Tmj0+w1SXWYb5kvItKuPIukQKNgb927FAQ2RgAEc54xhSXmsX3xMt59E0yTSNea4i8i0m2bln2jk71Vcs3zcgDk1yo0y65zH1/2h/jQNLuv+eef+Bj/ABrOtiPawUErJFwpKE3Ju9yTXvt39u6h/aX/ACEftMn2n7v+t3nf935fvZ6cVQq3/Zd13jz/AMCX/Gk/su6/55/+PD/GuJbHQ9ypRVv+y7r/AJ5/+PD/ABo/su6/55/+PD/GgkqUVb/su6/55/8Ajw/xo/su6/55/wDjw/xoAqUVb/su6/55/wDjw/xo/su6/wCef/jw/wAaAKlFW/7Luv8Ann/48P8AGj+y7r/nn/48P8aAKlFW/wCy7r/nn/48P8aP7Luv+ef/AI8P8aAKlFW/7Luv+ef/AI8P8aP7Luv+ef8A48P8aAKlFW/7Luv+ef8A48P8aP7Luv8Ann/48P8AGgCpRVv+y7r/AJ5/+PD/ABo/su6/55/+PD/GgCpRVv8Asu6/55/+PD/Gj+y7r/nn/wCPD/GgCpRVv+y7r/nn/wCPD/Gj+y7r/nn/AOPD/GgCpRVv+y7r/nn/AOPD/Gj+y7r/AJ5/+PD/ABoAqUVb/su6/wCef/jw/wAaP7Luv+ef/jw/xoAqUVb/ALLuv+ef/jw/xo/su6/55/8Ajw/xoAqUVb/su6/55/8Ajw/xo/su6/55/wDjw/xoA6Cj/PeiisgD/Pej0+tFHpQMv61/x8QY4/0WD/0WtUP8960Na/4+IP8Ar2h/9FrWfSQ2H+e9H+e9FFMk0NL5ttTH/Tr/AO1I6z60NK/499T/AOvb/wBqJWfSK6IP896P896KKZIfj+prrPAfg648QXc11Lp11d6fawSyny0cJK6rlYt69CxK8A5xXJ10XgrVrXSbrU3u5fJSbTbi3jO0tmRkIVeB3P0rzcy9t9Vn7B2lp+ZrTtzLmC88P6nqWpvAmgroskMIeWGRpIUjXnDu07nbnpksBn8ar/8ACHaw2r2+mJZtJeXKebAkUiusqYJ3I6sVYYB6E5wR14q14bv7I6DrOkXl3/Z73hgkiuXRmjDRlso+0FsHdxgHlRmuh0bxVpWka54Xg+3NPa6VBcCW+8uQKXlRzhFI37VJABIHOeAMV5s8VjKMnShG9u6f33/Tc39nTlqzj9W8K6nolqlzeQKkLSmAsk6SbJAMlHCsSjY/hbB68cGsod/5fjUv2qdbR7QTSLbM/mGHcdm/HDFemcHqeefrUXr2GP8AP4V72H9q4p1Wr/cvxuc0+W+h0mt2lk3hfSdQt7GKynuJp45RA8hDBdmOHZvU1CmkmPwrc3T6dDcO0iFb5L5SYATwrRKxPOD1xV3VW06TwjY2MWs2c9xZyzSuixz/AD7tuApMeM/KeuPrRpX9nR+E9SsptYtIbm9eCVVaKchdm7IJEZBPPbNe+6dNzlsvd8tzyVKUYdb3/AzbHwhqupWtvcwW6i3uW2QySzxxK7ZxtBZh83oOpwfSq9p4e1C8a4CwrEIG8uRriVYVV+fkJcgbuD8vXg9ua1hrFl/ZvhWETAyWVxK0/wAh+QNKrA9MHgHp6dPTYm8VWV5DrFvFeWls0mpzXkE99ZefFKjkjGDGxVsAY+Xn2pww+Fd/e29O19xyrV47L7zh76xuNNu5ba5jaGeM4ZGPT9eR6EcEYIpLO0e+uUgjMSyPwGmlWJR65diAPzq3r2oTalqkks93DeuAqCaCPYhUKAABtXoOOg6VVs7dLu4WKW4jtY2zmaZXZF47hVY89OB1Irw8R7sZKH9fcejC7Sub3iTRJJfE1rp9loy6XNcJCsdql6LgSMw4YSZx82R3xVPUvB2r6RZvdXVsqRRuscuyeN3iZgSodFYsmcH7wFdVqmraQPGXh7VotYt7q3tPscc4jhnDqIlUO/zRgEDbxjn261lf29Zf2L4xt/P/AH2oXUMlquxv3gWV2Y9OMAjrjrXzVHF4u1Llj7tle6d97Pd/5ndKELtM5H06/wCfxrstJ8I3dv4dk1GXQLjUrp7hYoreSOYBY9pYyYQqTnpnOOtcae47H61uf2lbf8ISdP8ANP2w6iJhHtP3PLxkHp1A719phnTXP7Ts7Hk4hT91QfUm0nSftFlq1w+kQXarC7JGt6sTWmOreWWLkDIHPp1pfANvZal4jtLC+sYryK5kCmR3kV0wCflKsB+YNTeEJNPsrPVGu9Ut7VrqzktkjeOYsrEjBOIyMcdicelJ4JksNI8TwXt3qlvHBaS9fLlJl4IyoCdPrg4PSuuMYXpSurPe9jCUpWqLXS1tzB03S7nVpmitYgxRN7kuI0RR/EzMQAPcnqR60upaTdaTMkVygUyLvRkcOrr6hlJBHXnNdD4d1Kz0NdWsTqFo63cSeXffZmmgR1bcAySJnB6Z2nB57VmeItSmvntYXv7O/it1Ij+xW3kpFk5I2+WnfnofxJNc9WlRjT5k/e+VjSnUqSqWa0K2veH9Q8M6ibHUoPs10EWTy/MDfKwBBypI5BFZ344/H/69aWu2Wn6bqBh0vUv7VtQilbryGh+YjkbWJPByPemtrl62m2enmf8A0O0kaWGPao2s2MnOOenevOR32s9Sh+f60f571rSeKtUlvNSunus3GoxtFdP5afOpxkYxgdB0xWTT1E7dGH+e9H+e9FFBIf570f570UUAH+e9H+e9FFAB/nvR/nvRRQAf570f570UUAH+e9H+e9FFAB/nvR/nvRRQAf570f570UUAH+e9H+e9FFAB/nvR/nvRRQAf570f570UUAH+e9H+e9FFAB/nvR/nvRRQAf570f570UUAH+e9H+e9FFAB/nvR/nvRRQAf570f570UUAH+e9H+e9FFAB/nvR/nvRRQAf570f570UUAH+e9H+e9FFAB/nvR/nvRRQAf570f570UUAH+e9H+e9FFAB/nvR/nvRRQAf570f570UUAH+e9H+e9FFAB/nvR/nvRRQAf570f570UUAH+e9H+e9FFAB/nvR/nvRRQAf570f570UUAH+e9H+e9FFAB/nvR/nvRRQAf570f570UUAH+e9H+e9FFAFD+2oP7sn5D/Gk/tqD+7J+Q/wAaxKWtOUDa/tqD+7J+Q/xo/tqDj5ZPyH+NYtJTsM6/xBqkUN1bBlf5rO3boO8Sn1rL/tqD+7J+Q/xpPFX/AB/Wn/Xha/8AohKxqSQ2bX9tQf3ZPyH+NH9tQf3ZPyH+NYtFFiTrtF1WKW11cqr/ACWe48D/AJ6xj196y/7ag/uyfkP8ab4f/wCPHX/+vD/2vFWPRylPZG1/bUH92T8h/jR/bUH92T8h/jWLRRYRtf21B/dk/If40f21B/dk/If41i0UcqA2hrUA/gfHptGP50f2zb5HySYyOwrFop8qEbX9tQAAbZPyH+NH9tQf3ZPyFYtFTbRXGbf9twddsmfXHP8AOkGtQKeFcc54UD+tYvFFPlXUNDb/ALag/uyY+g/xpBrMHZZOmOg/xrFopcqA2/7ag7rJ+Q/xpp1mA/wv7fKP8axqKfKgNr+2oOflk6+g/DvR/bUHPySYPUYHrn1rFop26iNr+2oP7sn5D/Gj+2oP7sn5D/GsWily6gbX9tQZztk/If40v9tW/dHP/AR/jWJRRYfkbf8AbcHXbJn6D8e9J/bUBABWQjGOg4/WsWijlQG1/bUH92T8h/jR/bUH92T8h/jWLRRygbX9tQf3ZPyH+NH9tQf3ZPyH+NYtFFgNr+2oP7sn5D/Gj+2oP7sn5D/GsWiiwG1/bUH92T8h/jR/bUH92T8h/jWLRRYDa/tqD+7J+Q/xo/tqD+7J+Q/xrFoosBtf21B/dk/If40f21B/dk/If41i0UWA2v7ag/uyfkP8aP7ag/uyfkP8axaKLAbX9tQf3ZPyH+NH9tQf3ZPyH+NYtFFgNr+2oP7sn5D/ABo/tqD+7J+Q/wAaxaKLAbX9tQf3ZPyH+NH9tQf3ZPyH+NYtFFgNr+2oP7sn5D/Gj+2oP7sn5D/GsWiiwG1/bUH92T8h/jR/bUH92T8h/jWLRRYDa/tqD+7J+Q/xo/tqD+7J+Q/xrFoosBtf21B/dk/If40f21B/dk/If41i0UWA2v7ag/uyfkP8aP7ag/uyfkP8axaKLAbX9tQf3ZPyH+NH9tQf3ZPyH+NYtFFgNr+2oP7sn5D/ABo/tqD+7J+Q/wAaxaKLAbX9tQf3ZPyH+NH9tQf3ZPyH+NYtFFgNr+2oP7sn5D/Gj+2oP7sn5D/GsWiiwG1/bUH92T8h/jR/bUH92T8h/jWLRRYDa/tqD+7J+Q/xo/tqD+7J+Q/xrFoosBtf21B/dk/If40f21B/dk/If41i0UWA2v7ag/uyfkP8aP7ag/uyfkP8axaKLAbX9tQf3ZPyH+NH9tQf3ZPyH+NYtFFgNr+2oP7sn5D/ABo/tqD+7J+Q/wAaxaKLAbX9tQf3ZPyH+NH9tQf3ZPyH+NYtFFgNr+2oP7sn5D/Gj+2oP7sn5D/GsWiiwG1/bUH92T8h/jR/bUH92T8h/jWLRRYDa/tqD+7J+Q/xo/tqD+7J+Q/xrFoosBtf21B/dk/If40f21B/dk/If41i0UWA2v7ag/uyfkP8aP7ag/uyfkP8axaKLAbX9tQf3ZPyH+NH9tQf3ZPyH+NYtFFgNr+2oP7sn5D/ABo/tqD+7J+Q/wAaxaKLAbX9tQf3ZPyH+NH9tQf3ZPyH+NYtFFgNr+2oP7sn5D/Gj+2oP7sn5D/GsWiiwG1/bUH92T8h/jR/bUH92T8h/jWLRRYDa/tqD+7J+Q/xo/tqD+7J+Q/xrFoosBtf21B/dk/If40f21B/dk/If41i0UWASiiiqAKKKKANnxV/x/Wf/Xhaf+iErGrZ8Vf8f1n/ANeFp/6ISsakhsKKKKZJs+H/APjx17/rw/8Aa8NY1bPh/wD48de/68P/AGvDWNQU9kFFFFBIUUUvb3oASil2mjHr/I0DsJRS/rRt/H8KWmwCUUu0iprqxuLLyxcQSQGRBJH5qFdynowz1B9RVWdriIKKt2el3eoR3D29tNOlunmStHGzCNfVsDge5qqOaLNAJRS46UY689KQ7CUVO9lPHapctDILZ2KLNsOwsOSM9M8j86hweB3oatuLcSil7getGKBiUUDnvS44oWuwCUUpGDzxQBmlcBKKXbxR1oCwlFKeuM1Na2Nxf3CW9tBJcTucLFGhZ278Ac9Ka10QbakFFT2djcahewWdrby3V3PIsUVvCheSR2OFVVHJYkgADknikvLOfT7ma2uoZLa4gdo5YplKMjKcMGB6EEYOaQWIaKXaTwOaMY/LP0oCwlFLxwB1o/TjP+fzFMLMSij68VPZ2VxqFxHb2sMlzcSHCRRKWZj7Ac0b7CIKKt2el3eoGYW1tNcGGNpZPKjZtiL95jgcAetVfWm4tWuG+wlFOxn/APVUtlY3GpXsFnZwSXV5cSLFDbwIXkkcnAVVHJYnAAGc5pbjsyCipbi1ms7qW3uIngniYpJFIu10YHBBB6EHII9qjpJpq6C1hKKKKYgooooAKKKKACiiigAooooAKKKKACiiigAooooAKKKKACiiigAooooAKKKKACiiigAooooAKKKKACiiigAooooAKKKKACiiigAooooAKKKKACiiigAooooAKKKKACiiigAooooAKKKKACiiigAooooAKKKKBhRRS0AbHir/AI/rP/rwtP8A0QlY1bPin/j+tP8Arwtf/RCVjUkNhRRS0yTY8P8A/Hjr3/Xh/wC14axq2dA4sdez/wA+H/teGsf+dIp7ISiiigkK6XRdBsf+Ecudc1Pz5oEuFtIbW1dY3kkI3El2VgqhQf4TkkdOtc1W1oviaXSbK5sZbS21LTrhld7W6DbQ69HUoyspwSODyDg5rooyhGTc+2nqRNSa90v2uh6dqmg+IdSgNwqWQt2t4pCpPzuFKvx82BnBGM4zx0rW0/wJp95rfh+zkuLiOG/0pr2WQFWKOBKflGOR8g478jNYFj4uksX1JBYWctjfqqS2TB1iwpBXBVg2QQOd2TznOatyfES/fWbPUltrSOS1tHs4oo4ysYRg46A9RvOPoOvOe6lPCxs5K5zTjW2jt/wCrrMOgyaWs2lyXkV0k7RtbXbBy8e0FZcqoCHIPy5br145xLdoVuEM0bSxbsukbhWK56AkEDr6H6VNp1rFfXHlTXsFghBPmXCuy/T5FY/pWhdaBY29u8ieI9MuGVcrHGlzlj1wMwgfmRXDyyl7ySR1aR0bOo+Ik2kfYdA2WV6bhtIhMD/bEKouXIDDyhuP0K/T119S0PSvEepeGtKuWvFvbnR4hFPEyrFFiNiuVIJfJBzyuPeuDvPFjalpNvZ3en2lzLbQC3hvHMgmjQElR8rhTjJ6qanh8eX0GtaXqawW/n6dbLaxLtbayqpX5vm64PYivT+tUnKfMrp2OH2M0o26X/4Be8G2tte6Tr8CSaha3cOnyzPJbXYWKVRgCN02ZIJP97n0qHR9D0dfCEms6iLyWRb4WawWsiRhwU3Z3MrYxz2OeBgdaq+H/GQ8P2tzEmkWN09zE8E0s5m3PG3VSFkAA4HIAPHWqk3iSWXRZNLjt4be0e8+2BY92UbbtCgliduPXJ96xjVox5W9dGa8tRydtrr/AIJL410KHw34ku7C3kklgUJJG0uN210VwDjjIDYyOuKb4R0OHXdQuEupmhsrW2ku5/LAMhRByq57nIHPrntVm9nTxlfT6lqGq6fpU7BI/KkinwQqKoI2I46D16546U6zuo/B1x9qsdU0/WPNjeCa1RJwskbDDB96Jkc9jmsYxgqvO17l/wDhi/f9nyr4je1K3s9W8E+H7bTbW7ihl1OaPy2lW4lJKxZ27VTJPYEfj6Q654IsbHw9d6h5EttLY3UcU9udTt7ourFgeY1/dsCOjA/pWWfiJfxrpS2ttaWEem3BuLZLdGAUkKCCSSWB29SSeTzjAEN942lutHu9Mt9MsLC0upFll+zrIWLqcg7ndj+HQdgCST01KuHkpv7VtPUwjTqwlZbX/U6Dx3caOdD8OAaffCR9L/0Ym9QiMeZJjcPK+fkZ4K8cUvhn4d22sRWMF1DcWlxewNJHcSX1vH2YqRbkeY65XqCM88VzE3is3mj21jdadZ3TWsbRW91J5iyxKTnA2OqnBJI3A9e9aen/ABNvNPmsrkadp81/aQrbx3ksbmTy1GACN+3OONwAPvVe2oVKspz2drK3lqCpVadNQh5nISLtz7e9dH4T8Npq1vc3U9rNcW8RVdy3kNnGpOeTLKCM+igc5JyMc09E8S/2Lb6nF/Zem6gb6AwCS+t/Me3yCN8RyNj89eelP0TxU+k6fNYTWNrqVlJMlx5N0HAWRQQGBRlPRiCCSDxXn4eVNVL1Njsqc3IuXc6q5+H+kaZqGufari7aysbOC9iWF4y7K5T5Cwyp++BuHH8WD0pmn+BdH1S50y6jnurbTL6zuZmR2SWWGSEEnkKA6nAxwMjjjrTLH4gQ3kOv3GrQWstxc2MFtDa7JEilKOnXy2BU4XPBAyKh8N+N418QRz36Q2lhb2M1tBZwo/lLujb5eCWO5jy2cnPXgY9SP1Vyiuh5zWI5Xrr/AMASHwbp3iOz0+40Zrm287Ul06SO9kSQ/MuVkBCrjgH5e3rUmteDdItNNvZILhLe4tXRY1k1O2uDdAuFOI4/mQjIbB3cAj3rCufGN0PsUdhBBpNtZy/aIoLMPt83ORIS7MzHGAMnAx05OWav4oi1cyyNoun2t1K/mPcW/nK27OSQpkKDP+73OMVz+1wzSvHXr/wDoUK3NdvQ6rVPAuhR6lrulWj6h9r06ya8E8siGM7QrFCgXkbSfm3Dr92rfgPSdL8P+MvDcEq3VzqdxGt0ZI5Vjhi3oWCFNhL/ACnqGXrjtXIXHju/uta1XU3ht/P1K2a1lUK21VZQpKgtwcKO9XdL+Jl7pk2n3K2NjNf2MS28V5MjmTy1yApG7b0O3cAGxwCK0hWw6kppWf6dDOVOs48rd1b9Dtvg6w8IfD74keO7Tauu6VDa6dpk4xutZLp3SSdMHKusauFfHBeuZ+GtxYfYvEf2i1uprj+zJmkkjuVUOmV+UAoSDn+Ik8dqtfBzx5pOgnxF4Z8T+ZH4U8UWq2d7cwoZJLKRG3wXQQEF/LfkqOoJA9DyGm603hXWL8Wclvqlq6y2jl0cRXMTHBbB2uu4AH+FumcHivOw1RUsTzy2PQrwdTDKEXqanh3wzYeKLnUruKOW002xhDm3mvYlkkZiFVfOdVVQSc5KnGOhJrYtvAWhz6gjPeOLX7BPdy29veQ3UsDRAEgug2sGHI4B68cVy1j4sbTL66ktdPtIrK6i8mfT/wB48Mi9erOXBzgghgQRxTrfxcLC7uZ7HS7Ow+0Wklm8cJlZSrjBb55GOcE45x7V20quHjyuor9zjqRqu6i7djs5fhpokhi8ia8UmawDiSRGwlwDlRhR8y4zu6dscZOJqvhbRZLbxAmmyXq3WjsGMt06GO4UPsbCgDacsCPmbOO2aNJ+I1xJqdqL2O3hs2ms/OkVHJVYOARyeSOvr7VW8Q+LI9WvdSs7CKz0yxvrpmmukWUmdN+VZ9xZgP4tqgAnqOBXTVlhZQvTil/mYU44iM7Sd0cjySOc84/z/ntXqXgLSNL8P+MvDsMgurnVLiOO6MkcqpFFvQsq7ShLnBHO5euO2a4x/DencEeJ9KOOceXdn8P9RWjY/Em90m5sZo7Kwub6xjW3jvZo3Z2jXOFILAdCRu2hscZFceHlCi+apv8AedVZSqLlhtqL4HhtruHXYlkv7S+TT7iYTWt0I43RUyI3TYSQT1+YD271R8O6JZT6PqOs6kZ2tLNkiW3t2CySyPnaAxBCgAEk4PbjmmeHfGA8Ox3Ij0myupbiOSGSa4M24xuMMmFkAxjvjPPWo9P8Vtp7X0aafZvp17jzdPcOYuOVIO7eCDnndnmn7SlaN3qk/TyFyzvK3l/wTpvhdJo7ePrM29reYcnyd9yv7s7G3BsR/Pnsfl/GuQ1C8slvYp9JgvLFozuzNciRgwOQylY024+h9aktPFE+m6/Dqtjb29lJCQY4YlJjAxgj5iScjPUk80NcWOvaxZRSQWfh60klWOe4hWaRI1ZgGkZSzsdoJOFGcZwKxnUjKkoLo+xcYfvHLuj0v48FfFHhX4eeP7jamt+JLG4i1RkI/f3FpN5IuSAOGddmSOpB4rxz8MV6D8YvHem+KdQ0jRvDiyx+EvDlmNP0wzJsln53S3Djs0khZsdhtHUGvPq86HX1O2o1fQSiiitDEKKKKACiiigAooooAKKKKACiiigAooooAKKKKACiiigAooooAKKKKACiiigAooooAKKKKACiiigAooooAKKKKACiiigAooooAKKKKACiiigAooooAKKKKACiiigAooooAKKKKACiiigAooooAKKKKACiiigYUuM/Skpf/wBf5UAT3V5PfSI87+YyxpEDtx8qqFUcegArR0DwnqXihnTTUt5pFyfKe7ijkbjPyq7AtwD0B6V2GjeHvD2leF9B1LVX02WXVGkkkGpSXgKokm3EX2dSA3BJL5+8uF4OYvhvBYWvxft4tLuWu9OV7tbadl2s8XkS7SVIBzjHYfQV4FTM+enUdBNOPVrR6202OqNLWLfU4bS9Luta1G3sLOLzbu4lEMUe4LuYnAGScDnuTSahp1xpOoXNjdR+XdW8rQyx7lYq4OCOCQefStTwT9kk8Rada32m2+pW93PHblJmlUIGcAspjdece5HJ4rVtbXSdJ+J1zZTWU8tpBqjW9tFBciPy9s21QxZHLDAwV4z61rUx06cpRSvaHNb/AIN/0+ZHs1+Jl6poGseE7ecXZtrVrhRBNbC7hecAkOA8QYunKA8gGsH1/wAK7H4pTaY/jTXEtLS7hul1CcTSz3SyRv8AO2dqCNSvPqzfj1rk7VBNcwo3RnAP4kelduCqVK9CNSorOX9d2TUShKyZFilI6V7D4g8MeFW8V+L/AA5ZaENPTS7G4uoNS+1TSSrJGBIFILFPLI+QAqTjqxPNZ2r2/g3wq3heC98OvdRahpEF5f3MdzIZUZ1YboUDqoO4bvm3DoMDBz0899EEqdtbnl3bOc1e0XRbzxBqUVhp8BuLuUnagIHABJJJOAABkknAHJIr0TSfDPhjR/C3h7U9Vl0mZtVMss39qPehkiSQx7YvsysFbgkly3UDGAc2fhuvhiz13xjb2sN9qdvFpeoGG8W6WIS2u3A/dtCWV9p+9nAz93tS5tbBydXseer4P1ObXrPR4Ftbu/vGVIUs76CdGZiQF3xuyg5HQnPT1rP1LTbnR9SubC8j8i7tpWhlj3A7XU4IyCehHaul8KyaLe+NtOtU0I3WnXtxDbNDqV3JLIm5wrMrw+TzjpkECprOw0jT/ijfaVcaNJqulm/msks7eRxKi+YUVoypyzKMcNkEjn1p3ewuVa2OM2n3HrwaTpx+fNd/8UvCOm/D8WOiW0KX962+5k1pZG2ygOyLFGobbhdh3nk7+AQBzwUa+ZIq/M2TjCjJP0HGT7Uc8bXYpRcdBuDQeK7vUvhr9h0+4uPsnioeVGzhp/DvlxcDOWfzztX/AGsGm6Z8N/7Q021uja+KT50Sybrbw95sRyAcq/njcvPDYGRzivOWZYZrmUtNtmV7OZwta+keFdS12zubqxtxNDbPGkrGRV2mRtiDBIJyxxx071lzR+TM6YYbWIxIu1uD3HY+1aOl+JNR0ezubWzuPJguWjeVfLVtxjbcnJBIwfT8a9OLUlddTnnzpe5v5hqHhfVNNuNQiubGUNp77LplXekTE4UMy5HJ96bH4d1SSxF8mnXT2expPtCwMY9qkBm3AYwCRmux+HOp6l4g8Z3st463FpfRStrDSkRxtb4zI5wOCvBGOhxWl4m8TXfhH4iWbhI5dCitY4bS3Rt0U+nsoHfqWGSSf4s+lGiOR15qfs7K9r/8D+uh5xZ6Nf6lGZbazmkhEiRtKEOxGY4UM3RST6kVoaz4J1nQLOa7vrVYYIbo2bsJkbEoXdt4b079K6X4j3cPhWaz8N6NI4trOT7c8zLgyTOAyEg/3EKgfVvWuX1jxjq+uQTw3t350U9017IPKRczFQpbhfTAx0p9C6c6tXlnFJRf3mNt+bFI2M8VqTahpreHrazj0nytUjnZ5dS+0s3moQcR+X90YPO7OTWYxB6cClqdrG0tJRVEi0mOMflwKKKXkAuKKKSj0AKKKWgQdRig0lLQMSlpKKYC46Hv2oopKNOwC5PrR+lJRQAUUUUCClpKKBhRS0lABRRRQIKKKKACiiigAooooAKKKKACiiigAooooAKKKKACiiigAooooAKKKKACiiigAooooAKKKKACiiigAooooAKKKKACiiigAooooAKKKKACiiigAooooAKKKKACiiigAooooAKKKKACiiigAooooAKKKKACiiigYUvTmkopdANvTPGGqaTp39nxS281iJPMFveWkNyiP03KJEbaT3x171JovjbVPDt1Lc6cbO3uZHZzL9gt3ZSwwQhZDsXkjauBjtVfxJDHBeWojjWMNY2rkKMZYwoSfxJNZNczwtCd+aC13L5pJqz2Nu18YahZao+pQJYR3jbfmGm22xSvQonl7UPHVQDUep+KtR1jVotSuHgF9G/mia3tYoSX3btzBFAY57nNZFHvSjhaHNzKCTtbbp/kHPJ6XLGo6jcatqFzfXcnm3NxI0ssmANzMck4HHU1HbSCK5ikOcI4bge9R9aULwSfp/n3+tdMYqK91WsSdz8Qvifd+Kta1n7Ay2ekX0oYxrZQQTzIOgleNdzjvhmI6HqBXKatr19rjWZvp/P+yW6WkPyhdkSZ2rwBnGTycmqIx29e31pB6/j9f8/5zSUbFOTZvaX451jR9NGnQzW89gshlS3vbKC6SNyMFkEqNtJHXGM981TsfEV/pV1fXFpLHbSX0MtvOI4YwpjkHzqF24UHttAx0rN60uD+dUkm7k3expeH/El74ZvftdgLUXAKsslxZw3BQg5DL5qNtOe4wa0v+Fja7/bT6wk1pBqbRvGbm30+3jb587nG2MYc5Pz/AHucAisbS9Hu9auGhsovOkWNpSu4L8qqWJ5PYA8VUZSv19KpwatJrcSl9lM0ZfEeoT6DDo0s/m6bDM08UMkaMY2YANtcjcoOASoOCRkg1m7ifT+lLgcc89PSjAwD2qbJaFNt7jeOvfue9Kv5Chfm/wDrc0u2p5Y2slohXYhoq/pOk/2tJcL9stLPyYWmzdy7BJgj5F45Y54HsaoKw456nH+fypKUW3HqjV0pxjGbWj2+RpWPiG/0/S73TrWYQ2t6FFwqxrukAOQpbG7GewODRfeIr/UNMsrC5m823st3kKyLuQMckBsbsZ7E4qvpel3WtahDZWUfnXMxIRAwGSBnqTjsfyqtz94j5cdSOKFKN3G+pn7BqPteXR9bdS5q2sXeu6g17fS+dcMFVn2hchVCrwABwAB+FUs80Uu09uavzJ5eVWRpTeJtSuPDttoUlxu0u3ma4it/LQbZGGCdwG48Z4JxWZSfzrZsfCOq6lZpc29qHjkDmJTKiyTbB83lxkhnx/sg0zalRq13anFt+RjUUuPTn6UUjFpp2YlFPjhaaRI0Bd2O1VHUk9BVq90i60+MvcRhFEzwEq6t86Y3DAJ6ZHPSmFrlKilC59/p9M1qy+F9Shs2uXt1VFRZWj81DKqHozR53hTkclcfMPUUAZNFLjqO/p/n/PNGMcUAJRV2HSpptJu9RBRbe3dI23EgszZwF4x2OckVTxjH+FIBKKXHTJ49v6UYx1+lAWEopW+XnPHr2oII4IwaYCUUv6VqaX4X1PWonktLUvGqs253VAQoy23cRkgYOBzzSAyqKXB/+v2opgJRSgZowfT8qQCUUfrxV7SdIm1i6eCFkQpFJMzyHChUUsTkZ7CgLMo0UUfz9O9AWCirNnp8+oO6W6eYyRvKw3BcKo3E8n0/p61X7ZpgJRS0YHrxQAlFWbzT59PaJbhPLaWNZUG4ElWGQevHHY81XpBsJRRWnpfh2+1iPfbxxhDIIlaaeOEO5/hXew3HkcDJ5HqKAMyipJoJLaZ4pkaKWNiro4wVIOCDTP0+tACUUoGaOQM474oCwlFHfFXtH0mXWtQS0heON2VnLykhVCqWJOAewoCxRopcfn/nNGP8/wBKAEopcD1oxxnPbPXPagBKKvXGky2+k2moO8YiupHjjXJ3fLtySMcD5qo0wsFFFFAgooooAKKKKACiiigAooooAKKKKACiiigAooooAKKKKACiiigAooooAKKKKACiiigAooooAKKKKACiiigAooooAKKKKACiiigYUUUUAbPir/j+s/8ArwtP/RCVjVs+Kv8Aj+s/+vC0/wDRCVjUkNhS0lLTEtza8H6fa6t4q0uzvW22s1wkbnOOCeme2a0ta1Ca81R7ebSrSyt7e8C4is0jaHkjY7hQWyB/ETnFcnu4rR1DxFqmrQxQ3uo3d5FF/q47id5AnbIBPH4V1U6sYxSa2d/UwlByle/Sx393oFuviL4gbdOjFraWsoixENkLF027ewJUNjvgGoNf1qw8MyaBCdDsLm2m0yGa7RoV3zl0I4cqxQjrlcHOck8Y4q48VaxdwLDPqt7NEqGIRyXDsoQ4yoBPAOBx7D0qjdXs980ZuJpJzGgiTzGLbFHRRnoB6dK6p4qPJy01Z9/ncwhh2pJye3+ViJscnoK6zwXqGlW9nd2108VnfzOphvriwS7iRQGyrI4O3J2/MoY+1Z0V94cEaCXSNSeXHzMupRqCcdQPIOPzNNj8UXekzSroN5qOkWbkN5K3pLbgMbiyBAT74rlpyjSnztpm806keVXR2/hEal4f8earpM6WM9wba4c+TZxkMxgZgEygIBBGVAA9RWP4HEPirxRI+pxQPJBZyyww2tlEnmuikqPKQIHI5O3jO3BNcdHqFzFeC7SeRboP5gnDnfvzndu65znmrF14i1S+v4b661G6uLyHaI7iWZmkQA5ADEkjFdEcVH3OZaRvp6mToP3mnZtL8DvNLvNA17xF4ctlh+13n25VmeTTIbWKWEn7rRRuysQc4O3kHBzgVUvprfV/DHiOabTbS0jsriJLGS3t1Qhy5Voy/VyV3E7ix+XNYGn+OtUh1zTtR1G8u9WFlMJkhublm5BBOCc4zgc4qjrnibUvEUwe+vbm6RGYxJcTtIIwTkhcngcAe+KuWKg6dlvr/wAOT7GXtE+n/BLWpXF6/hXR4pdDt7WyjllMGqraFZLsk/MrSnhwp6AdKwsH/wDXVmTVb2ext7GW8uJbK3LNDbSSkxxluWKr0BJ9BVXdXkJaWPQudZ4H2XVtrlpLbW88S6Zc3EbSW0bSLIEAVlcruGOcDOOTUmitBZeAdQ1AWdrcXkd/HHHLcQrJ5YZG6A8H6MCO+MgEc/Y+ItV0yAwWep3lpATu8uGdkXOMZwD16flUVxq99eLMtxe3M6zSebIskrMHfoGIzgnHGa8mphKk5y191tP7j6OhmVCjSgrNyjGS27u6+49O03y9K+K+mRWtta28d7bwzSRrbxkK5hJPlkglMk/wkZHrXmWp6lPqEyi5ht4pIsgrBaR25z3yEVSfxqOTUbqe4inluZpJogoSRpCWUKMKAeoA7YqTUdZ1DV9hvr66vSn3DczNIV9cZp4fBujUVR2btYWNzSOKpOlG6V7pdNhNLt47jUraKVPNiaRQy/aEg3A9vMYFV+pHFdNr/h3TLHSppreyMcqfdf8A4SWxvDywH+qijDPxkcHjNcd9ee3NHbBGfWuqrRqVKkailZL1/RpHz8ZKKsxT2JOOfX8f84r1iL7MuteC7m2t5L69mtLaK3XB8q2VT+9fIPLA7jjgLyxzkY8m3HOau2+uajZ2MtlBf3MNnLu320czCNsjByucHP8AQV2NKSt1PcynMo5fKblG97NdbNO/XuS+Jpop/EWqPAytA13KyFehUuSMfhWafpijjsOKKS0SR41er7arOptzNv72dV8O40h1Se/e6s4FsoWmK3cTODgfKR8jAYfZzw3PGc1Y+IF48a2GmNcWE5giVpha2giZZDly2fLXaDuHA7g5AOa5GO6lhSRI5GRZAA4ViAwBBAI7jIzSTzyXUryzSNLKx3GSRizEnrknNDjqZqVlY0/CdrFeeKNJt7kgwSXUayCToQWHB9jXVC+ihXxRqBhabzUktnvLkYaWeRsbEU9FAy3ckLk7c7a4BWKkFTtIOQfSrOoatfats+3Xtxe+WMJ9olaTaOM4ye+BQ0EZInkmuIPD8VvJp0SW88xnivpICJHwCpVXPBUE9PX6Vnevappr64uIIYJZ5JYIciKNnJWPJydo6D8KhppEtnZ6fO+l+C7GG3tI7q/1O/dofNiWQKEAQYRgQxJdgMggZPGcEW9XsbTT5NTvtNsIbm4kvksYY1hEsMT+XmTYhBVsvkDIIA6DkVyFv4g1SztWtbfUru3tWBBhimZU56/KDjmorTVr3T45o7S8uLVJhiRYZWUP7HB56nr61PLrcrm0SOw16bTtJ8VWcepWkGILBFnNpbRhPPZCyuUXarhSw49FxSLoK6l4q0+C8ltbvT5IHu420+zW2aeJd5ClFVDuYoBjOeeDXKW/iDVLSd54NSvIJpAFaSK4dWYAYAJzkgDgVDJqV3NfC9kuppLzcH+0PIWk3Dodx5yKLOwcyNzXta0u80029tAsk/mh1nFhFaeSgBBUbGYvnPJY8bR3OawbqyuLMp9ot5IDIokQSIV3KejDPUH1q3ca5d6pNB/a15e6lBGc7JLklgD12lgwB4HODTvEGvSa9dQuYlggt4VtreFST5ca/dBJ6nk5Pv26UJMJNMzOnOcGun8Ht9k0vxHfZx5VgYF553SsFGPw3VzHqO3pWpB4s1u1hSGHWNQihQYWOO6cKB6AZ6VT2ZK3G6LLPZyT3kWmxahFDGfN8+AyRorDG5umD6Ems0jbwetTQ31zbwzQx3EsccyhZVRyBIOuGHfn1qGgHsbnhPT7e+uryS4h+1JZ2ktyLYkgTMowFOCDjnJx2U1e0bPibVrdNRsbf7PFHNc4tbVbczKiElMxqNwJTGevXmuatbyexnWe2mkt5l+7JExVh24IqaTWL+W+W9e+uHvV+7ctKTIP+Bdf1pWBM7W1tG1vw/ZG9tLKzOp6pDBbNb2kULxRfNvIYLu6kAFic4PelhupodE8T3kFjb6fp8SfY7VI7VBLlpFVh5pXexC5zlj17dK4m51i/vJBJcXtxO/mebukmZjuwBnJPXAAz1wAO1Wf7euL6YnVrrUNRhZQrJ9rIZsEleWDDAJJxilyl8yMsYzj8ODmux8L/ZtQ05NPsvs8Gtu7tm9skuI7kcbUVmDbCPm/hwe5HFYc11obRuItO1BJCpCM+oIwB7EgQjPbuKiPiLVWsfsZ1O8Npt2GDz32Ff7pXOMe1O3u2Emk7m/4V1i40/w74iuYltGKRJGpe1iY5kkAOSVyV2qRt5UZHFR2MjyaPda19it7rUXuo7O3RbNPLQlGJPlKu0seFGVPf8OesdWvdLkMtld3FnKy7S9vKyEj8DT7fXNRs3neC/uoGuP9c0czKZOv3iDz1PX1otqHNod5NYWcPiSFb6xtXGn6Mbi7SCGONZJChI4VQuRvQA44IHfmuUPiP7bHaxJpthDdrcb4plt4wmwrtCMpXDgE53OWP55rJbUruQyFrqYmVBHJmRjuUYwpyeg2r+VV93OefzzSUQcjrvH2uXFx4g1CwMdqsMDi2UrZxLIFQBeHC7gOMgZxj0rl7iyuLPyTPBJCJkEkfmIVDqejDPUH1q1Nrd3qDQJqd5eX9rEeInuSSB6KWDAce1P1/Xn1yeA+UtvbWsS29vCp3bI1zgE9zycnjnsOlNKysJu5l/qK6DRdOi06OHWtU3JZxuDb2/Ae6YEHC+iZxubp2GTxWB+g9q1IPFmuWsKRQ6zqEMcY2okd1IqqPQAHge1NiRPaape3OtXusf2bDqDZkmnjktzJCm8nJIHQAnjPoKxP88VNDfXNus6xXE0azrtlVJCPMHo2OtQUIGbvhPT7e+uryS4h+1JZ2ktyLYkgTMowFOCDjnJx2U1d0Vj4m1m0hv7KEQKsk+LO1SB5VVSSgMYAIJTGeo9a5u1vJ7GdZ7aaS3mX7skTFWHbgippNYvpr5b2S9uJLxSCtw0pMgx0+brSC52MNtJrHhdZLqxsrX+0NQhtrTyLOONo0LNuYFVDEcAAknOD75swTS2dv4pmtbGCy0ywhksoGNsomZ2cR8ykby2GJIDYGRgAYA4S81a+1Ek3d5cXRLbz50rPlsAbuT1wAM1aHiC6vJ/+Jpd39/bsnlyR/aiGZRyFywYYBwcY7UuUvmRl98nr35/H+ldzbf2T4b0vSZLgM9xeR/aZW/s2K6WVd5AjVpGwmAOcLnnOTxjnJLrQvLYR6dqKyY+Vm1CMjPYkeQMj2z0qCy8Q6rptv5FpqV5awZJ8qCdkXnrwDjmnbSwrq9zoo7qysfC91qUemW4nu9QZbSOZVmEKKuT94fMAXAweCcEg4q/rVhbadcaxfRWMFxd25tbRIlhBhWZ4syP5f3ScqRtwQCenSuEN1M0ccZlkMcZ3IpY4VjjJHPBOB+Qqxb67qVpcTTwahdQzz/66WOZlaT/eIPP40uUOZHQfEKS4hbR7C6WJJoLMSSxQxLEqySMWI2qAAQNoPHUHNcl/OpJrmW4ZTNK8xVVRTIxbCgYCjPYDgDsKjppWJk7iUUUVRIUUUUAFFFFABRRRQAUUUUAFFFFABRRRQAUUUUAFFFFABRRRQAUUUUAFFFFABRRRQAUUUUAFFFFABRRRQAUUUUAFFFFABRRRQMKKKKANnxV/x/Wf/Xhaf+iErGrZ8Vf8f1n/ANeFp/6ISsakhsKKKKZIUUUUAFFFFIYUUUUwCiiigQUUUUAFFFFAwooooAKKKKBBRRRQAUUUUDCiiloEJRRRQAUUUUAFFFFABRRRQAUUUUDCiiigAooooAKKKKACiiloASiiigQUUUUAFFFFABRRRQAUUUUDCiiigAoopaAEooooAKKKWgBKKXFFIBKKX8aSmIKKKKACiiloGJRS0UAJRRRQAUUUUCCiiigAooooAKKKKACiiigAooooAKKKKACiiigAooooAKKKKACiiigAooooAKKKKACiiigAooooAKKKKBhRRRQBs+Kv+P6z/wCvC0/9EJWNWz4q/wCP6z/68LT/ANEJWNSQ2FFFFMkKWrmkaPea9efZLCH7Rc+W8gjDKp2opZjyR2BpdP0m61OO8ktYvMWzhNzO24LsjDBS3zHk5YDAyTmsZVqcG1KVrblqLeyKfp7jI7Z/Okx78e1dXr2hf2T4P0uV9IginkuJFbV7XVEuVuCBnyykbMEKhlz3+nQX9U+GMtp4T0fUormx+13Ulws4fVrQRBUK7Qh8zk8nIBJ6Dg8Vw/2lQSjzStzNpXaf5GnspXskcLt4/Qeh/Gkrvv8AhX82r+C/C97pNnH9uvJLmK4mmuUhWVxIFijBlYKWwDhV54NcNcW8lpcSW80bQzRMY3jdSrKwOCCDyDx3rfD4ylir8j1XQmVNxV2iKitHSPD99rjyraRKyxLukkkkWOOMdMs7EKOfU1dHgXXG1Uaali0l20JuESN1cSRgZ3IwJDjg/dJ9OvFekqNSSTUXZ+RzupBOzaMGitnUPCGq6a1qJLdZRdMY4WtZUuA7AgbQYy3zcjjrz0p2oeDdV02MSTQxMnmiFmguYpRG56K+xjsPXhsdD6Gn7Gp/Kxe0h3MSlrodQ8Aa5pdvdTXNmsYtRmdPPjMka5wGKBtwUno2MHNdX4Z8F6Rovwp1bxv4js31L7XcNo2h6eHeNXufL3yXLsuMpErLhQcM5APAOc6kZUvjVjSm1U+B3PMqK29F8H6rr1jNe20UKWUUgie7vLqK2h3kZ2h5WVWbqcAk456c1BceGdTtNNn1Ca1MdpBd/YZXZ1ys20nZtzk8A84xUFWZl0V0tr8N/El7rVxpFvpck+pQWyXclvFIjMImCkNw3P304HPPscUde8K6l4b+ytfQxiG6VmgntriK4ik2sVYLJGzISCORnI4oug5WZNL04/L3qxpum3erXkVnY2s17dSH93Bbxs7ucE4CryTgH8M16J478Dz+CdDs4R4OlmVrCGa71u5iug0U78lBhljXbkJhlJ+Xmk5ctvMpR5keZdenJ9qUV12teHjpXgGwuJNEtvOkvGU61batHcrL8hYQtCjEIwBDZ4PqKs6Zp+l6t8L/ABFetpFtb6lpb2iRXsUkxkkEjOH3q0hToo6KKOaybBRu+U4ait/RfA+s+IrdbizghFu8vkxSXV3FbiV/7kfmOu8jI4XOMjOMjONdWs1jdS29xE8E8TFJI5F2sjA4II7Ed6L62Js9yGitjw94S1XxU90ul2hujaxiab51URxlgu87iPlBYZPYcnABNS6h4I1nTdRsrGe0Uz3sYlt2hnjlikTkFhKrFCBg5IbAAJOMU7q9gszCorqG+GviE3em28VpDdtqMrQWslpewTxSSKASnmI5QNg9CQaff/C3xPpunzX1xpm22hhM7ulxE/yB9jEBWJO1uGA5TI3AZpcyHyvscpRXRzfD7XrfTpb2SzRUhhFzLB9piNxHCcfvGgDeYFwQdxXGCD0Oa52mTZrcSil/HFdH4e+HXiHxVp5vtL0/7VbCVod3nxoWkVQxQBmBLbSCAOTzjODR0uFm9jm6Wulm+G/iK31ZNOk0/ZcPbG83GeLylhBIMjS7tigEYO4jB4ODUFz4D1621KwsPsBnuL8brU2ssc8c47lZEYocEc4PGDnFK6K5ZLdGBS132seBF0f4b2l5LFbz6xPrLWoksb1LoNH5IITETsoO7JwQG5HtWBq3gTWtFsJru6toRFbssdwsN3DM9szZ2rKqOWiOcj5wORjrRzIfK+xgUf56GlXG7v19Oa77wzN4JTS9JGrRLJck3X23mcfwnyfukDr/AHfxov2MalT2avy39DgKK3dJ8F6trumvqVrbp/Z6SGJ7qaeOKJGAXhmdgB95evXPGTnGlpem6boK+IrLxHb+VqsEQS1jcvxLvGeUO0jbk5JIPGM0yZVYxvbV9jkOe9FbvjdtGbxNef8ACPrt0nK+R9/+6N33/m+9u61hUrlp8yTEop8cbSsqorO7EKFUZJJ6Ae9b2qeAdc0ewmu7q1jEcBUXEcd1FJLblugljVi0fPHzgYPB54p7FJNnPUV1t58K/E+nw3Mlxpyxm3g+1SRC6haXycD96sYfeyc/eVSOG5+U1Q0nwPrGtaf9vtoIUszIYUmurqK3WVwM7I/MZd7dOFyeR6ilzIfKzBpa3dI8EaxrlrJcW9vFFBHMLdpr65itI/NIJ8sNKygvx90ZI/EZW38B65cahf2ZsTazaf8A8fbXsiWscHIxvklZVGScAZ+bPGafkNRZhcc45Hr/ACpK9C8ZeCLbSfE3h+ws4LNTJpVrd3KTalFHFLIy5k2zO+znttbHp6nL8ReE7zUPiHc6Fpfh86RePKI4tHW8Fx5Z2ZIErHDZwW696SndLzBxZyFFdBq3gLXdEs4rq6sl8mSf7LmCeOYpPjPlOqMSj/7LgHg8ZGKuXnwu8Rafp9/ez29okGnhTdj+0bYyW5PRXjEm5WJBAUjORjFHMg5Wcn+lLg5Awcn2oXr6HOPw/wAj+dd94Vm8EppukDWY1eczXH27mf8A1fl/ujlTj7/pz68UJp7GdSbpq/K2cD+tJ+laMmiXg0uHUzFiynma3STevLqASMZyOCOtdX4W+GNzqGsanYaoUs5bOCZmjW9hRxKse5eC3KZxlsYHcimZyrQprmkzhDRg11Gi+AdT1PxFa6akH2lZJI/Om06VLtIUZ9u9miLKuOf09RVv4iaSdDvpbYeGTototxIlvdutxvnVTgcuxQ8c/Ko60rj9rHn5FucZnPHTtzRxUtpALi6hg3rH5jKm9jhRnAyT2Feh6x4A02xj8QwrFqVtc6LEshvrqRTBdMWCgKgQFN5yy/OwIFMJ1YU2kzzfFA2n+IfmK75ZPBA0jb5QN8dGPzAzj/Tt/wBcfdwem2r3gHwdo3xE8C+IrC2hax8a6NDJrNtcGVjHqFqgBngZDkLIgBkUrjcN6kcAhNtK6Loz9s7Wa9TzMjFFKOmDx+tXtJ0O71yaSO0WM+Wu+SSaZIY0GQAWdyFGSQBk8kgdTSnUjCPPJ2Rdnfl6mfS1tyeC9Zj1q30k2eb24jWWEJKjRyIwyHWQMUK4zls4GDk8VT1bRZ9FkRLiS0csM/6LeQ3AHOOTG7AH61lDEUajUYzTe+5XJJXutih1ox+P0qW1tZbu4ihhiaaWRgqRopZmJ7ADqa7zV/B1x4b8N2LP4YlvZ57d57q8uY5x9nO4gIArKFIAB+YH71d8KMqkJTXT9TCVSNOSi92efqB9aQHv2rqJtF+xeCftkmlQTSPcrt1OO/SQxgqcRmFWOM4JyQDU/hO1sNT0PXo7jTYTc2Vg9zFdrJKJNwZAAfn2kfMf4apYebnyX6XE6sVFy6bHIE0VqaV4Z1DWoZJ7eONYI2EZmuJ44Y9xHCh5GUFsc7Qc4BOKW38L6pc+IY9DS0b+1ZJhAluzBSzk4AySB6c5xz1rGUJRXNJaFqSvyp6mTRVi/sZ9LvrizuU8u5t5GhlTcG2upIYZBIOCD0qvWZQUUUUxBRRRQAUUUUAFFFFABRRRQAUUUUAFFFFABRRRQAUUUUAFFFFABRRRQAUUUUAFFFFABRRRQAUVc/s//pp/47R/Z/8A00/8dqeZFWZToq5/Z/8A00/8do/s/wD6af8Ajv8A9ejmQWZd8Vf8f1n/ANeFp/6ISsaui8SWnnXlqd+MWVsvT0hQf0rJ/s//AKaf+O0lJDaZToq5/Z//AE0/8dpf7P8A+mn/AI7/APXp8yFZmr8P9Yt9A8Y6VfXb+XaRy7Zm2ltsbqUc4AOeGPQZ6YrsNc8Z6DdeD9Xs7Wf/AE+GKPSbL9yy+faRyxOshyMBiyyHDc/OK4K00P7VHdv523yIfNxszn5lXHX/AGqr/wBn/wC37dP/AK9eRicuo4muq8pNNG9OpOmrHY6s2kf8K6s9Ki8R6fPe2d5PeGNYbvEisiAKpMIG4lT1wPeqzXWma94E0fS5dWg0u90y4uWZLqKVllSQoQUaJH5BXHzY+tcv/Z//AE0/T9KPsBzkyZ+o/wDr0o5fCKSU3dS5r6dfkP2klstlY6r/AISLTv7D8B2/njz9Mup5bxAjfug0yMp6c8A9Mn19Kw/GV/b6t4w1u8tZPNtbi8mlik2ldys5IOCARwfQVR/s/wD6af8AjtH9n7jw/wCn/wBetqGDo4eftIvW1vvdyZSbXLY3PDmoWM3hvVtGvL3+znuZYZ4bh0domKbgUfYC2MNkEA8rXX+G9SsLzU7bTLK8WaKw0W8ie+ZXVSzI7EgY3bVzxwDweOleaf2f/wBNM/8AAeP/AK4qe1W4sWZ7a6khdkMbNGSpZTwQcHpjIx719HRx3s2tNFb1sjz62F576tM7DR/F2m+DYdFtIrpdYSHUDf3EsKOqD5NgVPMClmwSxJUDoOe0OseIhBFJDb67pdzYTTpvgs9L+zTOqtlS2IFHGAcBzXHf2f1/eHB68daDY/e+fGf9n/6/NSsfPSK0tt/luP6tC7fc7S68VaXJ4i8bXQucwalbTJbP5bfvGMiEDBHBwD1FdV9mPxD/AGZ7K305DLqvgfUrie8s4U3P9guQpNzjHISRCrYztDAnAxXkJ0/5iBJg/TJ/nVvTZ77RZpJtOv7iwlkie3eS1cxlo3BV0JUjhlJBB6g1y4iq8RZS0a/4c6KEY0HePXT8LHRw6hpnibwDpWiXOqw6HeaXdTSD7VDM8Nyku05DRI5DqVxhhjB+8CCDJpF9ot54F1Hw3NrUenldXjvYrq5t5is0QR4zhY1ch+VIVuOevGa43+z+eXz/AMB/+vSf2f8A9NPxx/8AXrn0vzGuq07HqGq+O9CuPE3i67g1B2tL7w2lhayPC6l5hFCu0rg45Rh1xxwSOT5ZNf3M1rb20txK9rblmhhdyUi3EFiAeBkgZx1qT+z/APppj8K0dH1LVfD0kkmk6veaZJINrvZzPCWHoSrDvQrIcpOVrmH3zg9MfQen8uvpXWfEjXrHXtU0uWwn8+OHSrS2k+Rk2yJEAwwQM4P4HtmodS8VeJNYs3tNQ8Sapf2jkb4Lq6kkRsHIyrNzggH8KxP7P7eZx6Y/+vRdSFsmjuLptEX4Vx6IvijTZNQj1J9R8oQ3YDqYAojDGADfkEckL05pfDJ0aD4e6/pdx4n061vtWks5Io3t7tvK8t3LK5WAjPzYG0kZ71w39n9f3nXg8f8A1/pR9g/2/wAdo/Ok0pKQ+bVN9D0PSPGFnc+B9F0yLVNH0jUNJlmVjq2kLerOkjl1eN/IlZCDwRgZ4OeMDgvEepXWsa5fXt5dx391PMzyXUMexJTn7yrtXAPX7o+mahOnnby+QOfu8Y/z3ra0vxN4j0S0Fpp3iPVNPtVJKwWt1JEgJPJ2qwAJP581TVm+5PM2rN6IseDdcsdJ8N+L7a8n8qa+05YLddhbe4mjYjgYHAJ5x09cV0eleJ/DEh8CQao0NxDptndR3Mc8EjwwzNI7RGRQPnQEqSBnIzkHkVxetapq/iNom1bWb3VGhBEbXk7zbAcZ27icZwOlZ32A8fvOfp/9ek7Sd2NSaSsez6H8QtA0qHwrFea3p91PZa217cyabpJtYI4jFtBCrChc5AySgbJxghQazrX4haJH4XitpL7fdDQL2zMbxSMGnkuxIik4I5UZyeOcHnivKf7P6/PgHtij+z/V8/8AAajljaxp7SSPU/F/xBTV7zUta0bxBotiL62bzLG40QLfLvTbJCZ1tm3ZzgMZRkNzjtxOi+CU1nwR4h8QNqItpNJeFfs0kBKz+Y23iTOAQc8YNYX2D/pp7/d7+tW5ri/udPt7CXUbiWxt2ZobV3ZooixyxVScLk9cVStHYz5nJ6mR9eor1j4YeOtG8O6T4ft7+++zyWuvS3syeU7bYja+WrcA5y2Rgcjr0rzL+z+g8zj6f/Xpf7P/AOmn6f8A16ttSjZkxvF3R6jN420DVfDUOhTaobU3Ghw2sl80MrJBcRXMkwSXClmVgQCVDckHB5wzRfGWg6Bb6PoLao9zBDaahFPrEEUvlW73UYVTGrKJCq7Rk7QTufA6Z8y+w/8ATT9KT7B/t57j5f8A69ZqMVZdjTne9j0ax8U6D4N8N+HrW11Ia1e6d4hXVLhYYJI42jEacRtIoJ+6B8yqQe2OTB4y8VGa31oaV4k0OfT9RcBrO30UWt3JGZA+13FuFyrYP+sOdvvXAf2fjkSY/Cj+z/STH0X8qHGMl6jc5HYyfE3fZmH7X4sIaMrg+I8pyP7vkdOvGa4PnrjNWv7P/wBv9P8A69L9g/6aZ/4D/wDXrGhh6GGT9ktzOUpS3N59ctm+G8GlrMTfLqj3LRbW4QwqobOMdQ3ft+fOXt9c6ldNc3VxLczvjdNM5d2wABknngAD8Kl/s/8A289/u0f2ef8Anp+n/wBeuq6buYwpqm3y9R2iacusa1YWLytCtzPHCZI4jIUDMF3BBy2M5wOuKu+NvDa+D/FeqaKt7HqAspjD9pjXaHwOeMnBHQjJ5BqPS577RLr7Tp2oXFhc7SomtZGjfB6jKkGqh0/Of3n6f/Xocle5rbSxL4b1ZdB8QaZqbxeetldRXDRjqwVwSPxxXfeNPF4uF1yXSPEuhyWOpE7rKHRVtr142cP5byC2AJU9T5pzgHr088/s/wD6afp/9ej+z/8App+n/wBek2pWHG6PTrzx1oknxI8Q6sl8TYXWiS2kE3lSfPMbVY1UDG4fMMZ6cdawr6+0fxX4R8N2k+txaLd6NDJbSW91DM6Sq0jOJIjGjcndghtvODnvXHf2f/t+/wB2j7B6SY/4DUtRaepSk7nYQ3ei+IvBekaRcaymiXOlXc7hr23lMVxFLg7h5SuRIuwAhgAQfvHFbuveMtB8aWOvab/ab6OstzZzW15fQyMLpIIPJIkESsQ7E7xkYySDjv5l9g/6af8AjvWj7B3Mmfqop+7e4czR2nji+0TxRr2ix6drcUFhZ6RbWpvNQgmjG+JSNpWNHYHntkf7XFdHdeKfDtt8dbfxVFr1tdaTNcM8jQ29wJIV8naC6tEOp7Lu968o/s/v5nP0/wDr0fYOnz9P9mkkrJBzPXzO78C6taXHh+20JHlfVLjxJZXENrbqRI0YV1YqzfKDlh94988V0XjZbjXv+E3h0O68PJiVr3VI9PS9S6mjil43GdfLBDNuIQjJHG4V5HHZtEwZJSrKchgMEHsevritjVPE3iHXLT7LqXiHU9QtNwcwXV3JJGSOmVLY6+1S4pqxSn3Ne2+Jnk2UUH2vxYNiBMR+I9qDAxhV8jheOnoAK4UZHJGatf2f/wBNP0o/s/8A6af+O1jQw9HD39mrX38yJSlJWOr03UdJ1PwRZ6XeakmnT2WoSXBWSGSQyxsi/c2rjdlTwxUHI5HbWbxjo0nxT1zUjd40zUIZoFuvLJ2+ZFtDFcbuD7Zrz7+z+vz/AKf/AF6P7P8A+mh/L/69dnMjglhIS5tXr+pr6O1n4f8AGGjztqcF9aQ3MM0tzbJLsQBxkYdFYkDnp3qnr2pR3HijUL+2dZYnvHnhZ49ysu8lcqw5GMZBFVP7P6HzOR0+Wj+z/wDb/T/69SmrI6PZJS5+trF6XxI2p3lm2pQWptYZQzrZ2cFsWXI3DMarnjp6ZPrXeeIPFmkXVnr8cusQatp1xGRpmlR2skbWL5BQglQse0ZB2Md+ST1rzX+z/wDpp/47R/Z//TTP4f8A16LqxnLDxk1LsVPYZPbgn04r2b9ndW8HQ+KviLet9k0bSNLubGCV03LdX9xE0cVug6MfmLsB0VcnAOa8kOn5/wCWn/jvX61akmvZtOg0+TULl9PgdpYbVpGMcbsAGZVzgEhVBPsPSiTTTSOuFlJORk9v/r5rrfAt9pNna6yt5JY22qyRRiwutStWuYI8OPMBQI43FehKHGD0789/Z/H3/wDx3/69H9n9f3nt0/8Ar1zV6MMRS9m216ApNS5j0HxJ4ut7zxNoFzo3iC1tnsdL+yS30tg8UJbfIGXyUibhlbgbcYPOOgwPHl9ol4unPpkViNRw7Xs2kxSxWjHIEYRJcFWwCW2qBzXO/YOv7z3+6KP7P/6ae33a4cPl1HDShKLd4+mvrZGkqjd9Nyp93pzzxx1weOldJ4t1a11Kw8Ow283mPa6f5E67SpV/MdtvOM8MPasb+z/lx5n/AI7x/Oj7Af8Anpx2+WvdjWcYOHR2/A5ZU1JqXVHWWf8AZJ8BXWmv4gsY7q4u4bvY0NxhAiOCrERYzlh0yPeo/BEmmWOm6v8AbNatLOa+smtkhkjnZlYuhyxWMjbgdifpXMfYf+mn6f8A16T+z/8App+n/wBeuhYx8ymorRWMZYdOLhfRu52eh+ILO38LyaOupada3NvePLHcXmn/AGiGeNlCkjMTspGwHlRkEVgXl1H4j8WRtrGswrbyPHFNqVtat5aRhQoIjVUJwABjAPFZf2Dn7/Hpto+wHk+Zz/u5qKuKlVioyLjRjCTkupHqEMNvf3EVtc/bLdJWWO42FPNUMQrbTyMjBweear1c/s/t5nH0/wDr0f2f/wBNP/Ha5VJWNmilRVz+z/8App/47R/Z/wD00/8AHafMhWZToq5/Z/8A00/8do/s/wD6af8AjtHMgsynRVz+z/8App/47R/Z/wD00/8AHaOZBZlOirn9n/8ATT/x2j+z/wDpp/47RzILMp0Vc/s//pp/47R/Z/8A00/8do5kFmU6Kuf2f/00/wDHaP7P/wCmn/jtHMgsynRVz+z/APpp/wCO0f2f/wBNP/HaOZBZlOirn9n/APTT/wAdo/s//pp/47RzILMp0Vc/s/8A6af+O0f2f/00/wDHaOZBZlOirn9n/wDTT/x2j+z/APpp/wCO0cyCzKdFXP7P/wCmn/jtH9n/APTT/wAdo5kFmU6Kuf2f/wBNP/HaP7P/AOmn/jtHMgsynRVz+z/+mn/jtH9n/wDTT/x2jmQWZToq5/Z//TT/AMdo/s//AKaf+O0cyCzLlFFFYmgUUUvXAoA0de/4+rf/AK9IP/RS1m1pa7n7Tbf9elv/AOilrNpIbCiiimI0dJ/49tV/69P/AGolZ1aWkj/RtV/69P8A2rH/AI1m+lA+iCiiigQV3nwp0y1mv73UG1O0gurWxuZoIpUkZ45FjJWbiMrhck9d3GcdM8HzWx4Z8QHw7PfyeR9o+1WU1pjft271K7uhzjOcV5uYUalfDSp0t329fMum1GSbNmbSZfEL3+pat4mbUbHT440kvlE1xIxctsijWbYx5DE5IAGfpT7H4dpqmuaJa2mqK2n6vDJLBeSQ7WQxqxdJIwxwQy4OGIwQc9qx9A8RRaXY6jp15ZfbtOvvLMkccvlSIyElGR9rYPzHOQcgkfTWs/iEuna1o9xbabs03SoZYYLNpsuxkVg7vJtwWLNn7oGABjvXmzp4+nJ06Pwrb4bflv8Agbp05K7/AFMvV9D0u10n7Zp+trfOlwbeWCWIQP8Adz5iKXLNHkEZIU8j5eeMLlT0IOfejn6fTPFJtGRlfl9AP/rV7uHhUhC1SV33/wCGMJuMnodl4k1C61PwD4elurma7lNzdKHndnJACAdewqG1jc/D/U2tNTm+zLNCbqzks0Cs7E4KybiSBt9BUOo+JNKvfD9vpcel3kQtmkkila+VjufbncPJGR8o4yPrRpviPSrHw/c6ZJpd5KLpo3mlS9RDuTONo8k4Bz0Oa+gdSk6kpOV7xst9zyeSpyWUba+WxJp/g+xm03R7q91d7Y6lK8UcUNoZWUq+0sfmX5eR788A1PYfDm6n/tBpjdSR2d09mRptobqR5E+8Qu5cL05J/iHHXGWvigrY6BbC2/5BUry7t5/ebnDYxj5env29Kuz+MoNSXU4NQ06Sazur17+JILny5IHbqAxRgRjj7tEfqOvMtfmunz6g/rV/df5dzK8TeH5vDOsTWEzbygV1faVLKyhgSp5BweR2ORVGzW3kuo1u5ZYLfndJBGJHH0VmUHt1IpLxoHuHNrFJDb/wRzSCRhx3YKoPPsKWxa2juka8hluLXPzxwSCJ24OMMVYDnHY9PevExFnGSgv6+Z6NPmsuZ6nbeLNJvNe+IGk6fe6u19JfRWqx3j2qRMiSKpUGNTglQ3rk1nap4Ls7XSdWu7HV2vpdJnjhu42tTEh3lgGjYsS3zLjlV65qzqHjywufEWj6zb6Tcw3OntbjZLerIkkcIAC4EQwTgc89+Ky/+Er/AOJZ4ks/snGsTRTb/M/1Wx2fGNvzfe9ulfN0YY9ezSVkrXXu99dvLsdsnSdznv8A9ea9C0e1TSfAs13ZeIrbT7qe+SN7yEXCkKIyfL3LHu68nGR05zXnvP485rV/tw/8IudH8nrefa/O3n/nns27cfrn/Gvs8NWjT5ubs7HlYinKooqL0ujc8Lia4sPEL2+sXEV61nNJdK1okizx8Z/eM24Md3Xbnmj4U6jdWvjPT7eC5lhgnlxLHG7Kj4U43DuOvrVHw34i07QbW8SXTbm6mu4HtpHS7WNRGxz8q+USDwOcmm+F/EOn+G9cXUv7Oubh4ZN9vH9rVQo54f8AdHcenI29OldcKlNSpy57d9zCUJv2i5fTYZ4Z8Jz+JpLxo/OFvap5kv2eAzynccAKi4yc57gAA/SjxV4Um8MSWhczeRdJvj+0wmGUYJDB48nBBHqQQRzT7DxFZadJfwR6dNJpV9Esc1vLcgygqdyusgjABBx/CRjIOc1k6hLZzSqbK3uLaLbhlnnEpz7EIuB04x+Ppz1fq6pWhrLvqXTVbn1+H5FjxBYafp+pmDS9T/ti12qVufs7QZYgZG1jng8Z701vD9+mmWWomD/QryRooJd6/My4yMZyOvel8Q32n6lqTTaXpf8AY9mUVRa+e8+GwNzbmGeSM47ZrNb5uoz36f8A1q83Wx6GlzYk8I6tDeanaPZ4udNjaa6TzU/dqpGTndg9R0zWP+tHPPv196OaevUTt0CiiimIKKKKACiiigAooooAKKKKACiiigAooooAKKKKACiiigAooooAKKKKACiiigAooooAKKKKACiiigAooooAKKKKACiiigAooooAKKKKACiiigAooooAKKKKACiiigAooooAKKKKACiiigAooooAKKKKACiiigAooooAKKKKACiiigAooooAKKKKACiiigCh9uk/ur+Ro+3Sei/r/jVaituUzuWft0nov6/40fb5P7q/lVaijlC7N/xLdPFeWoAXmxtm/OFDWT9uk9F/X/GtDxV/x/Wf/Xhaf+iErGpKI22Wft0nov6/40fbpPRf1/xqtRT5RXN/Q7ppLPWyVX5LLcP+/wBEP61k/bpPRfyrQ0D/AI8df/68P/a8NY1LlHd2RZ+3Sei/r/jR9uk9F/X/ABqtRT5RXZZ+3Sei/r/jR9uk9F/X/Gq1FHKF2Wft0nov6/40fbpPRf1/xqtRRyhdln7dJ6L+v+NH26T0X9f8arUUcoXZZ+3Sei/r/jR9uk9F/X/Gq1FHKF2Wft0nov6/40fbpPRf1/xqtRRyhdln7dJ6L+v+NH26T0X9f8arUUcoXZZ+3Sei/r/jR9uk9F/X/Gq1FHKF2Wft0nov6/40fbpPRf1/xqtRRyhdln7dJ6L+v+NH26T0X9f8arUUcoXZZ+3Sei/r/jR9uk9F/X/Gq1FHKF2Wft0nov6/40fbpPRf1/xqtRRyhdln7dJ6L+v+NH26T0X9f8arUUcoXZZ+3Sei/r/jR9uk9F/X/Gq1FHKF2Wft0nov6/40fbpPRf1/xqtRRyhdln7dJ6L+v+NH26T0X9f8arUUcoXZZ+3Sei/r/jR9uk9F/X/Gq1FHKF2Wft0nov6/40fbpPRf1/xqtRRyhdln7dJ6L+v+NH26T0X9f8arUUcoXZZ+3Sei/r/jR9uk9F/X/Gq1FHKF2Wft0nov6/40fbpPRf1/xqtRRyhdln7dJ6L+v+NH26T0X9f8arUUcoXZZ+3Sei/r/jR9uk9F/X/Gq1FHKF2Wft0nov6/40fbpPRf1/xqtRRyhdln7dJ6L+v+NH26T0X9f8arUUcoXZZ+3Sei/r/jR9uk9F/X/Gq1FHKF2Wft0nov6/40fbpPRf1/xqtRRyhdln7dJ6L+v+NH26T0X9f8arUUcoXZZ+3Sei/r/jR9uk9F/X/Gq1FHKF2Wft0nov6/40fbpPRf1/xqtRRyhdln7dJ6L+v+NH26T0X9f8arUUcoXZZ+3Sei/r/jR9uk9F/X/Gq1FHKF2Wft0nov6/40fbpPRf1/xqtRRyhdln7dJ6L+v+NH26T0X9f8arUUcoXZZ+3Sei/r/jR9uk9F/X/Gq1FHKF2Wft0nov6/40fbpPRf1/xqtRRyhdln7dJ6L+v+NH26T0X9f8arUUcoXZZ+3Sei/r/jR9uk9F/X/Gq1FHKF2Wft0nov6/40fbpPRf1/xqtRRyhdln7dJ6L+v+NH26T0X9f8arUUcoXZZ+3Sei/r/jR9uk9F/X/Gq1FHKF2Wft0nov6/40fbpPRf1/xqtRRyhdln7dJ6L+v+NH26T0X9f8arUUcoXZZ+3Sei/r/jR9uk9F/X/Gq1FHKF2Wft0nov6/40fbpPRf1/xqtRRyhdln7dJ6L+v+NH26T0X9f8arUUcoXZZ+3Sei/r/jR9uk9F/X/Gq1FHKF2Wft0nov6/40fbpPRf1/xqtRRyhdln7dJ6L+v+NH26T0X9f8arUUcoXYUUUVQgooooA2fFX/H9Z/8AXhaf+iErGrZ8Vf8AH9Z/9eFp/wCiErGpIbCiiimSbPh//jx17/rw/wDa8NY1bPh//jx17/rw/wDa8NY1BT2QUUUUEhRRS9s5oASilwQAcUbfy60DsJRS7TwTwD7Gl20gsNoqe5s57PyjPDJCJUEsfmIV3IejDPUe9Tapo93optxdxeV9ohW4j+dTujbOG4PoOh5q+WWumwrq6XcpUVpaT4dv9bgvprODzo7KE3FwQ6rsjHU/MRn6DNZvHY5+lDjJboa966QUUuKPc8CoASirs2j3cOlw6i8WLOaRokk3DllAJGM57iqeOcVUk47oSaeqEoqxcWNxaxwvNBJCkyeZE0iFQ65IyueoyDyPSoQvbPTg+1DTTs0HmNopcYoxxmkMSilCk9j+VHfFLzCwlFLj5cnOfTH+fej9fpRdAJRTtuen8jVrSNJute1GCxsYvPupjiOPcBk4z1JAH51STk7LcWyuU6K1PDfhnU/F+v2OiaNZyahqt7KIYLaHGWY9eScAAZJYnAAJOBzUMmjXi3l7bLAZpLPeZ/s7LMqBDhm3ISpUH+IHb780t3y9SrO3N0KNFL6Z44zRj/ORQtdRCUUoXNGOgHJ9BQFhKKXHTBzkZq5pOkXWuahBZWMXn3Ux2xx7guT9SQKaTbshPRXZSorS0jw/f6810LGDzzawNczfOq7Y1+8ckgHHtWd3xmnKLik2twTTbS6CUVPZ2VxqFwsFtDJPM33Y40LMeM8AfSn6bps+ralaWFsEN1dSrBGskixrvYgKCzEBRkjliAO9TZpXAq0Vo6/4d1LwrrV7pGr2U2n6lZyGG4tplIaNh2P+I4PUZHNZ9JO6uNprRiUUUUxBRRRQAUUUUAFFFFABRRRQAUUUUAFFFFABRRRQAUUUUAFFFFABRRRQAUUUUAFFFFABRRRQAUUUUAFFFFABRRRQAUUUUAFFFFABRRRQAUUUUAFFFFABRRRQAUUUUAFFFFABRRRQAUUUUAFFFFABRRRQAUUUUDCiil2k9AT+FAGx4q/4/rP/AK8LT/0QlY1bPir/AI/rT/rwtP8A0QlY1JAwooopiNnw/wD8eOvf9eH/ALXhrGrZ8P8A/Hjr3/Xh/wC14qxyMUFPYSiiigkK6vQ9NsLHwjd6/d2g1KUXaWcVtI7pEpKly7bCCeBgDIxnPNcpWno/iPUNBWdLSZRFOAJYZokljfByCUcFSQehxkV0UJwhJuor6fiZ1IykvdZt6fp+nar4b8UaitiLea2Fu1vGsjkRFpArgZOSuOgbJAIyT1O7pfhTSJtf8NW81sxtrvRnurhY5SC0m2Y7gc8H5F46cdDXHWvi7U7O6up45YibpQk0UlvG8LKpBUeWylcLgYGOMcYqWbxzrVxqcGoSXhe7gga3ikaNDtjO7K4xjHzt24zXbSr4eFuaN36I55U6snZPT18h2sahot9pa/Y9LOm363Bx5UjyI8JHy7y7E7wfQKOenasS0kjhnieWJZ1DZaKQsFkGehwQcH2I/CpdNjspbkC+uJraDBJkggWVs+m0sv8AOtK6sfD8cMhg1TUpJtvyxvp0aKxxwCfPJHPcA1w2nUtOyXyR1K0dDqPiJqls1joCLo9oJJdIhMUweffCCWwq/vMYHuCee9bctjpmua54X0e709Zmu9Hi/wBMMzq8X7ttpjCkLkEE/MGzntXm8virUptLTT5ZIJreOPy42ltYnkjQnOFkZSyjJPAPc05fGGrR6jZXyXW26s4lggk8tfkRQQBjGDwTycmvR+uQvO6unbdI4fq81GKT2v1fU1/B9jp2raZrttdaZDLPaWE11Fd75BIGBGOA+3Az021Jotnplr4Fk1a70xNQvRqItU8yaRU2GMschWBOMHGCOeuelY+j+NNU0K3kgszaIkisrmSxgkZgeSrMyEkexOKqT+Ib64sZbJpUW0kuftbQxxIi+bgjICgYGCRgcVnHEUY8rtdpNbI1dKpJvXS66s0fH2k2ui+K7u0sY/KtSsUsce8tsDxq+0E9QCxHPpR4K0m11TULyS9R5raxs5bxoY22GXYOE3dgSRnHOAaY19aeIrqW+13U7yO8YKgNvZRyBlVQq5/eJg4GOnbrSrfWvhu6S70HVLyS8+ZG+02McabSMEH944YHOCpGKxjyxq+0a92+35aGj5vZ8ifvW/E6m4tz4k8I+Gba00uK1M+qTRi1tZXUPlYhw0jOQfcnjrio9b0PRU8M399bxaY91pt3FGyafJdFHUlgVfzSOpXqh/KuXuPHOt3Rs996UFnN59ssMaRrC2B91VAC9BwOM5OOTSah421jUtPmsJriJbKZ1ke3gtooUZhnDYRRzz16nAznFdEsTh5Rm+V3a8v6RzxoVYta6Xvu+51HjrVrQ6N4cH9i2QabTMo+6cND+8cfJ+8wcEE/Nu/LirvhbwXpVxJpenapBp8Vxf2pmX9/cteYZGKOu0eUo4B2tzj6iuF/4SzUf7JTTneCa1jVkTzraKR41bqEdlLLzzwRzV2x+Iuv6dHAtveJG0EYhjl+zRGUIP4C5XcV9icU3iMPKpKclvtogVGpGmoRffqznWX5jj1/z/k11XhHRYJtNutUvobE2kUiQiXUJJhHvIJ2qkPzs3Gc9AAc9QRl6J4u1bw7a6nb6ddC3i1KA210vlRvvjIIKjcp29T0waZo/ijUNDhlhtXiMMrrI8VxbxzqWX7rASKwBAJ5HNcNCcIVeaa0OyopShaL1O9vvCegaVe+IZ3svtlpa2Fve28SzSKgaQx8Bjhth3Y+b5sdweaZpfhnQ9WuNFvnsTBb3lhdyTWcEsgAeJTtdGYkjOAcEkZHccVh6X8RrqOLXJ9Rdr6/vLWOCGSaCOVMq6n94GGD8oPJBJNReH/Hc1r4hOp6kzXJW0ltoo4oU2JmNlRRHgKFyckYxyeOa9WNbC8ystPRHnulXUHrr6mnp/h/SfGGn6XcW9kujPNq62DrDK7h43Xdkby3zDGOOPmHFN1ux8MR2V9BFJYQ38MyLapZm7aR8NhklMqbPu85XHK8cHFctqXijUtUa2M06qlscwR20SQRxnOdyqgAyeOcZ4HPAqTVPGGp6xGwu2tZXYhmm+xQLKxBByZAm7PHrz3zXN9Zo8qvBX66b/5Gyo1Oa7lp2v8A1c7jVvDmgtrniTR7fSBbix097uK8+0SNIHVVfHLbdpBxggn3qx4LtLDw/wCM/DFhHpsdxdXEEV3JfTtJuQum/CKrBQoBHVSc5rzyTxbqsuo31811m6vYWt538tBvQgKRgDA4A6Crmn/ELXtLjtVtr1Y2tV8uKXyIzIqA5Cbyu4rk/dJx7VpHFYdPm5bPyS+REqFVx5XK6t3fY9E+FbtoPwZ+LfiKyO3V44bHSo5lGXt7e5mYTkccblj2ZB/iNcx8M9QhhsfEcT6bbXDR6ZNIzyNLudRt+QhXA247gA9Oe1M+EvxIt/A2qanaaxaSal4W161bT9Xs4CqymJjkSxEjAljYB1yMZXGRnNctb6w+gavdTaNcSfZyZI42uYUzJEcgCSP5l5HVTkA9zivNw9X2OIdRrRnoV4Krh1TT1R0XhfStK1x9Y1O7trOwt7GBGFqZLjyGZnCDeVLyY5ydp645AzWvp+heFL7UHliWG+EWmXFxc2tm9wkSyRjKlWkAfBGc9eckHGK4q38W6lZ6k99byQ288kZidYbaJInQjBVowoQg/T+mF/4S/UvtEs8bW1u8tu9q/wBms4Yg0bjDAhUAyR/FjPvXdSxNGHLzQvbfQ46lGpO/LK3zPSpPBXh+5aER6Z5BWfTWcLNKcicHegyx+X075zzjArnNV0nRLy18UQWmmf2e+kMGguRO7vIBKI2EgJK87sjaoxgZz1rI0nx9qEGpW0t9O01qsts80aRICyw4CAcDkDjqM9zTfEHjCfxFfXMMk32TSJ7ppGjt7SKNipYkFwm3zGA/vMfrXTVr4apTvCCTfSyMKdGvCXvS09Wc0MswUkYzivWPBdlYaB408M2MOnLcXU8EV1LfTNJvUyIWwihguACOqk5zXCvp/hogn+19Vz3zpkX/AMkU+0+IOu6X9nSzvwgtR5cExgjMojBJCbyC23n7pJH1riw9SOHd6i1+TOmtF1o2g+/kXvBttY6kmt211p0M0sNhc3UdyZJRIjImVAAcKQCM9D178VB4a0uwXw7q2tX1sdQNo0cEVqzMqFn3fM5UhsAL2IyT1FUNG8ZanoEMkdk1qgkDK7SWUMjsrDDLuZCdp9OlRWXirUtPvLm4glija5G2aIW8fkyD0MRXYR0/hpxrUko3WqT6LTt62B06l5Wfbr2/I634X6pZyePrPytJt7cSk4HmzHySI2zsJfOD6Pu69a43WL+C+mRrfTrfTgoIK2rysGzzk73b9MD2p3/CSagusR6ok/k3sRDRyQIsYQjoFVQFA9gMVK2tR61q1k2slYbJZFWd9Ns4Y5vLLDcVVQiu+M4yR9RWEqylTUOz7I0jTcanP+p6X8bGGvfDf4TeKr0rJr2o6bdWd5PtbfcJa3HlQSOf4m2fKWPPyfl436V2/wAWPiHH8QNft/7Os20nw5pVsmnaRppcMbe2ToWI+9I7EuzHJJbqcCuJrgimrt9TsqSTeglFFFaGIUUUUAFFFFABRRRQAUUUUAFFFFABRRRQAUUUUAFFFFABRRRQAUUUUAFFFFABRRRQAUUUUAFFFFABRRRQAUUUUAFFFFABRRRQAUUUUAFFFFABRRRQAUUUUAFFFFABRRRQAUUUUAFFFFABRRRQAUUUUAFFFFAwo/AH8KKKBC0lFFAwooopAFFFFMAooooEFFFFABS5pKKAF5o5XjOaSiloMAvtSnikooDUKXNFFMQcmk+tLRSsMXr9KQ0bqSmIKKKWgBKKKKBi0fhSUUgFpKKKACiiimIWkoooGFFFFAhaPoMUlFAxf/1etFJRQAUUUUCClyexxSUUDF/SkoooEFFFFABRRRQAUUUUAFFFFABRRRQAUUUUAFFFFABRRRQAUUUUAFFFFABRRRQAUUUUAFFFFABRRRQAUUUUAFFFFABRRRQAUUUUAFFFFABRRRQAUUUUAFFFFABRRRQAUUUUAFFFFABRRRQAUUUUAFFFFABRRRQAUUUUDCiiij1AXFGMdeP6V0nh/wAOLc6Lquo32l65NbRQMba70+23QLKBkeazDAXkdOaj8GeHYNev7oXbyR2VjZT306wYEjrGudi5GMk4GcHH4VwSxlKnGcntEvkbt5nP0Vb1STT5brOm21zaW+3mO6uFnfdk87ljQYxjjH4+iaa1qt1H9shlnt8/MkEoic8dmKsBz7Gu6m3USb0v0Il7pV9KK6DxxoNt4d8Sz2FmZXgVInXzmDP88auckAZ5Y9qoal4d1TSPJ+3abd2fnf6v7RAyb+nTI56j8xW0qc4ylF9CIzjJJrqZtLWndeGdWsbN7ufTLyC1RijzyW7qisDjBYjAOeMetdX4T8A6dJ8P9e8Z+JLm4ttJt3/s3Tbe1ZRNe6gyblX5gQsUakO5I5BCg5PGc06avLQuHv8AwnA9KStDS/D+pa35n9n6fdXwjxv+zQNJtznGdo9jVb7DcGz+1iCT7Lv8rz9p2b8Z27umcc460+WWmgrogorQ/wCEf1Pz5IP7PujNHt3x+S25dxAQkY43ZXGeu4YqPU9HvdGuBb31ncWc+3d5VxEY2x2OGwcUOEkuZp2FdbXKdLirNhpd1ql0ltZ28t3cPnbFDGXY4GTgDriuk8TfDvUfC+rmCWC7lsA0a/bvs7RxncFPB5GQTjqelaRoVKkeaK0vb5kyqRi7N6nI/TpShSa6Xxh4NufD+p6l9ntLx9It7hoY72WM7Dg4wXwBnIx+FNTw8sHhGe/u9O1ZLh3T7NciDFm0Z67mI6nnGKXsZJuMlawvaRaUk9zm6XtWnYeGdW1ZFey0u8u1cFlMFu77gDgkYHYkA/UVmspUkEYYHBHcVHLKO6NNG9BtLx61Z0/TrrVLhbezt5bqd+FihQu54zwBycDJ/Ct/xN4Nm0OPQIlt7xdRv7ffJazIdwfzCoVVxnkAEDHf3q40pODnb+mS5xjJQb1Zy9JWw/g/W4b6Gyk0m+jupgWjha2cO4HJIUjJwPSr/jHwDqXhG8mV7e6msY9mL1rZkjYsoOM8rnJI69qfsaijz20F7SN1G+rOZAzScc8jp61py+GtWg01dQk028SwIDC6a3cREE4B3kY68ZzXYaX8PbDxV8KdS8QaLdXT6/4ffzdY02faY2s3bbHcwYAICH5HU5+8Gz2rGScFeRrBc7sjz08EiijHY10Xw98P2vivxlpmk3kksVvdOyM0LAOMIxGCQR1A7VjVqRowdSWyCzbsjnaSnSKEZwOimkPy8Hg9OeM/SrjKMldBZp2EoqezsptQvILW3XzJ5pBFGuQMsTgDJ6c10l14Ii+w6vJp+otfXGk4+2I1sY4wMkMUfccgMMfMFyORVN23O7D4HEYqDqUo3S/4fTvocpRVptLvU05dQa0nWweTyVujEwiMgGSm/GM45xnOKrUHBZiUUUUxBRRRQAUUUUAFFFFABRRRQAUUUUAFFFFABRRRQAUUUUAFFFFABRRRQAUUUUAFFFFABRRRQAUUUUAFFFFABRRRQAUUUUAFFFFABRRRQAUUUUAFFFFABRRRQAUUUUAFFFFABRRRQAUUUUAFFFFABRRRQAUUUUAFFFFABRRRQAUUUUAFFFFABRRRQAUUUUAFFFFAwpV9KSl/h5xjPcUAd98NdP22PiKaS9022jvNHuLSBbjUbaF2lZoyqlWcEZAPJGOtS/DvxJfeGf8AhJbCXWmsYY9LuxBGl8BCbjA2+WQ2wv1wV59DXDajYy6fJFHKwYyRRzjaxPDqHXPvgiqv04NeLWy1Yj2qqyup26bWOiNTl5fItalql7rN011f3lxfXLDBmuZWkcgdASxJpdL0+TUryOCJoVZsnM86Qrx6s5AH4mqmaAcV7dPlpte7ojnd2nqeqardWWm/FSw1q5ns7rS8wLvguo5yrLAq5ZEcsNrDOfbis/WtQm021mtGtNDSxuL6OR57HUDcO7KzYcBpmIyC3JUHBx3rzvce5NGenr6ivRWMkvhXW5yfV1pd9LHp+pa9b3Xibx+8t/DPBPaSR27NMGSTEqbVTnnABwB6VsayD4m/ZW8Ozae3HhjXbmDVbaNssBdKrQXDjPC5jaMEjqABXjBY8dvStzw1401vwcupLpF9JZx6laSWF3EVV454ZFwyMjgqQeo4yDgjBrjxNX6wkpLbX8Tqw8Fh22uqt+FjdYL4h8C6Vp+n3lraz2c8r3dtc3SW5dmOUlBkZQ+ACOCSM+9P08R6x4LvNOGpWhvV1cXLy3VyIQ6GNgZA0mCee33uRwSa4RW25weO2P8AP+c0ntXSsV7zm1d2sYOirWT0vc9a1jxFa2194ynstVhDzaZaxQTW8wUytthDBeQTxuyBzxg968zvdWu9RtbO2nfzYrNDHChQZVSSxGcZ6k9apfewP61d0vWZ9HZzbR2rbxtIubSKcD6eYrYP0rOriHXfvaLyHToqldrV/wDAsU4ydwPbPU8/Su88cRx6j4qXXLe7s5tOmNuVZbuPzOEQHMe7eMEHqtcvqHia81K1eCaKwRGIJaDT7eFuP9pEDfrWV0HOcY9B/wDqohWVPRapNP5jlBzd3p0PTtQ8QQXnibx60upRzwT2kiW7PPuWTEiFAhzzgZxjpzWfoOks3gHWbZrrT0nvZbeSCKXUIFdlUvnILjaRkcHBrgOhP+cUbj61p9bcm3JatNfe7maw6irRemn4HoK65FF4f8EW6XyAQ3s0txCswxGfNTazjPHBbk++O9cx40uIrrxhrU0DrNDJezMkiNlWUyNggjqPesYN/wDWrWsfFV5p9qlvDDp5RM4abTbeVzznlnQk/iameIVaPJLRb/hYqNJQlzI2PBcsTaH4jsUuoLTUbuCNYWnlWEOokBdN7EKMjHBIziukZdHbUfC1nc6lbXEdrp88cv2e6EaGXfIRE0nG0MTtLcAg5BxzXnWqaxPq8iSTJbxsq7R9mtYoB+IRQCfc1R3fXH1/Krhi/Zx5Ur7fgRKhzvmbs/8AgWPRfFlxax+B9Ms1Gl213FqEjtaaddG4ESlBySzv1I/hYj8c1R+IkKanr0us29zaT6fOkOGju4/N/wBUoOYs7xgg/wANcRu5z36/j60ZAXA44wMHGKmeKc/s6aP7io0VF3v3/E9iLaRp/wDwkTW76WLWbSnht7xtRMt3dMYwfmTzCAeOjIvOAOlP+AcbaF4X+KXii7CRaPD4auNK3zfclurkosMY/vN8rNjsFycCvG9x+n0rYu/GWsX3hfT/AA5Lev8A2HYTvcwWUaqiCV+GkOBlnxwGYkgEgYBxWOLrfWYcqVjbDQVCd27mOwxx3710/wAMrr7D470efz7O3McjN5l/cfZ4RhG+9JtbbnoODyRXLijNcFekq9OVN9TVSs7m54X1C10m/ne7uBCNmA40u31HJyP4JmCj6j0qXxZqtlqS232K5+0bC+7/AIkttp+M4xnyWbzM/wC10xXPMdygY/wo4z0/xrCOEiqiqX1tbZf5X/Ev2hq+GtSi0fxHpl9IC0Nvco74GTtDDP44zXc6hrEWk2/iAre2J0+e3kt7C1srhJHnaUgmWQA7g20c7sY4VeleZZHpjt+FJ6/XPSuxrmPawGb1MBSlSgt3e/Xa33G9cWt7H4MgmbXLeSwa9ZU0f7WxlSTaSZjD0AI43dT0rBbr60dOmRxjrQTmmeDfSwlFFFMkKKKKACiiigAooooAKKKKACiiigAooooAKKKKACiiigAooooAKKKKACiiigAooooAKKKKACiiigAooooAKKKKACiiigAooooAKKKKACiiigAooooAKKKKACiiigAooooAKKKKACiiigAooooAKKKKACiiigAooooAKKKKACiiigAooooAKKKKACiiigAooooGFFFFAGz4q/4/rP8A68LX/wBEJWNWz4q/4/rP/rwtP/RCVjUkNhRRS0yS1pOmyazq1lp8LKk11MkCM5O0MzBRnGeMmuh1b4c32k2mpyi/0++n0yRI7y1s5XeSHc20HO0Kw3YBCsSCwBAOcY3hnUotH8R6VqE6u0Fpdw3DrGAWKo4YgA98A4/Gl1bVhdeJb3U7YFBLeSXMXmjkAuzDcOfYd+/NeTiPrUq37nSKTfq77G8eW2prXnw+vLNb+M39hJqNhEZrvTY3fzoVXG7LFBGxXPIR2I59CK19W8EaLbeCNBvotc0yG8nkuVluit2VnClMKB5RxtzzkD7w5Pabxd8Rl8Rtf3cHiPxJYm9Qs2kH5rUFh88Yfzx+7znAMfA45rGTXdH1Twbpmj6lLe2M+nSzyxTWtuk6SrIFOG3SIVwV689a8mH12o6cqjatJXSX56bX7G9qcbpdjNPhO8+w6DeGSERazLJFbruYshR1Q7xjgZYetacfw11Bv7cea/0+0g0W6+yXdxcSuEDfPhlwhLDMZGAC2WGFPOLek+K9FfRfDdvqa6hHPodzNMkdpEhWdXZHALsw8sgqR91sjFM1vxtYalpvi2CKG4R9X1aO+gZkXCRgyEh+ThvnHHOfWtfb5hOailZdXbz/AMiVGnuyL/hV+oiS9Y3+mpaWtrBem8eZlikglxtdfl3HvwQGyMAE4FY3iTw1P4ZmtBJcW95BeWy3Vvc2pYpJGxIB+ZVIOQQQR2qzoPiK30vwz4l06aOR59ShhSEoAVUpKrtuJIwMA9PSjxV4ht9c03w7bwJKj6dYC0lMigBmEkjZXB5GHHWuqi8bHEKNTWGvTpbR/eQ/Z8pz65LAY5zXqvxs0fTPhzb6P4Bs9Ptjq9hDFf63qrRo1xLdzRK/kK/LLFGrKNuRl9zEcLjytX2sGHb/AD/hXs37RFunjptJ+KmmMk2m+IIIbfUVEgLWepxxBZYWX7wDLGJFPcE+lezUe3qKna0u9jxf0pKX+VB7VeyMBKKKWnsISilpKQwooopiCiiigAooooAKKKXtQMSilopCEooopgFFFFIAoopaYCUUtJQMKKKKBBRRRQAUUUUAFFFFABRRRQAUUUUAFFFLQMSilxzSUeYgooopAFFLRTASiiloASiilo8hiUUuKSgQUUUUAFFFFABRRRQAUUUUAFFFFABRRRQAUUUUAFFFFABRRRQAUUUUAFFFFABRRRQAUUUUAFFFFABRRRQAUUUUAFFFFABRRRQAUUUUAFFFFABRRRQMKKKKANnxV/x/Wf8A14Wn/ohKxq2fFX/H9Z/9eFp/6ISsakhsKKKKZJd0/Tvt0GoSeZ5Ztbfz8bc7vnRMe338/hVPP4VseH/+PHXv+vD/ANrw1j0tb3ZXQPX65ozRSU/UQYHpS980ldN4Z8Hrr2l3+oSz3CQWjKrx2Vt9ol+YMdxXeuEAU5Yn0rSnTnUdoLYiU4wV5M5rPT86Ttit7RfDsGuatcW1vLfTxRqWjFtYGW4kGevlhsD1OX4962rr4ZPb68ml/bZEluNPa+tFuLYxSSMAx8p0LfI2UYcFu3rW0MNVnHmSujOVaEXZs4j9PpQOM4GM+ldPpngSfVLDS3jnVL7UrtraC2dcAqoG6QtngAnHTsfpV3xB8Np9I0a61GL+0DHayKkgvtPa13BjgNGSx3DOM5wRkHFJ4Wryc7joNYiF+VM4s0YzQMdulen/AA98NWuheMND+130v9qSxfaRaQ24ZEVo2Kq8hcENg5ICnGRyecKjQliHotB1Kipr3jzAjbRjpXX+FfAo8UKH8zUAGl8otY6c1wkfTmRtyhRznjJwM1q+HvDek2Vl4ttNTnka8sYmjkaOzSVYisyrvjZnBJPTovB69q2jg6kt9mZyxEIrzR536UGt3StBtdc1qS2s5764twm9fJsPMuXwBkCJXI4PXL9Bn2qTxl4Qk8J3FkpeZ47uAToLmAwSryQVZMnByD3PGKwdGrye0tojT2keZQb1Zz1BGKtaalpNdIl5NLBbnJZ4YhKw4OMKWUHnA612XxM0bR7fxRcQafJNHeN5IWzSzRIeY06OJM5Oc/d6nHvTjRlOnzphKooyUWcFRXZzeAbT7TqGmwax52tWMTyS2/2fELsi7pESTdksAG6oAdp5HFcbjPTmoqUp0rc3UcZxn8IlFdLZ+FbWLQ4NV1fUJLGC5kaO2it7cTySbPvsQXUBQSB1JJzxxUnhvwWuvx6pOLqaS3sdv/HjameWTJIDCMlcLgEkkjHHHPGkcPUk7JakurBXbZy1LXQWfhm21aDWnsb2V30+EXEcU9uI3mjBAcnDsFK5zjJyPSnSeD3VvDtulyr32s7SLdkwIleTZGSc855PQYGPWsqlOVKk6017qVy4SU5qmt2c7/hmiu08dM2qeLI/DWkREWGmznTrG3BGXfdteRjwN7vkk/QcACqfirwzpPh24utPTXXvdYs5BFcRLZ7LYuCFkWOXeWYqf7yKCFY56BuLD1XVpqpJWctTqq0/ZycU72OWorvLr4XfZ/F3iDQxqRf+ydPe/wDtAtv9btiWTZt3cZ3Yzk9OlPt/hzo8On+HLjVfFA099cQNFGln5gg/ePGWlYyKFjBUfNknk/LxztzK1zNQk9DgKXtmpLq3+y3U0BkjlMblPMhYMjYOMqe4r0P4I6LZ3niY38+pWNvc2VvdTw29xHMzq6QMyzcRlMKfmwW3ZXIU8Zq+lyYq7secD6Udff6V2v8AaUt54w0+XVPGN3q8sBRrbUbaKW8McgfKJtuTEcA4J6gZ4zniHx1davoXxM1qR9Zmn1e3vGR9UgX7M7t0LBUPy/SpUr2XctxtfyOQ3Z6c0lemfFSxvfFHxH0i0jdrjUL+w0+MNK5JeR4oxkk88k1F4i+Dd5ouiapfR/2pv0sr9o+36U9pBKpcIWglZz5gDEfeVCVOcdqSkrXYOm72R5xRRXpOnfCewvLrw7YSeImj1TXrNbq1gjsd6IzbsLI/mDAJXAZQx6kqoAJu6IUW9EebUV2HgvwD/wAJUs5f+138uYQn+yNIe+8v/akO9Ao64ALE7W4GBnp9N+BPn3l3Z3uvJa3MernR4litTKJZPL8xWyXXCkZz6Y79KnnRXs5PoeUUV6anwTmurq3ax1CbUdNbT3v5JrWxaSfCzNDtjhDHeSy5Ull+U5O3Brn/AB18P7nwXDpd0/2wWmoI7RLqFk1pcIyMFZXjLNjqCCGOQexyAc8Q9nJanJUUuKAMke5xV77ECUV02teFbHw/H9mvdUddY8hZjax226JCy7gjSbs7iuOikZIGeuJYPAvnal4atPtuP7ZiWTf5X+p3Oy4xn5vu57V0/V6utlsY+2ha9zlKK6228F2S6DPq1/qzWsEV41p5UVt5kjkKDlQWUd+ckAAdScA4mvaVFpOrT2tvexajAmClzCRtdSAR0JwecEZOCCO1TUoVKSXNpcIVYT+FmcFyKXbyR6da634W2Om6l4y06HUSzgzqEg+zrLHJnIIfcw2jpyAa2PAVvpsfxCsl027uJyFn3/abZYAh8tsYCO5I6noOPWt6OElVUddyZ1lTbXZXPOaCuOtdLqnhexh0OPVrLUpLy0+2fYpvMtvKZW27tyDedwIz12njkDNXvGkMo8PeGiuqS6hpxjmW2iltEgaEBgDnazbskDkms/q0/ebWqt26lKtGTSRxdL2ru5vhvaR3ktgmtNLqS2X21IltcR48oSbGcvw3XoGHTnkgcIBu6VnVozo259L/AKDp1IVfhYUdK6XS/DdpHpNtqmq38tnDcTtDbx29uJpHKY3MQXQBRkDqSSenFdB4u8PjxF8S9ehBvG2S7hHY2jXMpHyjhQQABnkkj2zXR9TqOHN1bt+FyfbR5uU86C5FB4r03QPA1hoXxC0Wx1SWadLkQ3ENvPZAF1fIKzIz/IQQem7pXH32mabcavb2un3tzIJZdjmezEezJH3VR33d+OO34RPC1KcVzenQUa0JPQwwM9s0g5rrvFHgB/D+gx6oGvUia5+zvDqVj9lkztLKwBdgy4B54wfXNWtSUeKvh1FrEqAaro1xFp88yqF8+3ZT5RbHVk2FMnnaF/u8+bi5zwdSEKsdHZffsduHjHEKXI9v0OHI20lOP5Ulb7XSMhKKKKBBRRRQAUUUUAFFFFABRRRQAUUUUAFFFFABRRRQAUUUUAFFFFABRRRQAUUUUAFFFFABRRRQAUUUUAFFFFABRRRQAUUUUAFFFFABRRRQAUUUUDCiiigDZ8Vf8f1n/wBeFp/6ISsatnxV/wAf1n/14Wn/AKISsakhsKKKKZJs+H/+PHXv+vD/ANrw1jVs+H/+PHXv+vD/ANrw1jUFPZBRRRQSFbfh3WLLR5Vnlt9Qa7R90c1jfC2KDHI/1bHPuCKxKtabpt5q90trYWs15ct92G3jLueM8Ac9AT+FVGp7F897WE48yszrJPiKt5fa+99p7SWur+X5kdrceVImwgr85VgeBzleTzxVPVvG5vtb0bULGyGn/wBlxJFFH5pkyEkZwSSB2bB9cH1wOXWNmwMHceAMc59MVoat4d1bw+Yv7U0u903zs+X9rt3i34xnG4DOMitHj5J+zc1d69Lmaw8FrY2r7x7NJ4o0/VdOtFsYtPwLa0ZzIqjcWYE4GdxZs9OMelVdRm0rXpvK03TZrC4lkJH2rUYzAo5yBujXHXglzx69a57hfelwV9c/kaqWInUuqj0ZUaUYtcvTY3m8FahGNzTaWcc/8ha1P/tStzTfiRaWWpWGqS6IbjU7aBbZpftRWN1VSgYJt4bbgZ3FTzxk5HC89ep+g/wpMHjHP0/+vVRrumv3X46ilSVT+Jqdhp3jq1h03S7a90qS8fS5ZJbZkuvKjJZg3zrtJbBHUMOOKhg8bR/21r93cWDTWes+aJrdJ9joHfeNr7TyDjqpB9K5U9skc0rduv4in9bq7Nr7v6uT7CG9tzptJ8VWOjnVbZNPuW03UIVieM3YE64YNxJ5eMEg5GzkH8am1S+bxtHYW+nWltp0OmwGFVutQiQupdmBzIVy3POPqAOlcmqlmwB9K0NS8P6poywm+0+7sVm/1bXEDR78ddpI56jpR7apKnySV4/11B0oc3N1Jr7wzeaTb+fNJYvGnG2DUbeZufRUcn9K0PEXiy08QXi6ibCa31jEe+ZLpTCSqgZEezIyAP4zzWJNo99b3sdnNZ3EV45ULbvGwkOemFxnml1TR77RZkiv7K4sZXXesdxG0ZIzjIB7Zz+VRzSgmoqyVvv+4u0ZWcnd/wBeZ003ji2kvr3ULXSPs+tahG0UkzXIMCM67XdI9oKkgn7zkDcevbLHgjUWxifShx/0F7T/AOO/zrB+6zc9BS/NwCSOOB/9aiVZVv4yvbtZDUPZ/AdOviC2g0mPRdZsGv0spneCazu1jZN3313BXV1JAOQODnmqOi6zYaZevdSWd6kyyeZA2n33kGHk8Asjk9sHPbvWKBuyfz5zSYNL287p31XkvlqL2UbNHVt48lm8aPrslqro48qS2Ln95Fs8sqzY5JXq2OTzjtWbqniae+8SJq0CC1eF4zbR53CFY8CNffAUfXBrG6cnj1/nSj1x7g1nWqzrUnSm7rXT1HTpxpyU4qzVl9x2fji+s28T2vinQ7qFRfyfbxaqwaWzuAQ0iup5xvyVOMEH24peKvE2j+Iri7vodElstWvJPNnk+2+ZbrITl2ii2ArubPDO4AYgDoRzPAXB49jn8KT+dceHo+xgqd726nXVqe0k57XPSLj4s2M19q+p/wDCPudY1bTm0+5uGvsxrmERl44xGNudqkhmbpgEda5TxF4o/t7SfD9l9m+zDSbRrUSeZu8zMjPkDHH3sY56ZrBpR/8ArrblVjLmZv2fgnUdQtYriO50dY5RuUTa1ZxsOe6tKGB9iBVzQdSn+G/iCaaeG1v5JLKeDba30UyASxtHu3xFxkZzt6/TINcoe/FW7HR77U45ZLS0nuY4QDK0UbOEBOBnA4yeOaZDaSuT+H73TtP1FLjUbO5voY/mSK2uUgbcCCCWMbgjGRgAdc5ra8V+KtE8VeLpNafR9Qt0uZpJ7q3XUkLMzcjy3MHyAHqCGyOOK5q+sLjTLqW2vIJbW4j4aGZCjrxnkHkVB68UWT17FKTd/M7jxL8RLTVNe0vXNK0y60zVNPFusbTXy3ERWFQqfIIkOflGSWPfjmqGuapoXii+mksdFuNM1S+nVy0mqxm0V2YbvleJSqnJ5aTjPJOBXL7fzoHqRx/n9aSirF8ze50n/CvtVOB9r0Tp/wBB+x/+PfyrXt/iU2n+KfCepHTlkbw7bR2ZhW5BE5QvlgwUhQd3bd06muWk8M6tHbtPJpt2IFhW4aRoG2iJvuuSR904OD7VmUGaknrFnaaf49sU8O2uk6po81/HZXsl7b+TfeQjM4UbZV2MXA29ipwSARW//wALy/4nQ1D+xMY1z+2fLF3/ANMfL8oHZx67vwx3ryyijkRftJI9Bh+Ky/2faabc6QLjS1019Ou4Bc7WmBmMyyI207GViMZDdOetcnerpmqahbQ6NaXFh5h2N/aOoRSZYnAPmeXEqj13ccdRWVQDQoq4nOT3Ov8AiZb+HLXXLSDw4kaJHZxC8+zztNCbrnzNjt95enI4yDiuRHytnHIOaQcGjJ5qo+6Ju7udNrXiiw8Qxm5vNLkOsGBYmuUusQuVG0O0e3O7aB0YDIBx1BvaV4/tbJtDuLjSHur7SVEcMi3WyNk8wvyuwncNxwd2M4JB6Hi6MmuxYqrFtp7+hzOjTatbY37zxR9r8OPpQtfL3X7X3mCTOMrt27cdvXNVtN8M3uqWwuIZbBEJxifUbeJv++XkBFZP+NG4k5JrF1OeXNPX8C1BQVoHQ6f9t8C63p+oMLO4lhkEqJBdxXC/KRkN5bHbn3q1pvizTdE8Rwapp2lXKBBJvguL1ZA25SBtIiXbjPv2rlDRu9KqNaUFaGlthSpxldy3ehuReI0Xwv8A2NJaM0bX4vGlWXaSNhUoBg4Jznd+lX9c8V6Vqmg6fp0Ok3cBsA4t5ZL5HHzsGbcohGemBgjHvXKUZ4qvrFS1r9vwD2UL3sdh/wAJ9u8StqosPvWP2IQ+cO8Hlbt238cfr3rNXwbqEiqVm0wBgODq1qOvsZMj8awO+aXcexx/SpdX2iXPrbb57hGmofBodbH4ig0vTLfSNW0yPUpNPmeW3kgvV8vLYJVigYSLkA/KwPXnmrVz8RYdSuvEBvNNlaz1iSOWSG3uvLkRkOVG8oQR14K+npXEZzRWv1ura0X+CJ9hC93v6s6+8+IAfxJourWenJaDS4o4YrdpTIpCMxGSeehA/D8Kh0/xXYaF4mstX0vTLiExOzyRXF4JN24Y+RhGpUgFsHnt6c8saKl4qq3dvz+YKjTStbyOp1bxXZXXhs6LY6XLaxG6W6M01150jMFdcHCKOjDGAMY5znibWL6z0PwNZ6Da3MV5eX06alfSwtujiwhEMIYcMwDszY4BbHUGuQB5zRxknH5VwYqMsVOEqjuo9PTY66DWGUlDr+ouOcGm0uaStCAooopkhRRRQAUUUUAFFFFABRRRQAUUUUAFFFFABRRRQAUUUUAFFFFABRRRQAUUUUAFFFFABRRRQAUUUUAFFFFABRRRQAUUUUAFFFFABRRRQAUUUUDCiiigDZ8Vf8f1n/14Wn/ohKxq2fFX/H9Z/wDXhaf+iErGpIbCiiimSbPh/wD48de/68P/AGvDWNWz4f8A+PHXv+vD/wBrw1jUFPZBRRRQSFdr8J7W11LxbaWDy6nZXlwXWG9029Fu0QEbFgRsJbOMdRwTXFV0HhDxc3g3UEvrfTLG8vY23RTXfmkx5BBACSKpyCeoPWuDHQnUoSjTTb8i4NKSbN34L2+m3PxA0g3k9wtwtyHgijt0dXIUnLOXUpggHIU5Nctryad9qZrC+u77eWaaS6tVgbcTnjEj7s++DnNWdM8WPonie11vTtOs7KW2bfHap5rw5wRk73Zu/wDerEZizFjwSc575rmw+HrRxLrSbS5UrafobymuVxXcs6fbxXmoW0M8wt4ZZFV5mGQikgE49gf0rp/GfhWHQ0jNnpl6LaSXZDqTXcdxb3C5YDaY4wAx2527iRzxXJW8y29wkjxLOqsCY3JCsPQ4IP5Gt268YSSacLKysbXSrczLO6WvmHe6ghCTI7EYyemOpzmvo6Uqag1Pf+v63OCanzJxOjuvh3aR6LqjPDPY31hbC4P2i+t5GcZXIa3X54idwIyTjp3qrb+BbG61bSJUuJ10S6sjeXE7EF4vLDecu7GMgr6dGFU7v4j3V0mqFNN0+3n1NGS6uI0fzJNxBJBLnbyMkKAD3B4xm2vjC9tPDM+iKsLW0rE+YynzEBKFlU54UmNCRjtXXKphL6R/4LOdRxFtzpNL8D6c+k2GoXrM0eoO/lqdTt7UwRBiuT5gzIfoFAwOeeOM1qwj0vVry0huY7yGGZo0uIiCsqg4DDBI5HNadn4uePSoNOvNPs9UtreQvB9r8wNDuzkBo3U4J5xzz6VHDo9hqCG4k1vTdMaQlvskkdyTFz93Iib/ANCP1rCr7OorUrfqjWnzwbc2a3wotrC58a6WLqaZZhcxmGOOFXVyCT8zF1K/gDWbqb6QuuCXz7/UopJGa4EqJbSFicjDbpM88kkdqbZ3g8G65ZX2n31nqs0DCVTGk2wN6EOqHt29etZlpex2+oC5mtIbxcktBMzhWz2JRlbj2Io9pGNOFO2w+Rubn0sbvxGtPsfihkF3d3ga3gkEt9N50vzRKwUvgZxnA4HSrfjaE3Gn+DolOWfTFUc5586Ss/xB4wXxFeQXVxo9jHLHsDGJph5iKoUIwMh4wAOMH3o1zxkNcsbW3Ok2NmbSIQ281u02+NAxbaN0hB5J5IJ5+mNOelapro2u+yZkoVHyPqrnR6x8PtL06PUrSW7jhu7OFnW7k1O12zSKMlPs+d655A5J4HHOB5zjB/znr3ro9R8Xf27lr7StPe9lQRvqH75ZOBgOVWTaWGOu0/jUa+G9OPXxRpfTP+puz/7QrKsoVJJ09Evl/kbU+aC9/c6TRbjSB8NdT86yvZQt5biYR3qKXbD4K5iO0e2DnjnisKz8O2eteG9RvrETLe2dyhNu7q4Ns52g8KMsG2gnjr0FQab4hOgW9/pvlWmsafcOrNHKJAjMhO11IKOp5I7cE8dK0/BevWfhu7vdbNxbLI0ciR6QkbvvJAKgluAitg5LFvk9810xqUq0489rJWfyMHCdNScN73X+Rf8A+EL0S3m1mO6ubtxpFpDJcG3dDvnLqJEGV4ALbe+CCeelLa+AbHXJNIubOea3026tp7mWO4ljMkfk/fUOdi4OVwzYxnnpWZ4T8SWem6f4j+3iO8mvYFEcM/mbZm81WOShU9BnOR0FVB481CHVrO6t47e2htIjBFZJGTB5ZB3owYksG3NuJJJz14GHz4a0XJaPov1J5a12k9v8v8yx4q8Oafpelw31nNHBM0piksTqMF4+MEiQNFjA4IwQCCByc8cnz0xn+taeratb6gqCDSrXTSpJLWzzEtn13yN07YrMz+f1ry6zjKd4qx201aPvG9J4c06OBpF8VaRIwUkRrFeAtgZwCbcDP1PftTLXw/YXFrFLJ4n0q1d1DGGaK7LISOhKwFcj2JHvT5PH3ieaF4pPEervE67GRr6Uhl6EEbumO3Sm2fjrxJY28dvbeIdVt7eMBUjhvZVVFHYANgD26V4fs8Zazl17r/5E6VKH9f8ADmLIojkdFdZArEB1Bw3PUZAOPqK2ND8WXeg6fqVnbpE0d+iJI0iksoRw4xzjqB1BrImkeaR5JHaSRyWZ2JJYk9ST3plesk+Vc25hKMZqzWh21mo+IviLWtb1iT7NBDA17craL8zY2qqJuJwSSOTnHJ9qzbKz0HWvEemW0Utzo+nzSBJ5LyRJfL5xkOFQYIx1UYx1x0oeHPEVz4au5Z7dIpkmiMM9vcLuimjPVGHXHA6EHgc0641y3mv7aZdGsIbaJcGzj83y5M9SzF95/wC+u31yGHJJNpbdPI6HWfCthpOr6Yt7pOpabpVxKoku2vYrhJY2wd0UiRBcgEk8t6cUmpeBoNBs/FE2oSzAafOtnZ+WQonkYkhjwcr5a7sD1HIrF1fxZJqelRaZDZWumWEcxuPJtDId0hAXcWkd24AwACB7U7xB40vvEen2FncpCiWihd8KlWmIRUDSHJyQqKueOB7mjUzUK146+pduPiRqVzpctiYbYQSafDphKo2fLjbcrfe+8e/bHYVyeTxkk/Wjd8uO1FOx0xpxhpFCUUtHpQWJRSkc0lABRRRTAKKKKACiiikAUUUUwCilox0oASilooASilooEJRS0UhiUUtFMBKKWigBKKWikAlFLRQAlFFFMQUUUUAFFFFABRRRQAUUUUAFFFFABRRRQAUUUUAFFFFABRRRQAUUUUAFFFFABRRRQAUUUUAFFFFABRRRQAUUUUAFFFFABRRRQMKKKKANnxV/x/Wf/Xhaf+iErGrZ8Vf8f1n/ANeFp/6ISsakhsKKKKZJs+H/APjx17/rw/8Aa8NY1bPh/wD48de/68P/AGvDWNQU9kFFFFBIUtJXofg2z0ux8B6hrk+RepfpatN/ZkWoCCMpuUmKVwq7myN5BPGBjJrgxmKWEpqbV7u3zZpCLk7I5Dw7oY8Q6lHY/wBoWthLKypE10JSsjlgoUbEYg5PcAcHmq+rabJouqXlhOyNNazPA7xn5CysVJBOOMjrjpXUreaRqHxL0a50WCW3s3u7UvHJCIR5u5N5RA7BVZvmCg4GccAUl/f6bpfxc1O61e1N7YQ6rcvLAoUl/wB4+3gkBgG2naSMgY71wrF1PbN20cObl872sbSppaeZxo5/TtSceua9OPhu213xB4TmutR0+98PajffZlktdOj06UN+7MiSRoi8/MFBBYDPUZql4w1TQP7P1fTJbaZdWimC2qLokFh9mZXw0bMkjM425GHBOVBz3pQzRVJwhGN2999Pw/yD2LSbPPj8pOeOaUqducc/560n8XByfavRNHjsvEWi2+naPJZWWqR27ebBfafFIbkjezOlwVZlO0LwQo9DX0tKk6t7PVficVSap2bPOwpPI/Xil28dPyFeleC9LhsbHQ5LnyZW1S5dY7dNKjvXlVWCsHaRgUHX7gzjJ9KbN4bstWk8RaHY2cSX2n6oz2jKAZHhMnlFC3Uhco3J6Fj3rrjgZSinfcweKim+y/4Y82/z16frRycZ4NeqWNvoV7q3iW6ggjWDSbZIrQQ2cc+UVgjzmIlVk6ZJYkDdk5wK47xlqGkajJZvpyOtwsZjupDapbJK2flZY0dgDjAOMdM9SaxqYZ0oc/MaQrKcrJHNr83T8q1LXw/PdaHfaqrxi3s3jR1JO5t5IBHGOMc81c8C6Tba54u0uxvRutJpwsihiu4c/Lntnp688V1zXN5qvw78QyXFjb2MH263jRLazSBQQWymVUFtvyj5iSPrzWuHwvtIuUuzsKrWcGku6PM8N0PT+dXLjRry10221CWH/RLl3SKTcPmZNu4YznjcK9S/4R+yjtPEWkXCQ3U2m6Y0jfZ9KjijhkCKwIud3mMc/wB4fNz2rI1TxJeR/DnRJ44LBt13cxOP7Nt2AwEwMGPCk88jBOOvAqpYNU4SlN7Lp6mX1hyaUF1/NXPOAu7/AOt/n/OKF9DXpXgvS4rWz0OW6MEzapcsI7ePSYr15FVlB3s5Gwcn7gzgk+lcV4us4dN8Vaxa2yeXBBdzRRrknCq5AGT14Fc9XDSpQjUfX/hzaFZTm4IraPo93rmoJZ2MPn3LglU3BcgAk8kgdAapspXg9vwru/g3qE1v4wtrZEhdZxJ963R3yI2ICsRkfgRnvUXhORvE2vTy3lna3U1pZTT21rDaxwpNIoyqskaru5OcdT0NXHDxqU4OL96Tf4EyrOMpKS0SRxO09+PwpPb+LGcV2WrFNU8Bw6rc2VrbX63/ANmimtoEgEsWwswKIFB2tt5x3x2rkIXMbq4wQCCN2CM+4PH5+tc9Sn7OSV9Hr/XmbwlzpvsNGfxzW7H4Wafw3c6xDfWssdts8+3USCVN7bV6oFP4Ma7vWtOtLfwzcavDpVmmvS2kQurBYlKWkLFh9oWPGFZgE4/h3Z/irmfDmP8AhXPiw/8ATS1/9GH/AArt+qKnKUJu/utnL7bnjzRVtUjjFXdVnTdOutX1C3srOCS5u7iQRxQxjLOxOAB+ddd4JvNMbS5LAtb2WsTT7o7q709LuJ124WPDBimWPUKc5GelXfA9hNpPijxjE3lPq9jpV8IWtwoUSjCMUxj+AyFcDt0HSvGx7eEw31iLv/mehhUsRX9lLQ4fWNNOj6pc2X2q2vGgfY01o5eJiOu0kDIB4zjBx6c1U6//AKq7X4W6baahfaxdTWceqXWnabNeWdjOCyTTKVxuX+MKCWK99vpWl8N5B4s+I2gHVtKsHtphPF+60+OGK4xG5A8tFCMQxHRQemT0pxcre87sqSTd1p2/4J5v+NB4r0nw/oMX/Cs7K+udOj8yfxLBbx3MkA/eRGM70DEcpuHI6ZHNO+IfiTT9P8SeLtAXw1pkNik8tvZtawJDLbyLLnzPM2l2BAI2FtoBAUAACmpX2FyeZ5pW9oXhKTWdLu9Sm1Cz0jTbaRIWur7zNrSNkqiiNHYtgE9MADk1g44yen04969Xs/EFlF8FZZG8NaXMi61FEYXlu9srC3b942Jwd3GMAhf9nvVNtK5MUubU4LSfDS6xeX9umr6ZapaQyTi4vJmhjnCY+WPcuS5zwpAJp/g3wmfGerR6bDqdlp95M6xwR3nm/vnYkBQY0cDtndgc10vwtmi1CfX9PuLDT5rP+yr67RZbKKV45FhOzZK6mQYIGBu6575NZ/we/wCSoeGP+v8Ah+n3h+ff1pFWVjkbiBrW5khdgWjYoWXOODgke3FRn/P5V6V4B0jTb/VvGF9exvPcWFtJcW8S2i3ZB80K8nku6q+xSThjtHBIO3FYPjrWNB1qLTJdKjk+3xpIt5cf2dDYxT/MDGwiidlBAJBPGeD1NQp6JlOnq/I5PHOKD39K1fCkMVx4o0aGaNZIZL2FHjkUMrDzACCD1HNem+Io7LUrf4m2Y0fTbOHRplaxays0ikiIuvLb94BuYEM2QxIB6AAYrSUjOMbnjp4zR+Ne76f4V0+BNd8PXsdve3Fhocl1ItnoUSRW83kiVGF7u84ktjqMNkqMD5a0Lay0i10OLboGku0Oj6NdCSSyjZnmmcRyOxIO75T908bhkjOaj2hoqbPnjtkcikr3TxBo3h7wfa6vqEUS2xbxDeWjyJolvqSQohBjh2zSKsQIYnIBJxgEBRny3XoLTxR4wuV8J6ZePa3Tb7axSAmX7m5wsasxwCGIAJwMU1K7sTKnZXuc7SgbuB1pXRo3ZHBV1JVlIIII4I5rf8A6Xaa14v0yxvv+PWaUK6htpbrhc9snAz154renD20lBdTCb9nFyfQwGz+QoOenviuwhv5tW8SWUN7pNla28epxRukVksIiy+PKfAGQQCPny3y8d86t3osMNn8RLj7AixWtyscMnkgCE/aQNqkDCnbxgduOldlPCOpdxZi6yTSaPOsHn060fXjn6V6T4g1qw8N3GkW39g6fcWc2mQPcr5SrJMzxYyJMEoR1yuOc5rzXjrwOfyrnrU40XyqV31LpT9oua1i7a6Nd3un3l7DFvtrQIZn3AbdzbV46nn0qaz8P3F9omo6nG8awWLRiRXYhzvOF2jHP59+9dh4N1y4t/AfiZY4bV/s0duyCSyhckGbkvlDvHP8AFnFJ4X1Z4/B/i69a3tZZhJbERvAnlBizDPlgBD3OCCOnFdsMPSlZNvZsxlVkr6bNI4O2t/tFzFCXSLzGC75W2quTjJPpVjWNL/sbU57P7VbXphPM9pJvibgHKtxkc11viaVNM1nQr60tLSGW+0yCadDaxvGXbcCRGVKKSFHQCtaLSrFvjjJYvZQfYVuHxa+WBHgRE42jgc46Y9aj6pok31tf5XD2/XyueXMpU8jFKfX3rttUmh1n4fvqDWNnb3Vvqi20bWkCxYjaJm2nb97G0cnJ4OSa4pQNy89Tj6/4npXLVo+zlyp72ZvTnzrbY0dB0G48RXkltbvHHIsMk37wkDCKWI4B5wKzcErkDI6fjXsumwSaX4qv9JsLCBNMtdJkczi1RpG3W5be0pXcAzN2IHQfXP8ABGiW9ufDlrdiG4OqEyfZYtKjumePeVJeZ2DR42t9zgBc+ue/6jzcqg973+85PrSTfN8vuPN7PR7y/tLu5t4d8FoivM24DaCwUHBOTyR0qj9eK9N8OalNpuleNLO2S1ZLOLMfmWkUjFRcKDuLISwx2bIFY/hmM31vrWv3j2lvHarErmPTYp8M5wAkJ2xgccsfw5NYvCr3FF62uaxrPVtaaficvpWmnVdQtrT7RBaNM4jEl0xRFJ6bjg4Ge54pmqaZdaLqNzYX0LW93bSNFLE2MqwOCOOv1HB7cV1XxS0u10/VdMNtB9na50+KeRPs4t90hLKT5SkhCcD5Qfz7v+Kh82bwxPKS1/Nodq9w7DlyNyqx9SUVOT2xXiYmU8NjY4d6qV/k1qehQUK+GlWXS346HD0Up6mkrrMAooooAKKKKACiiigAooooAKKKKACiiigAooooAKKKKACiiigAooooAKKKKACiiigAooooAKKKKACiiigAooooAKKKKACiiigYUUUUAbPir/j+s/8ArwtP/RCVjVs+Kv8Aj+s/+vC0/wDRCVjUkNhRRRTEbPh//jx17/rw/wDa8VY5GKfCsbSoJWMcbMFd1XcQD1wMgH6Z9K6z4mfDqb4d6xaxpex6xompW632lavbxlEvbdujbT9xx0ZCcqwI54JV0i7OS0OPopcUlMzCr2la5qWgzPNpmoXWnSuuxpLWZomK5BwSpBxxVGlrOcI1I8s1dfeNGtD4u1631Ga/h1rUYr6cBZbpLuRZZAOgZwckfU9hRN4v16e/gvpdb1GS+gBWK5a7kMkanOQrZyAc+tZOaKz+r0eZycFd+RXM+5d1TW9R12ZJtSv7rUZEXYrXc7SlVzkAFicck/mfWrGoeLdd1az+yX2tahe2nH7i4unkj46fKSRWVmin9XpaWitNh8z7h19x09fpWo3irWf7P+wHVr42O3YLX7S/l7ccDbnGKy6K6FKS2e5no9zSsfEmqaXZyWlnqV3aWrkloYZ2RGyADkA4PAH5CoYdZvre+kvIry4iu5d3mTxysJG3fey2cnPeqVLmq9pPuHLHWy3LOn6ldabdLc2lxLbXK5xNC5RhkEHBHPetJdfTVLhpvETalrD7QsbfbtrKMkkEuj5GT0GO9YdLQqkoq3YOWLdzZu77R1hzp1hqFrdqQY5pb9JAuCOcCFTn6EfjUGoeJNV1RWW91G7uwyqrCed3yASQOSeAST9SazKWh1Ju6voLlRqy+LNZmtRbSarfSW4UxrC1y5QKRgqFJwARxUemeItU0eOSOw1G6skkOXWCZkVuMcgHms6ij2k73uHLHsaNn4j1TTrOSztdSu7e0kJLwxTsqNng5UHB4A/KrNvqWkTB5tVstRvr6R2eW4TUEQOSc5IaFjn3zWLRTVSXV3/EOWJp31/ZQ3EE2jw3mnvGd2+a7WVtwPylSsaYx+Pam3XiLVb27hurjU7ue6hx5U0s7M8eDkbSTkYPpWdnijdS9pLuHKuxqtr0mq30c+uzX2rIiFBuuyJAOcAO6vgc9MVabUtAj3PbaZqkFyBmKU6nGdrfwnAgBODjoR0rA4op+0mHLFmgviDU11CW+/tC6F5KpSS489/MZSMEFs5Ixxz/AIVatfGmv2Nulta63qNvbxjakUV3IqKPQDOAKxc0UlUmlow5YvdGpY+KdZ0qBoLLVr6zhZixjt7h0UsepwD1NJ4f8QXvhnW7TVbJwt1bvvXdyrdirDuCCQR6E1mUlY1Y+3g6dTVFxfK+aOjNW91lF16XUdGhl0RfMEkEcNwzNbng/I/BGCMj096bfeJNX1LUotRvNUvbvUItvl3c1w7yptOVw5O4YPTnis3t70URjypRWy0LlNybk+pq6h4s1zVm3X2s6heN5iy5nupHO9c7W5bqMnB7ZNVDfG81L7VqLT3vmS+ZcN5uJZcnLfOQ3zHnkg9elVaSqIuzpv7Q8Hf9ALXM/wDYah/+RKw5NRn+yy2cU86ae0vnC1aUsm7GAxHALAHGcCq1FHKg5jX0nxlr+gWzW+l65qWm27NvaG0u5IkLYAJIVgM4A/KnWvjbxFY3l1eW2v6pb3l0Q1xcRXkiyTEdC7Agtj3NYtLQCZqzeLNcudWi1OXWNQl1OJdkd6905mQc8Bycgcnv3NWj4ofW74T+KrjV9fEaFYj/AGjtkQ5z9+SOTjrwAOo54rA3fNmjvSt0C50F1qXhyOEvpel6xY36ENDcSatHIqMCCGKrbIT36MKy21i/Zrwm+uC16c3RMrHz/mDfvOfm+YZ5zzzVP8KKOXoFzZbxp4gaxism13U2s4kMUdubyTy0QqUKhc4A2Erj0JFQf8JJqxjK/wBqXu0xxxFftD42RnMa9einoOg7c1m0U7IOZ9zXsfF+vaXeXV3Z63qNpc3bb7iaC6kR5myTlyDljkk5Pqa0vCfjmTw74pPiO8judX1eMmWCaa8ZQZiCA0vBaQeqhlz64rlqSiyC5Yv76bVL65vLl/MuLiRppGxjLMck4+pNQqxU5B/z/n+QpKKaurWdhPXc0NR8Q6nrCwrf6hd3oh/1f2id5NuRzjJ46CpL/wAUavqkRju9UvblCuwrNcO42ghsYJ6ZAP1FZdAqvaT7sXLHsTXN5PfNG1xNJOY41iUyNuIUcBRnPAHAHathbzw15ahtK1QuAMkanGBn1/496wc8Yop88rsTimaUWtS6XqElxo015pYPCFbkmULxkF1C55HpUU2s6jci5829uJftJDT+ZKzCUjoXyfmx71SoyaXtJbN6D5UaNt4i1Wznimt9Ru4JYYvIjkjnZWSPsgIPC+w45NS3HizWry4t7ifV76ae3JMUsly7NHnrtOeMj0rJzRT9pK1rhyx3sXbPUNirbXRuJtO8zzXtYpvLDMAQGGVYA89cHjPrWk194aw23SdVDEcE6pGfp/y71gZ60Z6U1UkLlRqHxRq32aK2GqXot4lKxxfaG2oCpUhRnA4JH0JFNtfE2r2dotrb6neQWqtvEEc7rGGznO0HGc81m0lHtJ6O4csexestavtOvnvLa8uLe6bJM8UrI5z1+YHPNTxeKNYgvZr2PVb6O9mGJLpblxK/Tq2cnoPyFZdHelGc4qyY7RvqjUt9a+0ata3espNrEMJ+eCa4YGRck7NxyQMk/mehOaZ4i1678TaxdanfMpuLhtxWMbUQdAqjsoAAA9BWdmiud04yqe2l8W3yNFNxhyLYSiiitTMKKKKACiiigAooooAKKKKACiiigAooooAKKKKACiiigAooooAKKKKACiiigAooooAKKKKACiiigAooooAKKKKACiiigAooooGFFFFAGz4q/wCP6z/68LT/ANEJWNWv4kmjnvLVo3WQLY2qEqc4YQoCPwINZH14pRGFLRiimIOxA78d69m+Ih+y/s4/Cq0vkxfS3mqXdoXc7ks2eMfd7K0gcg+x65rxy3kEM0cjRrKqsGMb5w2D0OCDg+xBrf8AHnjzVPiJ4gbVtU8iN1iS3t7S0j8q2tLdBiOCGPOEjUcAde5JOTUSXNZea/A1hLlu/K33nPetNooqjJhRRRTEFFFFABRRRQAUUUUAFFFFABRRRQAUUUUAFFFFABRRRQAUUUUAFFFFABRRRQAUUUUAFFFFABRRRQAUUUUAFFFFABRRRQAUUUUAFFFFABRRRQAUUUUAFFFFABRRRQAUUUUAFFFFABRRRQAUUUUAFFFFABRRRQAUUUUAFFFFABRRRQAUUUUAFFFFABRRRQAUUUUAFFFFABRRRQAUUUUAFFFFABRRRQAUUUUAFFFFABRRRQAUUUUAFFFFABRRRQAUUUUDClpKWjTqBo6X4c1bXFlbTdLvL9Yj+8a1t2kCfXaPr+VbXw50PSfFOvR6TqEd6JbgSNHcWtyiKmyN3wyNG27JUdCK6bSdVtbrwT4disLbRLm/0uaYzQ6pqLWckcjPuWVMzxK2QACeSNo7VH4DuJL74oTeINRn0nTovPujcH7fDFGJHjkX92Gkyylm4YZHPWvlauOq1aVXnXLy7a63v+p1RhFcrPO9N0u81i6W1sLSe+unyVhtomkc45JwoJqa50HU7PUI9PuNOu4L+TaI7WSFllbd93CEZOe2BXR+Ef7Q8P6tqVkIdHv457byLuC41SGOKWJmViEmEqgscD7rHvkV0eht4a8N+N54bOeBVvtIkh23V551va3UnSI3EW3Me3C71PG7G7rXRWzGrSlKMY8y5U1b9e33a9xezi769TzbVNF1DQ7hYNSsLnT5mXesd1C0TFc43AMAcZBGaZfaXe6YLc3lncWouIhNCZ4igljPR1z1U4OCOOK6fxlqN2NF0/S5bDRbO0gmkmhGl6gLsqzBQwYmeXaDgdccg9TmszxVbXluukG71uDWRJZRvCILtrj7LGc4gbP3GXunbPvXqYWtOtRjOa3/AKuZ1IqLsjBopaSu4yCiiigQUUUUAFFFLQMSilopAJRS0UAJRRRTAKKKWgBKKXHSgKTwKQCUUtJTAKKWigQlFLSUDCilpKACiilpCEoopaB2EopcenNFMQlFFFABRRRQAUUUUAFFFFABRRRQAUUUUAFFFFABRRRQAUUUUAFFFFABRRRQAUUUUAFFFFABRRRQAUUUUAFFFFABRRRQAUUUUAFFFFABRRRQAUUUUAFFFFABRRRQAUUUUAFFFFABRRRQAUUUUAFFFFABRRRQAUUUUAFFFFABRRRQAUUUUAFFFFAwpRx+YNJR/jQBbv8AT5NOlijkYMXhjmUox4V0DD8cMKq9Oe/5fr1rZ8U/8f1p/wBeFr/6ISsWlvuO7uKvy9OP88Ue3b39KSlpWS1C77ie/U/Slz82cc/rVrSdNk1nVrPT4WVZrqZIEZydoZmCjOM8ZNdDq3w5vtJs9TlF/p99PpkiR3lrZyu8kO5toOdoVhuwCFYkFgCAc45amLo4eahUlZsvllLU5Sl+6OePTPGfzrqLv4e3lmt/Gb+wk1GwiM13psbv50KrjdligjYrnkI7Ec+hFa+reCNFtvBGg30WuaZBeTyXKy3W27KzhSmFA8o4255JA+8OT25JZlh4yjFa8ztszRUZdTz/AI+tJW4fCV4LDQbsyQiLWZJIrddzFkKOqHeMcDLD1rSj+Gt+39uNNfafaQaLdfZLu4nlcIG+f5lwhLDMZGAC2WGFPON5Y7DU7pz/AK2/My9nLscjRXZf8Kv1EPesb/TUtLW1gvTePMyxSQS42uvy7jjnggNkYAJxWL4k8Mz+GZbQS3FveQXlst1b3NqWKSRkkA/MqkHIIII7U6WOw9afs4Suw9nJK7Rk/exRtxyR71Y02eK1voJZk8yJJFZ02htyhhkYPXjPB4rrvGHinw/rWmXttpulLZTyam1zBILaOIpb+XgR5XkfNzjp3613GEpOMlFRujko9Nup7i1ijtZmkusfZ0WMky5YqNoA+bLAjjPIIqfWPDuqaD5X9padd2Hmbtn2qBo923GcZHOMjOOmRXdaLaox0jUNOfY0dxNf2GiXAWJVlWKJ5ZjK7YFuGicDc2SsG3O4uy5l7orWngkpqcyxC0vJJIJtPuLe8WSSaNdqSbZsxjFucNhs5PAKjciPa+8l0OJ27mxjnvyOKn1DT59JvrmyuojHc28jRSR5B2upIYZHHBB5B7V6F8J7/XBf2jjVLyDR7LzZobH7e0EVxJEjTeUucoBwC7MAqq3JBZc6+p6pqo0DWLuLWdXtprOBZkZPFUN8GzNGhBjiAYDDk7uACBnqKCJVnGfLbT1PJtO0241a+t7O0Tzbm4lWGJMgbmY4UZPAye5qW00W8vIWmijTyVnjt2kklRFV3DFQSxGAQj89Bjkiuo+GN+954+0wz6emsXdzqEMrXNwZWljIfc8g2uAx/iJcMPlz0zWxHJpaeH9UtrfQor66Op2UJtbW7lltZJmjuQqqB+8YjLDiQhnwykrww7lTqOMnFI8+t9F1C61E6fDZXEt+HZDaxxMZdy53DbjPGDn0q/P4F8R2sMk02gapFDGpeSR7OQKigZJJ28D3NTahLYXPja5fVX22X2l/tMulO1x5pGdzRtM5LBzzuZjjdnB6V0uuWfhyXT45Z9Su1e6sWn0xRYeXFbLHJKghIEz4V2RxnBO5lctnfuNRyqONvPyOBk0+eLT4r1o8W0sskKPkcsgUuMZ7B056c+xoj024k0+a+WPNtFIkLvkcM4YqMdTkI3T09xXa/ES1jtbW6ggiSCGLxJqqxxxgBY1H2cABR0x7elXUsbXR/B+kNY+JYNG1FL65+1XCvKyyyiOIBY3gjbcqJIVyTjMkm0srZJqL2uit3OJv/C2r6Xo9tqd3p9xbafcvsiuJUKq5KhhgnsVOQe+DjO04p2Onz6jM0VvH5jrFJMRkD5I0Z3PPoqsfw+ldx8QtMt7rUheS+JLOa7bT7R2V1ujLMfs0XzBjFty/UFmH3ucHpX8GxRaX4c1/Uo7totZW0SSze2cBoE+0xRyMxAyjtnaoBBK78gKy7joEar9mpM4fbjqD26c0BS3QcV7featfafqV0lnrWvMsD61Zul7qTTbmt7UskoAVdp3OD3wVBBrzfwhImr+IGXULO21JrlmmuLu9eZniRQ0k0vySoXIUMxByTt45PLCNa8XJrYoReDdduL69s7fSru7ubKUw3KWsLTeU4JGCUBHVW+uDjNUNQ0270m6e1vbaa0uUxuhnjKOMgEZB55BBH1r2bxRoJvLrxWB4fuNSjm1WGeOPRJJA8oDXqtM+9JCCHDKQAq5AK8YJ4Lx1pclz40isoYRZSfYbJRBfzpEY9tpFlXd9gyACO2T9cUEU6yqM5S606ey8kzJtWaNZY2UhlZW7gg44IYHuCrA8ggLfafPpsyQ3KeXI0ccoXIPyyIHQ8eqsD6jNeoafpI1DT743WheHJGsbMG1VddLquZ0Uqf8ASyFX9457DcfU88b4ysrqS4/tCeDS7bzW2uun6ot00jnLF2zNI/Pc5A4HGTyI0hVUpWMmPw7qU0IkjspmzJDEqBfnZ5lZ4gq/eO5VJGB6eoqvdafPZQ2k00eyO6hM0LZHzqHZCfb5kcc46V7XNG+j+GZVn8H3QsI5Ujd40vVHlrHcedKqtKGSJfPGFZl8wO+cEkR81qtwLHwrclUsZ9J/sqGCwme0jeRZ2mKvtd03qHMV7IMn5QwPytgAMoYhye3U85j024lsZb1Y/wDRopY4XckDDuHKjHU8Rv0B+77jOx/wrzxTjJ8N6uPrYy//ABNdNodsV+F+oy3GkWkMDXcPl310Z0NwwS5AZMOA7qxCgKuPmywIBYdZrX9i6breu6zH/wAI9HqVjrSlJ5v7Rby33TP+8A4Z90YPyApw3qMoJYhqVkjw3aef14pvt0NdVoeraTodrr9rdQRahLNCIbO4WAOqsHHzjzAGUFc9gTnnFUvG+sadr3ia9vtKtBYWEpXyrdY1j2YUA/KvA5BPHrRc3U25NOOhhUUUVRoFFFFABRRRQAUUUUAFFFFABRRRQAUUUUAFFFFABRRRQAUUUUAFFFFABRRRQAUUUUAFFFFABRRRQAUUUUAFFFFABRRRQAUUUUAFFFFABRRRQAUUUUAFFFFABRRRQAUUUUAFFFFABRRRQAUUUUAFFFFABRRRQAUUUUAFFFFABRRRQAUUUUDCiiigDZ8Vf8f1n/14Wn/ohKxqu6rqP9pzQyeX5fl28UGN2c7EVM9O+3P41SpIGFKvWkpRTEaXhnUotG8RaXqE6u8Fpdw3DrGAWKo4Y4B74Bx+NLq2rC68TXuqWwKCW8kuIvMHIBdmG4c8jgd+/NZnr2ozXJLD051HVktWuX5GnNZWR6N4u+Iy+I2v7uDxH4ksTeoWbSD81qCw+eMP5w/d5zgGPgcc1jJrmj6p4N0zR9SlvbGfTpZ5YprW3SdJVkCnDbpEK4K9eetclxz9c0bq44ZbSpQUabas7rb/AC/M09q29TudJ8VaK2i+G7fU11COfQ7maZI7SJCs6uyOAXLDyyCpH3WyMUzXPG1hqWm+LYYobhH1fVo76BnRQEjBkJD8nDfOOOc4PNcQeR60v8/XvSjldCNT2i9fxv8AmP2rskdDoPiK30rwz4l06aOR59ShhSEoAVUpKrtuJIwMA9PSjxV4gt9c07w5bwJKr6fYC0lMigBm8yRsrg8jDjrXP7uPekrpjg6cavtlvdv79DP2jtYVvY80KduDjgHIGB2P+T+FNpc/Liu8zO3bxH/b19omqXWuNZ6hpECbprpJLiaZxcSygxYBVyAyACRkGeM4yRBq9zo2p6ZLDpmoppdvCzzNY3EEgNxJ82wq6GTccZULIVCBgAzlnkbj8+1LkdxnHA5pWM1TSaszovCPiD+yNVW4ubkmO3sbuCBZkEqKzwyhE2MCMGR+QRjLHPU1ox+NBceGdZhu2sxdXcSwRw2umQW54likD+ZGqkriNwVPcxkBuSnGZHp7UgJ9T6mgHTjJ3Ol8Ca8mh65bzXF/cWljHPDdTW8O4rceVIrhGAI5wG2k5AYgHaCWBovia30G3kjihllkvYngv28wxEwsT+6jKk4zhWLMDkgKVKhxJzW7/wCv6UpbP4cD/D6U7A6cZbnUXk2iS+MLJrPU5NM0xI7Vf7QgttskciQoGkMYcHd5gJbDHncRu4zt+JPiFa6lo9tppvfEGqBLYxvcXN4sEUsnmu6s8OJN+NyjJcE7QBtwK883H1pNx+vqe/50rITpRk030Om8Sa5FqmiWcf2uS9vpby51C5kMYjxJMsIK4BxndE5+Xjayng5VVtLzR7vwvYWGoXtxbtDeXcx+zWombDpbhOGdBgmN+/8AD05rmOuSeSeuec/nR3z3p2K5FayOq8XXugattubK+1BrmO2t4EhuLGNEby4o4yxcTMRkKW+6eTj3rP0HUILHT/EMU0uyS7sFhhXaTucXMD4zj+6jH8BWKrFeQSDRnHtQCglHlO3tfH15q0l5ca9q9xeSpBeC2hkTdue4gaJgrZ+UAmM7fu7VfHICtydrqM9rbz28cvlw3BXzdoALBSSAT125wcDglVJGVGKgbb06elGe9IFBRvY77U9c0HV5vF4udQuIYb7WVvbZ7W185njBuOSGdABiRepzyMA84x/Ek2na14kiW11JYbAWdtCLu7ikQZjto0+ZFDEHcpHGQCRzj5q5nPWgNigmNNR1TOoj8UReH1Fpo/mTWRYvcyXsexrrKPGVZFY7FCSyL8rbjvZt33Qmdqlppn2cXOn30jb2CmyuoyJouCSQ4Gx1HC7sqxOfkArI7ggdKOPSmUopao9Avte0dLGNLa9U6tBp72K3tvFKLLy9u0hFf5hJIrShnKqodj8nzGZcq/1DSbjQ/wCxI5MGz3XEOoYfZNN83mjZ95VcCJVJH/LBSVTzHK8pu5B7ijtjp6YNISppdTq9GutHTQEsb69kVbi+hubhUjIaOOFZshDyCzrKu0kY3BtwVQGbtNP+JlpNqmgX134j1LS2WZri/sbKBjalmu5ZW3fvQSCrjOFb5ccsflryEsOuOe/bvntRuPrTsTKjGTu2LJjdkEkH8KafbpS5HOeTTaRt0sFFFFMQUUUUAFFFFABRRRQAUUUUAFFFFABRRRQAUUUUAFFFFABRRRQAUUUUAFFFFABRRRQAUUUUAFFFFABRRRQAUUUUAFFFFABRRRQAUUUUAFFFFABRRRQAUUUUAFFFFABRRRQAUUUUAFFFFABRRRQAUUUUAFFFFABRRRQAUUUUAFFFFABRRRQAUUUUAFFFFABRRRQAUUUUAFFFFABRRRQAUUUUAFFFFABRRRQAUUUUAFFFFABRRRQAUUUUAFFFFABRRRQAUUUUAFFFFABRRRQAUUUUAFFFFABRRRQAUUUUAFFFFABRRRQAUUUUAFFFFABRRRQAUUUUAFFFFABRRRQAUUUUAFFFFABRRRQAUUUUAFFFFABRRRQAUUUUAFFFFABRRRQAUUUUAFFFFABRRRQAUUUUAFFFFABRRRQAUUUUAFFFFABRRRQAUUUUAFFFFABRRRQAUUUUAFFFFAH/2Q==;" parent="97" vertex="1">
                    <mxGeometry x="940" y="49" width="541.14" height="357" as="geometry"/>
                </mxCell>
                <mxCell id="133" value="cur_file_name" style="rounded=0;whiteSpace=wrap;html=1;strokeColor=#B20000;fillColor=#e51400;fontColor=#ffffff;" parent="97" vertex="1">
                    <mxGeometry x="46.5" y="210.5" width="173" height="41" as="geometry"/>
                </mxCell>
                <mxCell id="99" style="edgeStyle=none;rounded=1;html=1;strokeColor=default;" parent="23" source="77" target="133" edge="1">
                    <mxGeometry relative="1" as="geometry">
                        <mxPoint x="1201" y="487.28673196794307" as="targetPoint"/>
                    </mxGeometry>
                </mxCell>
                <mxCell id="111" style="edgeStyle=none;rounded=1;html=1;strokeColor=default;" parent="23" source="107" target="100" edge="1">
                    <mxGeometry relative="1" as="geometry"/>
                </mxCell>
                <mxCell id="112" style="edgeStyle=none;rounded=1;html=1;strokeColor=default;" parent="23" source="108" target="100" edge="1">
                    <mxGeometry relative="1" as="geometry"/>
                </mxCell>
                <mxCell id="132" value="save_data_to_csv" style="swimlane;strokeColor=#005700;fillColor=#008a00;fontColor=#ffffff;" parent="23" vertex="1">
                    <mxGeometry x="1215" y="1173" width="725" height="437" as="geometry"/>
                </mxCell>
                <mxCell id="165" style="edgeStyle=none;rounded=1;html=1;strokeColor=default;" parent="132" source="134" target="164" edge="1">
                    <mxGeometry relative="1" as="geometry"/>
                </mxCell>
                <mxCell id="134" value="cur_file_name" style="rounded=0;whiteSpace=wrap;html=1;strokeColor=#B20000;fillColor=#e51400;fontColor=#ffffff;" parent="132" vertex="1">
                    <mxGeometry x="133" y="122" width="193" height="38" as="geometry"/>
                </mxCell>
                <mxCell id="166" style="edgeStyle=none;rounded=1;html=1;strokeColor=default;" parent="132" source="154" target="164" edge="1">
                    <mxGeometry relative="1" as="geometry"/>
                </mxCell>
                <mxCell id="154" value="cur_thin_data&lt;br&gt;&lt;br&gt;存储处理后的数据" style="rounded=0;whiteSpace=wrap;html=1;strokeColor=#314354;fillColor=#647687;fontColor=#ffffff;" parent="132" vertex="1">
                    <mxGeometry x="431" y="92" width="196" height="62" as="geometry"/>
                </mxCell>
                <mxCell id="162" value="save_file_type 等于 csv" style="shape=partialRectangle;html=1;whiteSpace=wrap;connectable=0;fillColor=#1ba1e2;top=0;left=0;bottom=0;right=0;overflow=hidden;pointerEvents=1;strokeColor=#006EAF;fontColor=#ffffff;" parent="132" vertex="1">
                    <mxGeometry y="234" width="182" height="47" as="geometry">
                        <mxRectangle width="127" height="44" as="alternateBounds"/>
                    </mxGeometry>
                </mxCell>
                <mxCell id="164" value="cur_csv_file_name" style="rounded=0;whiteSpace=wrap;html=1;strokeColor=#3700CC;fillColor=#6a00ff;fontColor=#ffffff;" parent="132" vertex="1">
                    <mxGeometry x="306" y="367" width="347" height="70" as="geometry"/>
                </mxCell>
                <mxCell id="174" value="存储的文件放于其数据来源的同级目录下" style="text;html=1;strokeColor=none;fillColor=none;align=center;verticalAlign=middle;whiteSpace=wrap;rounded=0;" parent="132" vertex="1">
                    <mxGeometry y="403" width="243" height="34" as="geometry"/>
                </mxCell>
                <mxCell id="155" style="edgeStyle=none;rounded=1;html=1;strokeColor=default;" parent="23" source="113" target="154" edge="1">
                    <mxGeometry relative="1" as="geometry"/>
                </mxCell>
                <mxCell id="156" value="save_data_to_xls" style="swimlane;strokeColor=#005700;fillColor=#008a00;fontColor=#ffffff;" parent="23" vertex="1">
                    <mxGeometry x="388" y="816" width="722" height="426" as="geometry"/>
                </mxCell>
                <mxCell id="167" style="edgeStyle=none;rounded=1;html=1;strokeColor=default;" parent="156" source="157" target="163" edge="1">
                    <mxGeometry relative="1" as="geometry"/>
                </mxCell>
                <mxCell id="157" value="cur_file_name" style="rounded=0;whiteSpace=wrap;html=1;strokeColor=#B20000;fillColor=#e51400;fontColor=#ffffff;" parent="156" vertex="1">
                    <mxGeometry x="385" y="102" width="193" height="38" as="geometry"/>
                </mxCell>
                <mxCell id="168" style="edgeStyle=none;rounded=1;html=1;strokeColor=default;" parent="156" source="158" target="163" edge="1">
                    <mxGeometry relative="1" as="geometry"/>
                </mxCell>
                <mxCell id="158" value="cur_thin_data&lt;br&gt;&lt;br&gt;存储处理后的数据" style="rounded=0;whiteSpace=wrap;html=1;strokeColor=#314354;fillColor=#647687;fontColor=#ffffff;" parent="156" vertex="1">
                    <mxGeometry x="482" y="213" width="196" height="62" as="geometry"/>
                </mxCell>
                <mxCell id="161" value="save_file_type 等于 xls" style="shape=partialRectangle;html=1;whiteSpace=wrap;connectable=0;fillColor=#1ba1e2;top=0;left=0;bottom=0;right=0;overflow=hidden;pointerEvents=1;strokeColor=#006EAF;fontColor=#ffffff;" parent="156" vertex="1">
                    <mxGeometry y="199" width="199" height="44" as="geometry">
                        <mxRectangle width="127" height="44" as="alternateBounds"/>
                    </mxGeometry>
                </mxCell>
                <mxCell id="163" value="cur_xls_file_name" style="rounded=0;whiteSpace=wrap;html=1;strokeColor=#3700CC;fillColor=#6a00ff;fontColor=#ffffff;" parent="156" vertex="1">
                    <mxGeometry x="261" y="356" width="347" height="70" as="geometry"/>
                </mxCell>
                <mxCell id="173" value="存储的文件放于其数据来源的同级目录下" style="text;html=1;strokeColor=none;fillColor=none;align=center;verticalAlign=middle;whiteSpace=wrap;rounded=0;" parent="156" vertex="1">
                    <mxGeometry y="392" width="243" height="34" as="geometry"/>
                </mxCell>
                <mxCell id="159" style="edgeStyle=none;rounded=1;html=1;entryX=1;entryY=0.5;entryDx=0;entryDy=0;strokeColor=default;" parent="23" source="113" target="158" edge="1">
                    <mxGeometry relative="1" as="geometry"/>
                </mxCell>
                <mxCell id="136" style="edgeStyle=none;rounded=1;html=1;strokeColor=default;" parent="23" source="133" target="134" edge="1">
                    <mxGeometry relative="1" as="geometry"/>
                </mxCell>
                <mxCell id="160" style="edgeStyle=none;rounded=1;html=1;strokeColor=default;" parent="23" source="133" target="157" edge="1">
                    <mxGeometry relative="1" as="geometry"/>
                </mxCell>
                <mxCell id="169" value="str_to_key_value" style="swimlane;strokeColor=#005700;fillColor=#008a00;fontColor=#ffffff;" parent="23" vertex="1">
                    <mxGeometry x="2711" y="899" width="332" height="134" as="geometry"/>
                </mxCell>
                <mxCell id="170" value="&lt;h1&gt;数据处理函数&lt;/h1&gt;&lt;p&gt;接受一行字符串，拆分成一个键值对，将其返回&lt;/p&gt;" style="text;html=1;strokeColor=none;fillColor=none;spacing=5;spacingTop=-20;whiteSpace=wrap;overflow=hidden;rounded=0;" parent="169" vertex="1">
                    <mxGeometry x="26" y="37" width="289" height="83" as="geometry"/>
                </mxCell>
                <mxCell id="171" value="" style="endArrow=classic;startArrow=classic;html=1;rounded=1;strokeColor=default;" parent="23" source="123" target="169" edge="1">
                    <mxGeometry width="50" height="50" relative="1" as="geometry">
                        <mxPoint x="2147" y="731" as="sourcePoint"/>
                        <mxPoint x="2197" y="681" as="targetPoint"/>
                    </mxGeometry>
                </mxCell>
                <mxCell id="172" value="" style="endArrow=classic;startArrow=classic;html=1;rounded=1;strokeColor=default;entryX=1;entryY=0.75;entryDx=0;entryDy=0;" parent="23" source="169" target="122" edge="1">
                    <mxGeometry width="50" height="50" relative="1" as="geometry">
                        <mxPoint x="2182" y="731" as="sourcePoint"/>
                        <mxPoint x="2232" y="681" as="targetPoint"/>
                    </mxGeometry>
                </mxCell>
                <mxCell id="27" value="" style="endArrow=classic;html=1;rounded=1;" parent="1" source="11" target="38" edge="1">
                    <mxGeometry relative="1" as="geometry">
                        <mxPoint x="460" y="120" as="sourcePoint"/>
                        <mxPoint x="620" y="120" as="targetPoint"/>
                    </mxGeometry>
                </mxCell>
                <mxCell id="33" value="" style="endArrow=classic;html=1;rounded=1;" parent="1" source="15" target="41" edge="1">
                    <mxGeometry relative="1" as="geometry">
                        <mxPoint x="500" y="170" as="sourcePoint"/>
                        <mxPoint x="660" y="170" as="targetPoint"/>
                    </mxGeometry>
                </mxCell>
                <mxCell id="175" value="merge.py" style="swimlane;strokeColor=#3700CC;fillColor=#6a00ff;fontColor=#ffffff;" parent="1" vertex="1">
                    <mxGeometry x="-1591" y="109" width="1432" height="1301" as="geometry"/>
                </mxCell>
                <mxCell id="189" value="全局变量" style="shape=table;startSize=30;container=1;collapsible=0;childLayout=tableLayout;fontStyle=1;align=center;pointerEvents=1;fillColor=#d80073;fontColor=#ffffff;strokeColor=#A50040;" parent="175" vertex="1">
                    <mxGeometry x="867" y="63" width="436" height="288" as="geometry"/>
                </mxCell>
                <mxCell id="190" value="" style="shape=partialRectangle;html=1;whiteSpace=wrap;collapsible=0;dropTarget=0;pointerEvents=0;fillColor=none;top=0;left=0;bottom=0;right=0;points=[[0,0.5],[1,0.5]];portConstraint=eastwest;strokeColor=default;" parent="189" vertex="1">
                    <mxGeometry y="30" width="436" height="43" as="geometry"/>
                </mxCell>
                <mxCell id="191" value="full_dir" style="shape=partialRectangle;html=1;whiteSpace=wrap;connectable=0;fillColor=#a20025;top=0;left=0;bottom=0;right=0;overflow=hidden;pointerEvents=1;strokeColor=#6F0000;fontColor=#ffffff;" parent="190" vertex="1">
                    <mxGeometry width="175" height="43" as="geometry">
                        <mxRectangle width="175" height="43" as="alternateBounds"/>
                    </mxGeometry>
                </mxCell>
                <mxCell id="192" value="待处理的文件夹绝对路径" style="shape=partialRectangle;html=1;whiteSpace=wrap;connectable=0;fillColor=none;top=0;left=0;bottom=0;right=0;overflow=hidden;pointerEvents=1;strokeColor=default;" parent="190" vertex="1">
                    <mxGeometry x="175" width="261" height="43" as="geometry">
                        <mxRectangle width="261" height="43" as="alternateBounds"/>
                    </mxGeometry>
                </mxCell>
                <mxCell id="193" value="" style="shape=partialRectangle;html=1;whiteSpace=wrap;collapsible=0;dropTarget=0;pointerEvents=0;fillColor=none;top=0;left=0;bottom=0;right=0;points=[[0,0.5],[1,0.5]];portConstraint=eastwest;strokeColor=default;" parent="189" vertex="1">
                    <mxGeometry y="73" width="436" height="44" as="geometry"/>
                </mxCell>
                <mxCell id="194" value="save_file_type" style="shape=partialRectangle;html=1;whiteSpace=wrap;connectable=0;fillColor=#1ba1e2;top=0;left=0;bottom=0;right=0;overflow=hidden;pointerEvents=1;strokeColor=#006EAF;fontColor=#ffffff;" parent="193" vertex="1">
                    <mxGeometry width="175" height="44" as="geometry">
                        <mxRectangle width="175" height="44" as="alternateBounds"/>
                    </mxGeometry>
                </mxCell>
                <mxCell id="195" value="处理数据后存储的文件格式" style="shape=partialRectangle;html=1;whiteSpace=wrap;connectable=0;fillColor=none;top=0;left=0;bottom=0;right=0;overflow=hidden;pointerEvents=1;strokeColor=default;" parent="193" vertex="1">
                    <mxGeometry x="175" width="261" height="44" as="geometry">
                        <mxRectangle width="261" height="44" as="alternateBounds"/>
                    </mxGeometry>
                </mxCell>
                <mxCell id="196" value="" style="shape=partialRectangle;html=1;whiteSpace=wrap;collapsible=0;dropTarget=0;pointerEvents=0;fillColor=none;top=0;left=0;bottom=0;right=0;points=[[0,0.5],[1,0.5]];portConstraint=eastwest;strokeColor=default;" parent="189" vertex="1">
                    <mxGeometry y="117" width="436" height="42" as="geometry"/>
                </mxCell>
                <mxCell id="197" value="directory_name" style="shape=partialRectangle;html=1;whiteSpace=wrap;connectable=0;fillColor=#1ba1e2;top=0;left=0;bottom=0;right=0;overflow=hidden;pointerEvents=1;strokeColor=#006EAF;fontColor=#ffffff;" parent="196" vertex="1">
                    <mxGeometry width="175" height="42" as="geometry">
                        <mxRectangle width="175" height="42" as="alternateBounds"/>
                    </mxGeometry>
                </mxCell>
                <mxCell id="198" value="生成的结果文件夹名称" style="shape=partialRectangle;html=1;whiteSpace=wrap;connectable=0;fillColor=none;top=0;left=0;bottom=0;right=0;overflow=hidden;pointerEvents=1;strokeColor=default;" parent="196" vertex="1">
                    <mxGeometry x="175" width="261" height="42" as="geometry">
                        <mxRectangle width="261" height="42" as="alternateBounds"/>
                    </mxGeometry>
                </mxCell>
                <mxCell id="203" style="shape=partialRectangle;html=1;whiteSpace=wrap;collapsible=0;dropTarget=0;pointerEvents=0;fillColor=none;top=0;left=0;bottom=0;right=0;points=[[0,0.5],[1,0.5]];portConstraint=eastwest;strokeColor=default;" parent="189" vertex="1">
                    <mxGeometry y="159" width="436" height="43" as="geometry"/>
                </mxCell>
                <mxCell id="204" value="sum_diff_prefix_files" style="shape=partialRectangle;html=1;whiteSpace=wrap;connectable=0;fillColor=none;top=0;left=0;bottom=0;right=0;overflow=hidden;pointerEvents=1;strokeColor=default;" parent="203" vertex="1">
                    <mxGeometry width="175" height="43" as="geometry">
                        <mxRectangle width="175" height="43" as="alternateBounds"/>
                    </mxGeometry>
                </mxCell>
                <mxCell id="205" value="有不同前缀的文件总数" style="shape=partialRectangle;html=1;whiteSpace=wrap;connectable=0;fillColor=none;top=0;left=0;bottom=0;right=0;overflow=hidden;pointerEvents=1;strokeColor=default;" parent="203" vertex="1">
                    <mxGeometry x="175" width="261" height="43" as="geometry">
                        <mxRectangle width="261" height="43" as="alternateBounds"/>
                    </mxGeometry>
                </mxCell>
                <mxCell id="206" style="shape=partialRectangle;html=1;whiteSpace=wrap;collapsible=0;dropTarget=0;pointerEvents=0;fillColor=none;top=0;left=0;bottom=0;right=0;points=[[0,0.5],[1,0.5]];portConstraint=eastwest;strokeColor=default;" parent="189" vertex="1">
                    <mxGeometry y="202" width="436" height="43" as="geometry"/>
                </mxCell>
                <mxCell id="207" value="sum_the_same_params_files" style="shape=partialRectangle;html=1;whiteSpace=wrap;connectable=0;fillColor=none;top=0;left=0;bottom=0;right=0;overflow=hidden;pointerEvents=1;strokeColor=default;" parent="206" vertex="1">
                    <mxGeometry width="175" height="43" as="geometry">
                        <mxRectangle width="175" height="43" as="alternateBounds"/>
                    </mxGeometry>
                </mxCell>
                <mxCell id="208" value="有相同参数的文件总数" style="shape=partialRectangle;html=1;whiteSpace=wrap;connectable=0;fillColor=none;top=0;left=0;bottom=0;right=0;overflow=hidden;pointerEvents=1;strokeColor=default;" parent="206" vertex="1">
                    <mxGeometry x="175" width="261" height="43" as="geometry">
                        <mxRectangle width="261" height="43" as="alternateBounds"/>
                    </mxGeometry>
                </mxCell>
                <mxCell id="209" style="shape=partialRectangle;html=1;whiteSpace=wrap;collapsible=0;dropTarget=0;pointerEvents=0;fillColor=none;top=0;left=0;bottom=0;right=0;points=[[0,0.5],[1,0.5]];portConstraint=eastwest;strokeColor=default;" parent="189" vertex="1">
                    <mxGeometry y="245" width="436" height="43" as="geometry"/>
                </mxCell>
                <mxCell id="210" value="the_same_params_files" style="shape=partialRectangle;html=1;whiteSpace=wrap;connectable=0;fillColor=#1ba1e2;top=0;left=0;bottom=0;right=0;overflow=hidden;pointerEvents=1;strokeColor=#006EAF;fontColor=#ffffff;" parent="209" vertex="1">
                    <mxGeometry width="175" height="43" as="geometry">
                        <mxRectangle width="175" height="43" as="alternateBounds"/>
                    </mxGeometry>
                </mxCell>
                <mxCell id="211" value="有相同参数的文件字典" style="shape=partialRectangle;html=1;whiteSpace=wrap;connectable=0;fillColor=none;top=0;left=0;bottom=0;right=0;overflow=hidden;pointerEvents=1;strokeColor=default;" parent="209" vertex="1">
                    <mxGeometry x="175" width="261" height="43" as="geometry">
                        <mxRectangle width="261" height="43" as="alternateBounds"/>
                    </mxGeometry>
                </mxCell>
                <mxCell id="202" value="dfs_dir_handle" style="swimlane;strokeColor=#005700;fillColor=#008a00;fontColor=#ffffff;" parent="175" vertex="1">
                    <mxGeometry x="31" y="49" width="820" height="586" as="geometry"/>
                </mxCell>
                <mxCell id="212" value="cur_dir 当前待处理的文件夹绝对路径" style="rounded=0;whiteSpace=wrap;html=1;strokeColor=#6F0000;fillColor=#a20025;fontColor=#ffffff;" parent="202" vertex="1">
                    <mxGeometry x="498" y="52.5" width="220" height="42" as="geometry"/>
                </mxCell>
                <mxCell id="220" style="edgeStyle=none;rounded=1;html=1;strokeColor=default;" parent="202" source="213" target="217" edge="1">
                    <mxGeometry relative="1" as="geometry"/>
                </mxCell>
                <mxCell id="224" style="edgeStyle=none;html=1;" edge="1" parent="202" source="213" target="222">
                    <mxGeometry relative="1" as="geometry"/>
                </mxCell>
                <mxCell id="213" value="cur_dir_item 当前的元素名称" style="rounded=0;whiteSpace=wrap;html=1;strokeColor=#C73500;fillColor=#fa6800;fontColor=#000000;" parent="202" vertex="1">
                    <mxGeometry x="469" y="183" width="211" height="37" as="geometry"/>
                </mxCell>
                <mxCell id="214" value="" style="endArrow=classic;html=1;rounded=1;" parent="202" source="212" target="213" edge="1">
                    <mxGeometry relative="1" as="geometry">
                        <mxPoint x="-857" y="96" as="sourcePoint"/>
                        <mxPoint x="-757" y="96" as="targetPoint"/>
                    </mxGeometry>
                </mxCell>
                <mxCell id="215" value="遍历该文件夹下所有元素（文件夹或文件）" style="edgeLabel;resizable=0;html=1;align=center;verticalAlign=middle;strokeColor=default;fillColor=default;gradientColor=none;" parent="214" connectable="0" vertex="1">
                    <mxGeometry relative="1" as="geometry">
                        <mxPoint x="7" as="offset"/>
                    </mxGeometry>
                </mxCell>
                <mxCell id="217" value="cur_path_name 当前的元素绝对路径" style="rounded=0;whiteSpace=wrap;html=1;strokeColor=#B20000;fillColor=#e51400;fontColor=#ffffff;" parent="202" vertex="1">
                    <mxGeometry x="456" y="324" width="224" height="36" as="geometry"/>
                </mxCell>
                <mxCell id="218" value="传递 cur_path_name 给其自身继续做深度优先搜索" style="rounded=0;whiteSpace=wrap;html=1;strokeColor=#6F0000;fillColor=#a20025;fontColor=#ffffff;" parent="202" vertex="1">
                    <mxGeometry x="353" y="526" width="355" height="60" as="geometry"/>
                </mxCell>
                <mxCell id="219" style="edgeStyle=none;rounded=1;html=1;strokeColor=default;" parent="202" source="217" target="218" edge="1">
                    <mxGeometry relative="1" as="geometry"/>
                </mxCell>
                <mxCell id="222" value="当前元素为文件&lt;br&gt;且类型等于 save_file_type&lt;br&gt;前缀符合要求时&lt;br&gt;" style="rhombus;whiteSpace=wrap;html=1;" vertex="1" parent="202">
                    <mxGeometry x="73" y="94.5" width="266" height="214" as="geometry"/>
                </mxCell>
                <mxCell id="227" value="&lt;span style=&quot;color: rgb(255 , 255 , 255)&quot;&gt;the_same_params_files&lt;/span&gt;" style="rounded=0;whiteSpace=wrap;html=1;fillColor=#1ba1e2;fontColor=#ffffff;strokeColor=#006EAF;" vertex="1" parent="202">
                    <mxGeometry x="73" y="439" width="212" height="59" as="geometry"/>
                </mxCell>
                <mxCell id="228" value="" style="endArrow=classic;html=1;" edge="1" parent="202" source="222" target="227">
                    <mxGeometry relative="1" as="geometry">
                        <mxPoint x="147" y="349" as="sourcePoint"/>
                        <mxPoint x="247" y="349" as="targetPoint"/>
                    </mxGeometry>
                </mxCell>
                <mxCell id="229" value="更新字典&lt;br&gt;同时&amp;nbsp;&lt;span style=&quot;font-size: 12px&quot;&gt;sum_diff_prefix_files 加一&lt;/span&gt;" style="edgeLabel;resizable=0;html=1;align=center;verticalAlign=middle;" connectable="0" vertex="1" parent="228">
                    <mxGeometry relative="1" as="geometry"/>
                </mxCell>
                <mxCell id="253" value="1" style="triangle;whiteSpace=wrap;html=1;fillColor=#a20025;fontColor=#ffffff;strokeColor=#6F0000;" vertex="1" parent="202">
                    <mxGeometry x="21" y="42" width="60" height="80" as="geometry"/>
                </mxCell>
                <mxCell id="216" style="edgeStyle=none;rounded=1;html=1;strokeColor=default;" parent="175" source="190" target="212" edge="1">
                    <mxGeometry relative="1" as="geometry"/>
                </mxCell>
                <mxCell id="221" value="delete_temp_files" style="swimlane;fillColor=#008a00;fontColor=#ffffff;strokeColor=#005700;" vertex="1" parent="175">
                    <mxGeometry x="855" y="745" width="518" height="433" as="geometry"/>
                </mxCell>
                <mxCell id="248" value="&lt;span style=&quot;color: rgb(255 , 255 , 255)&quot;&gt;the_same_params_files&lt;/span&gt;" style="rounded=0;whiteSpace=wrap;html=1;fillColor=#1ba1e2;fontColor=#ffffff;strokeColor=#006EAF;" vertex="1" parent="221">
                    <mxGeometry x="21" y="42" width="212" height="59" as="geometry"/>
                </mxCell>
                <mxCell id="249" value="&lt;span style=&quot;font-size: 11px&quot;&gt;cur_params_file&lt;/span&gt;" style="rounded=0;whiteSpace=wrap;html=1;" vertex="1" parent="221">
                    <mxGeometry x="243" y="331" width="259" height="73" as="geometry"/>
                </mxCell>
                <mxCell id="250" value="" style="endArrow=classic;html=1;entryX=0.25;entryY=0;entryDx=0;entryDy=0;" edge="1" source="248" target="249" parent="221">
                    <mxGeometry relative="1" as="geometry">
                        <mxPoint x="1905" y="-879" as="sourcePoint"/>
                        <mxPoint x="1790" y="-507" as="targetPoint"/>
                    </mxGeometry>
                </mxCell>
                <mxCell id="251" value="遍历字典&lt;br&gt;根据字典的键&lt;br&gt;&lt;br&gt;遍历其键对应的集合&lt;br&gt;根据集合中每一个文件路径&lt;br&gt;删除那些因执行 one_to_one.py&lt;br&gt;而生成的中间文件" style="edgeLabel;resizable=0;html=1;align=center;verticalAlign=middle;" connectable="0" vertex="1" parent="250">
                    <mxGeometry relative="1" as="geometry">
                        <mxPoint x="7" as="offset"/>
                    </mxGeometry>
                </mxCell>
                <mxCell id="255" value="3" style="triangle;whiteSpace=wrap;html=1;fillColor=#a20025;fontColor=#ffffff;strokeColor=#6F0000;" vertex="1" parent="221">
                    <mxGeometry x="409" y="55" width="60" height="80" as="geometry"/>
                </mxCell>
                <mxCell id="230" value="merge_csv_files" style="swimlane;fillColor=#008a00;fontColor=#ffffff;strokeColor=#005700;" vertex="1" parent="175">
                    <mxGeometry x="46" y="696" width="729" height="590" as="geometry"/>
                </mxCell>
                <mxCell id="231" value="dir_path&lt;br&gt;&lt;br&gt;结果目录的路径" style="rounded=0;whiteSpace=wrap;html=1;" vertex="1" parent="230">
                    <mxGeometry x="369" y="64" width="217" height="77" as="geometry"/>
                </mxCell>
                <mxCell id="232" value="&lt;span style=&quot;color: rgb(255 , 255 , 255)&quot;&gt;directory_name&lt;/span&gt;" style="rounded=0;whiteSpace=wrap;html=1;fillColor=#1ba1e2;fontColor=#ffffff;strokeColor=#006EAF;" vertex="1" parent="230">
                    <mxGeometry x="53" y="60" width="120" height="60" as="geometry"/>
                </mxCell>
                <mxCell id="234" value="" style="endArrow=classic;html=1;" edge="1" parent="230" source="232" target="231">
                    <mxGeometry relative="1" as="geometry">
                        <mxPoint x="364" y="-23" as="sourcePoint"/>
                        <mxPoint x="464" y="-23" as="targetPoint"/>
                    </mxGeometry>
                </mxCell>
                <mxCell id="235" value="os.getcwd()" style="edgeLabel;resizable=0;html=1;align=center;verticalAlign=middle;" connectable="0" vertex="1" parent="234">
                    <mxGeometry relative="1" as="geometry"/>
                </mxCell>
                <mxCell id="236" value="&lt;span style=&quot;color: rgb(255 , 255 , 255)&quot;&gt;the_same_params_files&lt;/span&gt;" style="rounded=0;whiteSpace=wrap;html=1;fillColor=#1ba1e2;fontColor=#ffffff;strokeColor=#006EAF;" vertex="1" parent="230">
                    <mxGeometry x="47" y="230" width="212" height="59" as="geometry"/>
                </mxCell>
                <mxCell id="239" value="&lt;span style=&quot;font-size: 11px&quot;&gt;cur_params_file&lt;/span&gt;" style="rounded=0;whiteSpace=wrap;html=1;" vertex="1" parent="230">
                    <mxGeometry x="369" y="481" width="259" height="73" as="geometry"/>
                </mxCell>
                <mxCell id="237" value="" style="endArrow=classic;html=1;entryX=0.25;entryY=0;entryDx=0;entryDy=0;" edge="1" parent="230" source="236" target="239">
                    <mxGeometry relative="1" as="geometry">
                        <mxPoint x="375" y="80" as="sourcePoint"/>
                        <mxPoint x="260" y="452" as="targetPoint"/>
                    </mxGeometry>
                </mxCell>
                <mxCell id="238" value="遍历字典&lt;br&gt;根据字典的键&lt;br&gt;设置新的文件名称&amp;nbsp;cur_params_file&lt;br&gt;用于存放合并后的数据&lt;br&gt;再遍历其键对应的集合&lt;br&gt;将数据写入该名称的文件里&lt;br&gt;&lt;br&gt;同时&amp;nbsp;sum_the_same_params_files 加一" style="edgeLabel;resizable=0;html=1;align=center;verticalAlign=middle;" connectable="0" vertex="1" parent="237">
                    <mxGeometry relative="1" as="geometry">
                        <mxPoint x="7" as="offset"/>
                    </mxGeometry>
                </mxCell>
                <mxCell id="241" value="" style="endArrow=classic;html=1;" edge="1" parent="230" source="239" target="231">
                    <mxGeometry relative="1" as="geometry">
                        <mxPoint x="429" y="268" as="sourcePoint"/>
                        <mxPoint x="529" y="268" as="targetPoint"/>
                    </mxGeometry>
                </mxCell>
                <mxCell id="242" value="文件存放于该目录下" style="edgeLabel;resizable=0;html=1;align=center;verticalAlign=middle;" connectable="0" vertex="1" parent="241">
                    <mxGeometry relative="1" as="geometry"/>
                </mxCell>
                <mxCell id="254" value="2" style="triangle;whiteSpace=wrap;html=1;fillColor=#a20025;fontColor=#ffffff;strokeColor=#6F0000;" vertex="1" parent="230">
                    <mxGeometry x="628" y="45" width="60" height="80" as="geometry"/>
                </mxCell>
                <mxCell id="199" style="edgeStyle=none;rounded=1;html=1;strokeColor=default;" parent="1" source="11" target="190" edge="1">
                    <mxGeometry relative="1" as="geometry"/>
                </mxCell>
                <mxCell id="200" style="edgeStyle=none;rounded=1;html=1;strokeColor=default;" parent="1" source="15" target="193" edge="1">
                    <mxGeometry relative="1" as="geometry"/>
                </mxCell>
                <mxCell id="201" style="edgeStyle=none;rounded=1;html=1;strokeColor=default;" parent="1" source="19" target="196" edge="1">
                    <mxGeometry relative="1" as="geometry"/>
                </mxCell>
            </root>
        </mxGraphModel>
    </diagram>
</mxfile>
